{"glyphs":{"0":{"ha":863,"x_min":33,"x_max":803,"o":"m 529 738 q 731 670 658 738 q 803 485 803 603 q 764 301 803 392 q 657 139 725 211 q 499 24 589 67 q 310 -19 410 -19 q 108 47 183 -19 q 33 235 33 114 q 73 418 33 329 q 181 580 113 507 q 340 695 250 653 q 529 738 429 738 m 507 713 q 399 669 449 713 q 312 551 349 625 q 256 388 275 478 q 236 207 236 297 q 264 52 236 99 q 332 6 292 6 q 442 51 393 6 q 526 172 490 97 q 581 338 561 247 q 600 515 600 428 q 574 667 600 622 q 507 713 547 713 z "},"1":{"ha":515,"x_min":63,"x_max":488,"o":"m 488 733 l 269 0 l 74 0 l 247 586 q 169 558 211 572 q 63 528 126 544 l 67 557 q 240 613 168 583 q 365 674 313 642 q 460 733 417 706 l 488 733 z "},"2":{"ha":743,"x_min":-35,"x_max":665,"o":"m 442 738 q 606 699 546 738 q 665 592 665 660 q 631 490 665 539 q 541 398 596 442 q 423 315 486 354 q 302 242 360 276 q 204 179 244 208 q 281 169 239 179 q 370 150 324 160 q 460 140 417 140 q 545 157 513 140 q 578 207 578 174 q 528 275 578 249 l 543 293 q 601 244 583 272 q 619 175 619 215 q 598 88 619 131 q 529 19 576 46 q 404 -8 482 -8 q 317 1 360 -8 q 229 22 274 11 q 132 33 185 32 q 44 27 79 36 q -35 0 8 18 l -28 29 q 49 87 1 53 q 152 164 96 121 q 264 256 208 207 q 367 360 319 306 q 442 471 414 414 q 469 586 469 528 q 442 670 469 642 q 364 699 414 699 q 281 681 324 699 q 203 631 239 663 q 147 562 168 600 q 125 483 125 524 q 144 433 125 450 q 206 417 163 417 q 273 431 244 417 q 333 474 301 446 l 350 454 q 271 403 311 418 q 196 388 231 388 q 149 395 174 388 q 108 423 125 403 q 92 482 92 443 q 118 573 92 528 q 191 656 144 618 q 301 715 238 693 q 442 738 365 738 z "},"3":{"ha":718,"x_min":-121,"x_max":657,"o":"m 431 739 q 596 701 535 739 q 657 600 657 664 q 627 510 657 551 q 549 437 597 469 q 445 382 501 404 q 336 347 389 360 q 471 328 411 346 q 565 274 531 311 q 600 176 600 236 q 553 45 600 106 q 429 -62 507 -15 q 256 -141 351 -108 q 63 -191 161 -174 q -121 -210 -35 -208 l -114 -185 q 57 -153 -32 -179 q 224 -78 146 -126 q 349 38 301 -31 q 396 199 396 107 q 374 288 396 254 q 311 325 353 322 q 269 308 289 315 q 231 301 249 301 q 211 306 219 301 q 207 322 203 310 q 238 346 211 342 q 300 347 264 350 q 387 399 349 367 q 449 474 425 432 q 472 567 472 517 q 438 658 472 625 q 343 692 404 692 q 269 678 306 692 q 202 640 232 664 q 153 587 172 617 q 135 526 135 557 q 153 476 135 493 q 215 460 172 460 q 301 481 263 460 l 317 460 q 259 438 288 444 q 206 431 231 431 q 159 438 183 431 q 118 466 135 446 q 101 525 101 486 q 145 625 101 576 q 264 706 189 674 q 431 739 339 739 z "},"4":{"ha":743,"x_min":-81,"x_max":643,"o":"m 594 738 l 599 706 l -49 78 l -32 113 l 643 113 l 629 64 l -81 64 l -72 93 l 594 738 m 631 738 l 379 -196 l 183 -196 l 375 515 l 594 738 l 631 738 z "},"5":{"ha":656,"x_min":-122,"x_max":617,"o":"m 600 747 l 617 738 q 531 596 583 649 q 410 543 479 543 q 347 557 381 543 q 283 583 314 571 q 225 592 251 596 l 96 314 q 193 350 140 338 q 311 363 246 363 q 492 318 435 363 q 549 197 549 274 q 504 57 549 119 q 387 -54 460 -6 q 225 -135 314 -103 q 46 -185 136 -168 q -122 -206 -44 -203 l -115 -181 q 38 -156 -42 -181 q 187 -83 118 -131 q 299 35 256 -35 q 342 194 342 106 q 312 287 342 253 q 211 321 282 321 q 157 315 190 321 q 75 283 124 308 l 61 290 l 253 719 q 325 713 293 722 q 392 694 357 704 q 472 685 426 685 q 546 698 514 685 q 600 747 578 711 z "},"6":{"ha":788,"x_min":39,"x_max":767,"o":"m 758 1003 l 767 975 q 617 907 692 954 q 474 787 542 860 q 354 620 407 714 q 271 413 301 526 q 240 171 240 299 q 259 41 240 74 q 313 8 278 8 q 398 50 358 8 q 465 156 438 92 q 508 292 493 221 q 524 421 524 363 q 503 516 524 489 q 454 543 483 543 q 388 511 422 543 q 328 400 354 479 l 306 407 q 362 527 326 483 q 441 590 397 571 q 532 608 485 608 q 673 556 617 608 q 729 399 729 503 q 694 242 729 317 q 596 108 658 167 q 452 15 533 49 q 278 -19 371 -19 q 101 42 163 -19 q 39 236 39 104 q 87 467 39 358 q 214 669 135 576 q 388 831 293 761 q 580 944 483 900 q 758 1003 676 989 z "},"7":{"ha":699,"x_min":58,"x_max":783,"o":"m 276 725 q 388 710 338 725 q 492 680 439 696 q 608 661 544 664 q 683 670 649 660 q 746 717 718 681 l 783 717 q 660 574 718 640 q 553 445 603 508 q 461 315 503 382 q 387 172 419 249 q 329 0 354 94 q 316 -54 319 -36 q 311 -83 313 -72 q 306 -110 310 -93 q 266 -177 297 -149 q 182 -206 235 -206 q 120 -187 139 -206 q 100 -139 101 -168 q 106 -78 99 -110 q 176 81 124 -1 q 301 246 229 164 q 452 406 374 328 q 603 554 531 485 q 724 678 675 624 q 734 681 724 678 q 744 683 744 683 q 649 620 692 649 q 569 573 606 592 q 499 544 533 554 q 426 533 464 533 q 344 544 378 533 q 279 566 310 556 q 210 576 249 576 q 138 557 168 576 q 108 494 108 538 q 153 407 108 442 q 276 354 197 372 l 269 332 q 117 398 175 351 q 58 532 58 444 q 81 624 58 579 q 151 697 103 668 q 276 725 199 725 z "},"8":{"ha":799,"x_min":-4,"x_max":811,"o":"m 581 1003 q 698 987 646 1003 q 781 938 750 971 q 811 854 811 906 q 781 757 811 803 q 700 673 750 711 q 594 603 650 635 q 486 550 538 572 l 481 561 q 552 640 519 592 q 604 745 585 688 q 624 864 624 803 q 546 978 624 978 q 470 951 506 978 q 413 879 435 924 q 390 781 390 835 q 421 671 390 718 q 497 583 451 624 q 586 501 542 543 q 661 409 631 460 q 692 290 692 358 q 658 165 692 222 q 565 67 624 108 q 429 3 506 26 q 269 -19 353 -19 q 133 0 194 -19 q 33 59 71 19 q -4 163 -4 99 q 29 275 -4 222 q 118 372 63 328 q 241 451 174 417 q 375 511 308 486 l 381 500 q 286 410 329 465 q 218 287 243 356 q 193 143 193 218 q 216 44 193 82 q 297 6 239 6 q 397 36 350 6 q 474 120 444 67 q 503 239 503 174 q 474 357 503 307 q 401 449 444 407 q 315 531 358 490 q 243 620 272 572 q 214 733 214 668 q 244 844 214 794 q 326 928 275 893 q 444 983 378 964 q 581 1003 510 1003 z "},"9":{"ha":769,"x_min":3,"x_max":717,"o":"m 478 738 q 655 676 593 738 q 717 482 717 614 q 669 258 717 364 q 544 63 622 153 q 373 -94 467 -26 q 185 -206 279 -162 q 11 -261 90 -249 l 3 -233 q 147 -167 74 -214 q 286 -50 221 -121 q 403 113 351 21 q 485 314 456 204 q 515 547 515 424 q 497 677 515 644 q 443 710 478 710 q 357 668 396 710 q 290 562 318 626 q 247 427 261 497 q 232 297 232 357 q 251 203 232 231 q 300 175 271 175 q 367 207 332 175 q 426 318 401 239 l 450 311 q 393 192 428 236 q 315 128 358 147 q 222 110 271 110 q 83 163 139 110 q 26 319 26 215 q 62 476 26 401 q 160 610 97 551 q 303 703 222 669 q 478 738 385 738 z "},"A":{"ha":907,"x_min":-128,"x_max":808,"o":"m 83 199 q 39 102 40 139 q 69 48 38 65 q 156 28 101 31 l 149 0 q 48 3 90 3 q -32 4 6 4 q -85 3 -64 4 q -128 0 -106 3 l -122 28 q -76 50 -97 35 q -27 96 -54 65 q 35 175 0 126 l 614 990 q 651 989 632 989 q 685 990 669 989 l 740 117 q 766 48 744 67 q 808 28 788 29 l 803 0 q 710 3 768 3 q 601 4 653 4 q 483 3 539 4 q 393 0 428 3 l 399 28 q 494 52 465 31 q 518 144 522 74 l 485 783 l 532 833 l 83 199 m 213 400 l 618 400 l 607 372 l 188 372 l 213 400 z "},"Á":{"ha":907,"x_min":-128,"x_max":1036,"o":"m 83 199 q 39 102 40 139 q 69 48 38 65 q 156 28 101 31 l 149 0 q 48 3 90 3 q -32 4 6 4 q -85 3 -64 4 q -128 0 -106 3 l -122 28 q -76 50 -97 35 q -27 96 -54 65 q 35 175 0 126 l 614 990 q 651 989 632 989 q 685 990 669 989 l 740 117 q 766 48 744 67 q 808 28 788 29 l 803 0 q 710 3 768 3 q 601 4 653 4 q 483 3 539 4 q 393 0 428 3 l 399 28 q 494 52 465 31 q 518 144 522 74 l 485 783 l 532 833 l 83 199 m 213 400 l 618 400 l 607 372 l 188 372 l 213 400 m 629 1089 q 743 1186 699 1143 q 822 1260 788 1229 q 893 1313 856 1292 q 938 1327 913 1324 q 985 1323 963 1331 q 1019 1290 1008 1315 q 1017 1230 1036 1258 q 964 1183 999 1201 q 884 1151 929 1164 q 779 1121 839 1138 q 639 1072 719 1104 l 629 1089 z "},"Ă":{"ha":907,"x_min":-128,"x_max":1011,"o":"m 83 199 q 39 102 40 139 q 69 48 38 65 q 156 28 101 31 l 149 0 q 48 3 90 3 q -32 4 6 4 q -85 3 -64 4 q -128 0 -106 3 l -122 28 q -76 50 -97 35 q -27 96 -54 65 q 35 175 0 126 l 614 990 q 651 989 632 989 q 685 990 669 989 l 740 117 q 766 48 744 67 q 808 28 788 29 l 803 0 q 710 3 768 3 q 601 4 653 4 q 483 3 539 4 q 393 0 428 3 l 399 28 q 494 52 465 31 q 518 144 522 74 l 485 783 l 532 833 l 83 199 m 213 400 l 618 400 l 607 372 l 188 372 l 213 400 m 679 1207 q 849 1227 768 1207 q 996 1286 929 1247 l 1011 1272 q 917 1176 975 1222 q 790 1100 858 1129 q 651 1071 721 1071 q 542 1097 588 1071 q 469 1169 496 1124 q 432 1271 442 1215 l 453 1281 q 545 1224 493 1242 q 679 1207 597 1207 z "},"Ắ":{"ha":907,"x_min":-128,"x_max":1093,"o":"m 83 199 q 39 102 40 139 q 69 48 38 65 q 156 28 101 31 l 149 0 q 48 3 90 3 q -32 4 6 4 q -85 3 -64 4 q -128 0 -106 3 l -122 28 q -76 50 -97 35 q -27 96 -54 65 q 35 175 0 126 l 614 990 q 651 989 632 989 q 685 990 669 989 l 740 117 q 766 48 744 67 q 808 28 788 29 l 803 0 q 710 3 768 3 q 601 4 653 4 q 483 3 539 4 q 393 0 428 3 l 399 28 q 494 52 465 31 q 518 144 522 74 l 485 783 l 532 833 l 83 199 m 213 400 l 618 400 l 607 372 l 188 372 l 213 400 m 679 1207 q 849 1227 768 1207 q 996 1286 929 1247 l 1011 1272 q 917 1176 975 1222 q 790 1100 858 1129 q 651 1071 721 1071 q 542 1097 588 1071 q 469 1169 496 1124 q 432 1271 442 1215 l 453 1281 q 545 1224 493 1242 q 679 1207 597 1207 m 686 1313 q 800 1410 756 1367 q 878 1484 844 1453 q 950 1536 913 1515 q 994 1551 969 1547 q 1042 1547 1019 1554 q 1076 1514 1065 1539 q 1074 1453 1093 1482 q 1021 1407 1056 1425 q 941 1374 986 1388 q 836 1344 896 1361 q 696 1296 776 1328 l 686 1313 z "},"Ặ":{"ha":907,"x_min":-128,"x_max":1011,"o":"m 83 199 q 39 102 40 139 q 69 48 38 65 q 156 28 101 31 l 149 0 q 48 3 90 3 q -32 4 6 4 q -85 3 -64 4 q -128 0 -106 3 l -122 28 q -76 50 -97 35 q -27 96 -54 65 q 35 175 0 126 l 614 990 q 651 989 632 989 q 685 990 669 989 l 740 117 q 766 48 744 67 q 808 28 788 29 l 803 0 q 710 3 768 3 q 601 4 653 4 q 483 3 539 4 q 393 0 428 3 l 399 28 q 494 52 465 31 q 518 144 522 74 l 485 783 l 532 833 l 83 199 m 213 400 l 618 400 l 607 372 l 188 372 l 213 400 m 679 1207 q 849 1227 768 1207 q 996 1286 929 1247 l 1011 1272 q 917 1176 975 1222 q 790 1100 858 1129 q 651 1071 721 1071 q 542 1097 588 1071 q 469 1169 496 1124 q 432 1271 442 1215 l 453 1281 q 545 1224 493 1242 q 679 1207 597 1207 m 289 -260 q 222 -241 246 -260 q 199 -187 199 -222 q 232 -106 199 -136 q 321 -76 265 -76 q 388 -95 364 -76 q 411 -149 411 -114 q 376 -231 411 -201 q 289 -260 342 -260 z "},"Ằ":{"ha":907,"x_min":-128,"x_max":1011,"o":"m 83 199 q 39 102 40 139 q 69 48 38 65 q 156 28 101 31 l 149 0 q 48 3 90 3 q -32 4 6 4 q -85 3 -64 4 q -128 0 -106 3 l -122 28 q -76 50 -97 35 q -27 96 -54 65 q 35 175 0 126 l 614 990 q 651 989 632 989 q 685 990 669 989 l 740 117 q 766 48 744 67 q 808 28 788 29 l 803 0 q 710 3 768 3 q 601 4 653 4 q 483 3 539 4 q 393 0 428 3 l 399 28 q 494 52 465 31 q 518 144 522 74 l 485 783 l 532 833 l 83 199 m 213 400 l 618 400 l 607 372 l 188 372 l 213 400 m 679 1207 q 849 1227 768 1207 q 996 1286 929 1247 l 1011 1272 q 917 1176 975 1222 q 790 1100 858 1129 q 651 1071 721 1071 q 542 1097 588 1071 q 469 1169 496 1124 q 432 1271 442 1215 l 453 1281 q 545 1224 493 1242 q 679 1207 597 1207 m 772 1294 q 653 1344 701 1328 q 570 1373 604 1361 q 507 1403 536 1385 q 469 1450 481 1421 q 474 1508 457 1479 q 527 1541 492 1539 q 589 1526 563 1543 q 640 1480 618 1510 q 694 1408 661 1450 q 783 1310 726 1367 l 772 1294 z "},"Ẳ":{"ha":907,"x_min":-128,"x_max":1011,"o":"m 83 199 q 39 102 40 139 q 69 48 38 65 q 156 28 101 31 l 149 0 q 48 3 90 3 q -32 4 6 4 q -85 3 -64 4 q -128 0 -106 3 l -122 28 q -76 50 -97 35 q -27 96 -54 65 q 35 175 0 126 l 614 990 q 651 989 632 989 q 685 990 669 989 l 740 117 q 766 48 744 67 q 808 28 788 29 l 803 0 q 710 3 768 3 q 601 4 653 4 q 483 3 539 4 q 393 0 428 3 l 399 28 q 494 52 465 31 q 518 144 522 74 l 485 783 l 532 833 l 83 199 m 213 400 l 618 400 l 607 372 l 188 372 l 213 400 m 679 1207 q 849 1227 768 1207 q 996 1286 929 1247 l 1011 1272 q 917 1176 975 1222 q 790 1100 858 1129 q 651 1071 721 1071 q 542 1097 588 1071 q 469 1169 496 1124 q 432 1271 442 1215 l 453 1281 q 545 1224 493 1242 q 679 1207 597 1207 m 707 1318 q 733 1386 714 1361 q 773 1430 751 1411 q 810 1471 794 1449 q 826 1533 826 1493 q 804 1596 826 1576 q 743 1615 782 1615 q 707 1611 724 1615 q 681 1599 690 1607 q 716 1573 703 1590 q 729 1531 729 1556 q 705 1474 729 1496 q 644 1453 681 1453 q 594 1471 613 1453 q 575 1518 575 1489 q 599 1574 575 1550 q 654 1613 622 1597 q 715 1633 681 1625 q 793 1640 750 1640 q 909 1617 863 1640 q 956 1539 956 1593 q 935 1481 956 1503 q 883 1446 914 1460 q 821 1417 853 1432 q 765 1380 789 1403 q 735 1318 742 1357 l 707 1318 z "},"Ẵ":{"ha":907,"x_min":-128,"x_max":1060,"o":"m 83 199 q 39 102 40 139 q 69 48 38 65 q 156 28 101 31 l 149 0 q 48 3 90 3 q -32 4 6 4 q -85 3 -64 4 q -128 0 -106 3 l -122 28 q -76 50 -97 35 q -27 96 -54 65 q 35 175 0 126 l 614 990 q 651 989 632 989 q 685 990 669 989 l 740 117 q 766 48 744 67 q 808 28 788 29 l 803 0 q 710 3 768 3 q 601 4 653 4 q 483 3 539 4 q 393 0 428 3 l 399 28 q 494 52 465 31 q 518 144 522 74 l 485 783 l 532 833 l 83 199 m 213 400 l 618 400 l 607 372 l 188 372 l 213 400 m 679 1207 q 849 1227 768 1207 q 996 1286 929 1247 l 1011 1272 q 917 1176 975 1222 q 790 1100 858 1129 q 651 1071 721 1071 q 542 1097 588 1071 q 469 1169 496 1124 q 432 1271 442 1215 l 453 1281 q 545 1224 493 1242 q 679 1207 597 1207 m 664 1511 q 749 1496 715 1511 q 809 1460 783 1481 q 862 1425 835 1440 q 928 1410 889 1410 q 983 1428 957 1410 q 1035 1490 1010 1447 l 1060 1483 q 956 1335 1019 1381 q 829 1290 893 1290 q 744 1306 778 1290 q 684 1341 710 1321 q 631 1376 658 1361 q 565 1392 604 1392 q 510 1374 536 1392 q 458 1311 485 1356 l 433 1318 q 536 1466 472 1421 q 664 1511 600 1511 z "},"Ǎ":{"ha":907,"x_min":-128,"x_max":1047,"o":"m 83 199 q 39 102 40 139 q 69 48 38 65 q 156 28 101 31 l 149 0 q 48 3 90 3 q -32 4 6 4 q -85 3 -64 4 q -128 0 -106 3 l -122 28 q -76 50 -97 35 q -27 96 -54 65 q 35 175 0 126 l 614 990 q 651 989 632 989 q 685 990 669 989 l 740 117 q 766 48 744 67 q 808 28 788 29 l 803 0 q 710 3 768 3 q 601 4 653 4 q 483 3 539 4 q 393 0 428 3 l 399 28 q 494 52 465 31 q 518 144 522 74 l 485 783 l 532 833 l 83 199 m 213 400 l 618 400 l 607 372 l 188 372 l 213 400 m 739 1219 q 878 1264 799 1242 q 1040 1301 957 1286 l 1047 1282 q 831 1188 931 1247 q 671 1067 731 1129 l 646 1067 q 574 1192 617 1140 q 453 1282 531 1244 l 458 1301 q 574 1277 525 1290 q 662 1249 622 1264 q 739 1219 701 1235 z "},"Â":{"ha":907,"x_min":-128,"x_max":943,"o":"m 83 199 q 39 102 40 139 q 69 48 38 65 q 156 28 101 31 l 149 0 q 48 3 90 3 q -32 4 6 4 q -85 3 -64 4 q -128 0 -106 3 l -122 28 q -76 50 -97 35 q -27 96 -54 65 q 35 175 0 126 l 614 990 q 651 989 632 989 q 685 990 669 989 l 740 117 q 766 48 744 67 q 808 28 788 29 l 803 0 q 710 3 768 3 q 601 4 653 4 q 483 3 539 4 q 393 0 428 3 l 399 28 q 494 52 465 31 q 518 144 522 74 l 485 783 l 532 833 l 83 199 m 213 400 l 618 400 l 607 372 l 188 372 l 213 400 m 658 1153 q 519 1108 599 1131 q 356 1071 439 1086 l 349 1090 q 565 1185 465 1126 q 725 1306 665 1243 l 750 1306 q 824 1181 781 1233 q 943 1090 867 1128 l 938 1071 q 822 1095 871 1082 q 735 1123 774 1108 q 658 1153 696 1138 z "},"Ấ":{"ha":907,"x_min":-128,"x_max":1108,"o":"m 83 199 q 39 102 40 139 q 69 48 38 65 q 156 28 101 31 l 149 0 q 48 3 90 3 q -32 4 6 4 q -85 3 -64 4 q -128 0 -106 3 l -122 28 q -76 50 -97 35 q -27 96 -54 65 q 35 175 0 126 l 614 990 q 651 989 632 989 q 685 990 669 989 l 740 117 q 766 48 744 67 q 808 28 788 29 l 803 0 q 710 3 768 3 q 601 4 653 4 q 483 3 539 4 q 393 0 428 3 l 399 28 q 494 52 465 31 q 518 144 522 74 l 485 783 l 532 833 l 83 199 m 213 400 l 618 400 l 607 372 l 188 372 l 213 400 m 658 1153 q 519 1108 599 1131 q 356 1071 439 1086 l 349 1090 q 565 1185 465 1126 q 725 1306 665 1243 l 750 1306 q 824 1181 781 1233 q 943 1090 867 1128 l 938 1071 q 822 1095 871 1082 q 735 1123 774 1108 q 658 1153 696 1138 m 701 1378 q 815 1475 771 1432 q 894 1549 860 1518 q 965 1601 928 1581 q 1010 1616 985 1613 q 1058 1612 1035 1619 q 1092 1579 1081 1604 q 1090 1519 1108 1547 q 1036 1472 1071 1490 q 956 1440 1001 1453 q 851 1410 911 1426 q 711 1361 792 1393 l 701 1378 z "},"Ậ":{"ha":907,"x_min":-128,"x_max":943,"o":"m 83 199 q 39 102 40 139 q 69 48 38 65 q 156 28 101 31 l 149 0 q 48 3 90 3 q -32 4 6 4 q -85 3 -64 4 q -128 0 -106 3 l -122 28 q -76 50 -97 35 q -27 96 -54 65 q 35 175 0 126 l 614 990 q 651 989 632 989 q 685 990 669 989 l 740 117 q 766 48 744 67 q 808 28 788 29 l 803 0 q 710 3 768 3 q 601 4 653 4 q 483 3 539 4 q 393 0 428 3 l 399 28 q 494 52 465 31 q 518 144 522 74 l 485 783 l 532 833 l 83 199 m 213 400 l 618 400 l 607 372 l 188 372 l 213 400 m 658 1153 q 519 1108 599 1131 q 356 1071 439 1086 l 349 1090 q 565 1185 465 1126 q 725 1306 665 1243 l 750 1306 q 824 1181 781 1233 q 943 1090 867 1128 l 938 1071 q 822 1095 871 1082 q 735 1123 774 1108 q 658 1153 696 1138 m 289 -260 q 222 -241 246 -260 q 199 -187 199 -222 q 232 -106 199 -136 q 321 -76 265 -76 q 388 -95 364 -76 q 411 -149 411 -114 q 376 -231 411 -201 q 289 -260 342 -260 z "},"Ầ":{"ha":907,"x_min":-128,"x_max":943,"o":"m 83 199 q 39 102 40 139 q 69 48 38 65 q 156 28 101 31 l 149 0 q 48 3 90 3 q -32 4 6 4 q -85 3 -64 4 q -128 0 -106 3 l -122 28 q -76 50 -97 35 q -27 96 -54 65 q 35 175 0 126 l 614 990 q 651 989 632 989 q 685 990 669 989 l 740 117 q 766 48 744 67 q 808 28 788 29 l 803 0 q 710 3 768 3 q 601 4 653 4 q 483 3 539 4 q 393 0 428 3 l 399 28 q 494 52 465 31 q 518 144 522 74 l 485 783 l 532 833 l 83 199 m 213 400 l 618 400 l 607 372 l 188 372 l 213 400 m 658 1153 q 519 1108 599 1131 q 356 1071 439 1086 l 349 1090 q 565 1185 465 1126 q 725 1306 665 1243 l 750 1306 q 824 1181 781 1233 q 943 1090 867 1128 l 938 1071 q 822 1095 871 1082 q 735 1123 774 1108 q 658 1153 696 1138 m 789 1360 q 669 1410 718 1393 q 587 1438 621 1426 q 524 1468 553 1450 q 485 1515 497 1486 q 490 1574 474 1544 q 544 1606 508 1604 q 606 1592 579 1608 q 656 1545 635 1575 q 710 1474 678 1515 q 800 1375 743 1432 l 789 1360 z "},"Ẩ":{"ha":907,"x_min":-128,"x_max":1200,"o":"m 83 199 q 39 102 40 139 q 69 48 38 65 q 156 28 101 31 l 149 0 q 48 3 90 3 q -32 4 6 4 q -85 3 -64 4 q -128 0 -106 3 l -122 28 q -76 50 -97 35 q -27 96 -54 65 q 35 175 0 126 l 614 990 q 651 989 632 989 q 685 990 669 989 l 740 117 q 766 48 744 67 q 808 28 788 29 l 803 0 q 710 3 768 3 q 601 4 653 4 q 483 3 539 4 q 393 0 428 3 l 399 28 q 494 52 465 31 q 518 144 522 74 l 485 783 l 532 833 l 83 199 m 213 400 l 618 400 l 607 372 l 188 372 l 213 400 m 658 1153 q 519 1108 599 1131 q 356 1071 439 1086 l 349 1090 q 565 1185 465 1126 q 725 1306 665 1243 l 750 1306 q 824 1181 781 1233 q 943 1090 867 1128 l 938 1071 q 822 1095 871 1082 q 735 1123 774 1108 q 658 1153 696 1138 m 954 1260 q 978 1328 960 1303 q 1019 1372 997 1354 q 1056 1413 1040 1390 q 1072 1475 1072 1436 q 1050 1538 1072 1519 q 989 1557 1028 1557 q 953 1553 969 1557 q 926 1542 936 1549 q 962 1515 949 1532 q 975 1472 975 1499 q 951 1417 975 1439 q 890 1396 926 1396 q 840 1413 860 1396 q 821 1460 821 1431 q 844 1517 821 1493 q 901 1556 868 1540 q 961 1576 926 1568 q 1039 1583 996 1583 q 1155 1560 1108 1583 q 1201 1482 1201 1536 q 1181 1424 1201 1444 q 1130 1388 1161 1403 q 1067 1359 1099 1374 q 1011 1322 1035 1344 q 982 1260 988 1300 l 954 1260 z "},"Ẫ":{"ha":907,"x_min":-128,"x_max":1076,"o":"m 83 199 q 39 102 40 139 q 69 48 38 65 q 156 28 101 31 l 149 0 q 48 3 90 3 q -32 4 6 4 q -85 3 -64 4 q -128 0 -106 3 l -122 28 q -76 50 -97 35 q -27 96 -54 65 q 35 175 0 126 l 614 990 q 651 989 632 989 q 685 990 669 989 l 740 117 q 766 48 744 67 q 808 28 788 29 l 803 0 q 710 3 768 3 q 601 4 653 4 q 483 3 539 4 q 393 0 428 3 l 399 28 q 494 52 465 31 q 518 144 522 74 l 485 783 l 532 833 l 83 199 m 213 400 l 618 400 l 607 372 l 188 372 l 213 400 m 658 1153 q 519 1108 599 1131 q 356 1071 439 1086 l 349 1090 q 565 1185 465 1126 q 725 1306 665 1243 l 750 1306 q 824 1181 781 1233 q 943 1090 867 1128 l 938 1071 q 822 1095 871 1082 q 735 1123 774 1108 q 658 1153 696 1138 m 681 1576 q 766 1561 732 1576 q 826 1526 800 1546 q 878 1490 851 1506 q 944 1475 906 1475 q 1000 1494 974 1475 q 1051 1556 1026 1513 l 1076 1549 q 973 1401 1036 1446 q 846 1356 910 1356 q 760 1371 794 1356 q 701 1406 726 1386 q 648 1442 675 1426 q 582 1457 621 1457 q 527 1439 553 1457 q 475 1376 501 1421 l 450 1383 q 553 1531 489 1486 q 681 1576 617 1576 z "},"Ä":{"ha":907,"x_min":-128,"x_max":947,"o":"m 83 199 q 39 102 40 139 q 69 48 38 65 q 156 28 101 31 l 149 0 q 48 3 90 3 q -32 4 6 4 q -85 3 -64 4 q -128 0 -106 3 l -122 28 q -76 50 -97 35 q -27 96 -54 65 q 35 175 0 126 l 614 990 q 651 989 632 989 q 685 990 669 989 l 740 117 q 766 48 744 67 q 808 28 788 29 l 803 0 q 710 3 768 3 q 601 4 653 4 q 483 3 539 4 q 393 0 428 3 l 399 28 q 494 52 465 31 q 518 144 522 74 l 485 783 l 532 833 l 83 199 m 213 400 l 618 400 l 607 372 l 188 372 l 213 400 m 406 1156 q 442 1242 406 1211 q 525 1274 479 1274 q 593 1247 571 1274 q 615 1181 615 1221 q 598 1117 615 1143 q 553 1077 581 1090 q 494 1064 526 1064 q 428 1090 450 1064 q 406 1156 406 1115 m 739 1156 q 775 1242 739 1211 q 858 1274 811 1274 q 926 1247 903 1274 q 949 1181 949 1221 q 931 1117 949 1143 q 886 1077 914 1090 q 828 1064 858 1064 q 760 1090 782 1064 q 739 1156 739 1115 z "},"Ạ":{"ha":907,"x_min":-128,"x_max":808,"o":"m 83 199 q 39 102 40 139 q 69 48 38 65 q 156 28 101 31 l 149 0 q 48 3 90 3 q -32 4 6 4 q -85 3 -64 4 q -128 0 -106 3 l -122 28 q -76 50 -97 35 q -27 96 -54 65 q 35 175 0 126 l 614 990 q 651 989 632 989 q 685 990 669 989 l 740 117 q 766 48 744 67 q 808 28 788 29 l 803 0 q 710 3 768 3 q 601 4 653 4 q 483 3 539 4 q 393 0 428 3 l 399 28 q 494 52 465 31 q 518 144 522 74 l 485 783 l 532 833 l 83 199 m 213 400 l 618 400 l 607 372 l 188 372 l 213 400 m 289 -260 q 222 -241 246 -260 q 199 -187 199 -222 q 232 -106 199 -136 q 321 -76 265 -76 q 388 -95 364 -76 q 411 -149 411 -114 q 376 -231 411 -201 q 289 -260 342 -260 z "},"À":{"ha":907,"x_min":-128,"x_max":808,"o":"m 83 199 q 39 102 40 139 q 69 48 38 65 q 156 28 101 31 l 149 0 q 48 3 90 3 q -32 4 6 4 q -85 3 -64 4 q -128 0 -106 3 l -122 28 q -76 50 -97 35 q -27 96 -54 65 q 35 175 0 126 l 614 990 q 651 989 632 989 q 685 990 669 989 l 740 117 q 766 48 744 67 q 808 28 788 29 l 803 0 q 710 3 768 3 q 601 4 653 4 q 483 3 539 4 q 393 0 428 3 l 399 28 q 494 52 465 31 q 518 144 522 74 l 485 783 l 532 833 l 83 199 m 213 400 l 618 400 l 607 372 l 188 372 l 213 400 m 715 1071 q 596 1121 644 1104 q 513 1149 547 1138 q 450 1179 479 1161 q 412 1226 424 1197 q 417 1285 400 1256 q 470 1317 435 1315 q 532 1303 506 1319 q 583 1256 561 1286 q 637 1185 604 1226 q 726 1086 669 1143 l 715 1071 z "},"Ả":{"ha":907,"x_min":-128,"x_max":888,"o":"m 83 199 q 39 102 40 139 q 69 48 38 65 q 156 28 101 31 l 149 0 q 48 3 90 3 q -32 4 6 4 q -85 3 -64 4 q -128 0 -106 3 l -122 28 q -76 50 -97 35 q -27 96 -54 65 q 35 175 0 126 l 614 990 q 651 989 632 989 q 685 990 669 989 l 740 117 q 766 48 744 67 q 808 28 788 29 l 803 0 q 710 3 768 3 q 601 4 653 4 q 483 3 539 4 q 393 0 428 3 l 399 28 q 494 52 465 31 q 518 144 522 74 l 485 783 l 532 833 l 83 199 m 213 400 l 618 400 l 607 372 l 188 372 l 213 400 m 640 1032 q 665 1101 646 1075 q 705 1144 683 1126 q 742 1185 726 1163 q 758 1247 758 1208 q 736 1310 758 1292 q 675 1329 714 1329 q 639 1325 656 1329 q 613 1314 622 1321 q 648 1288 635 1304 q 661 1244 661 1271 q 637 1190 661 1211 q 576 1168 613 1168 q 526 1185 546 1168 q 507 1232 507 1203 q 531 1289 507 1265 q 588 1328 554 1313 q 647 1348 613 1340 q 725 1356 682 1356 q 841 1332 794 1356 q 888 1254 888 1308 q 867 1196 888 1217 q 816 1160 847 1175 q 753 1131 785 1146 q 697 1094 721 1117 q 668 1032 674 1072 l 640 1032 z "},"Ā":{"ha":907,"x_min":-128,"x_max":936,"o":"m 83 199 q 39 102 40 139 q 69 48 38 65 q 156 28 101 31 l 149 0 q 48 3 90 3 q -32 4 6 4 q -85 3 -64 4 q -128 0 -106 3 l -122 28 q -76 50 -97 35 q -27 96 -54 65 q 35 175 0 126 l 614 990 q 651 989 632 989 q 685 990 669 989 l 740 117 q 766 48 744 67 q 808 28 788 29 l 803 0 q 710 3 768 3 q 601 4 653 4 q 483 3 539 4 q 393 0 428 3 l 399 28 q 494 52 465 31 q 518 144 522 74 l 485 783 l 532 833 l 83 199 m 213 400 l 618 400 l 607 372 l 188 372 l 213 400 m 936 1172 l 928 1138 l 372 1138 l 381 1172 l 936 1172 z "},"Ą":{"ha":907,"x_min":-128,"x_max":808,"o":"m 83 199 q 39 102 40 139 q 69 48 38 65 q 156 28 101 31 l 149 0 q 48 3 90 3 q -32 4 6 4 q -85 3 -64 4 q -128 0 -106 3 l -122 28 q -76 50 -97 35 q -27 96 -54 65 q 35 175 0 126 l 614 990 q 651 989 632 989 q 685 990 669 989 l 740 117 q 766 48 744 67 q 808 28 788 29 l 803 0 q 710 3 768 3 q 601 4 653 4 q 483 3 539 4 q 393 0 428 3 l 399 28 q 494 52 465 31 q 518 144 522 74 l 485 783 l 532 833 l 83 199 m 213 400 l 618 400 l 607 372 l 188 372 l 213 400 m 761 4 q 688 -35 721 -11 q 635 -89 654 -60 q 615 -150 615 -118 q 661 -192 615 -192 q 711 -183 683 -192 q 763 -161 739 -175 l 778 -185 q 678 -243 728 -225 q 576 -261 628 -261 q 490 -239 521 -261 q 458 -178 458 -217 q 499 -98 458 -133 q 600 -37 539 -62 q 725 4 661 -11 l 761 4 z "},"Å":{"ha":907,"x_min":-128,"x_max":826,"o":"m 83 199 q 39 102 40 139 q 69 48 38 65 q 156 28 101 31 l 149 0 q 48 3 90 3 q -32 4 6 4 q -85 3 -64 4 q -128 0 -106 3 l -122 28 q -76 50 -97 35 q -27 96 -54 65 q 35 175 0 126 l 614 990 q 651 989 632 989 q 685 990 669 989 l 740 117 q 766 48 744 67 q 808 28 788 29 l 803 0 q 710 3 768 3 q 601 4 653 4 q 483 3 539 4 q 393 0 428 3 l 399 28 q 494 52 465 31 q 518 144 522 74 l 485 783 l 532 833 l 83 199 m 213 400 l 618 400 l 607 372 l 188 372 l 213 400 m 690 1301 q 788 1269 749 1301 q 826 1183 826 1238 q 803 1107 826 1142 q 740 1051 779 1072 q 654 1031 700 1031 q 560 1063 599 1031 q 522 1150 522 1094 q 545 1227 522 1193 q 606 1281 568 1261 q 690 1301 644 1301 m 660 1060 q 724 1076 693 1060 q 772 1119 754 1092 q 790 1182 790 1147 q 756 1250 790 1228 q 686 1272 722 1272 q 597 1235 635 1272 q 560 1150 560 1199 q 591 1083 560 1106 q 660 1060 622 1060 z "},"Ã":{"ha":907,"x_min":-128,"x_max":1003,"o":"m 83 199 q 39 102 40 139 q 69 48 38 65 q 156 28 101 31 l 149 0 q 48 3 90 3 q -32 4 6 4 q -85 3 -64 4 q -128 0 -106 3 l -122 28 q -76 50 -97 35 q -27 96 -54 65 q 35 175 0 126 l 614 990 q 651 989 632 989 q 685 990 669 989 l 740 117 q 766 48 744 67 q 808 28 788 29 l 803 0 q 710 3 768 3 q 601 4 653 4 q 483 3 539 4 q 393 0 428 3 l 399 28 q 494 52 465 31 q 518 144 522 74 l 485 783 l 532 833 l 83 199 m 213 400 l 618 400 l 607 372 l 188 372 l 213 400 m 608 1288 q 694 1272 660 1288 q 753 1237 728 1257 q 806 1201 779 1217 q 872 1186 833 1186 q 928 1205 901 1186 q 979 1267 954 1224 l 1004 1260 q 901 1112 964 1157 q 774 1067 838 1067 q 688 1082 722 1067 q 628 1117 654 1097 q 576 1153 603 1138 q 510 1168 549 1168 q 455 1150 481 1168 q 403 1088 429 1132 l 378 1094 q 481 1242 417 1197 q 608 1288 544 1288 z "},"Æ":{"ha":1257,"x_min":-119,"x_max":1322,"o":"m 849 1074 l 47 131 q 11 78 21 100 q 19 44 1 57 q 93 28 38 32 l 93 0 q 42 3 75 3 q -26 4 8 4 q -77 3 -51 4 q -119 0 -103 3 l -119 28 q 0 117 -76 31 l 813 1074 l 849 1074 m 325 481 l 351 508 l 1001 508 l 996 481 l 325 481 m 903 508 q 970 531 944 508 q 1013 588 996 553 q 1046 664 1031 624 l 1076 664 q 1049 574 1058 610 q 1029 494 1040 539 q 1013 429 1021 464 q 993 325 1006 394 l 963 325 q 967 375 963 349 q 969 424 971 401 q 952 463 968 447 q 897 481 936 478 l 903 508 m 699 147 q 688 72 686 97 q 710 40 689 47 q 778 32 732 32 l 879 32 q 990 56 946 32 q 1065 133 1033 79 q 1128 278 1097 186 l 1158 278 q 1144 233 1151 260 q 1129 178 1136 207 q 1111 102 1122 151 q 1093 0 1100 53 q 935 3 1022 3 q 779 4 849 4 q 692 4 744 4 q 576 3 639 4 q 450 2 514 3 q 329 0 386 1 l 335 28 q 408 39 382 31 q 450 72 435 47 q 478 147 465 97 l 661 836 q 672 912 675 888 q 648 945 669 936 q 579 956 626 954 l 586 983 q 706 981 642 982 q 832 980 769 981 q 947 979 894 979 q 1035 979 1000 979 q 1178 980 1099 979 q 1322 983 1257 981 q 1290 889 1304 935 q 1269 819 1276 843 q 1258 772 1263 794 q 1251 733 1254 749 l 1221 733 q 1217 904 1243 857 q 1108 951 1192 951 l 1021 951 q 949 944 975 951 q 910 912 924 936 q 882 836 896 888 l 699 147 z "},"B":{"ha":943,"x_min":-58,"x_max":918,"o":"m 613 982 q 846 932 774 982 q 918 799 918 882 q 872 666 918 726 q 741 567 825 606 q 544 517 657 528 q 779 449 701 510 q 857 300 857 389 q 823 172 857 228 q 727 77 789 115 q 582 19 665 39 q 400 0 499 0 q 301 2 357 0 q 157 4 244 4 q 82 3 122 4 q 4 2 42 3 q -58 0 -33 1 l -53 28 q 21 39 -6 31 q 63 72 47 47 q 90 147 78 97 l 274 836 q 285 905 285 879 q 266 942 286 931 q 192 956 246 954 l 199 983 q 260 981 224 982 q 337 980 297 981 q 410 979 376 979 q 519 981 474 979 q 613 982 565 982 m 354 499 l 360 522 l 458 522 q 591 565 538 522 q 672 677 644 608 q 700 821 700 746 q 677 919 700 882 q 593 956 654 956 q 533 936 551 956 q 499 857 514 917 l 311 147 q 300 90 303 117 q 311 48 297 64 q 367 32 325 32 q 508 72 451 32 q 595 179 565 113 q 625 325 625 246 q 610 414 625 375 q 559 476 594 453 q 465 499 524 499 l 354 499 z "},"C":{"ha":963,"x_min":60,"x_max":1036,"o":"m 1036 983 q 993 852 1015 929 q 947 664 971 775 l 917 664 q 927 788 928 735 q 904 879 926 840 q 836 949 878 928 q 740 969 794 969 q 607 932 671 969 q 489 828 543 894 q 394 677 435 763 q 330 494 353 592 q 307 297 307 397 q 358 89 307 156 q 494 22 408 22 q 603 46 546 22 q 703 114 660 69 q 767 203 740 153 q 828 333 794 253 l 858 333 q 805 130 824 207 q 776 0 786 53 l 746 0 q 750 47 750 29 q 739 82 750 76 q 704 71 728 88 q 626 25 667 46 q 538 -8 585 4 q 432 -19 490 -19 q 151 70 243 -19 q 60 325 60 160 q 91 519 60 422 q 181 703 122 617 q 323 858 240 790 q 507 964 406 925 q 724 1003 608 1003 q 819 990 781 1003 q 883 957 857 978 q 931 913 910 936 q 967 908 949 892 q 1007 983 985 925 l 1036 983 z "},"Ć":{"ha":963,"x_min":60,"x_max":1086,"o":"m 1036 983 q 993 852 1015 929 q 947 664 971 775 l 917 664 q 927 788 928 735 q 904 879 926 840 q 836 949 878 928 q 740 969 794 969 q 607 932 671 969 q 489 828 543 894 q 394 677 435 763 q 330 494 353 592 q 307 297 307 397 q 358 89 307 156 q 494 22 408 22 q 603 46 546 22 q 703 114 660 69 q 767 203 740 153 q 828 333 794 253 l 858 333 q 805 130 824 207 q 776 0 786 53 l 746 0 q 750 47 750 29 q 739 82 750 76 q 704 71 728 88 q 626 25 667 46 q 538 -8 585 4 q 432 -19 490 -19 q 151 70 243 -19 q 60 325 60 160 q 91 519 60 422 q 181 703 122 617 q 323 858 240 790 q 507 964 406 925 q 724 1003 608 1003 q 819 990 781 1003 q 883 957 857 978 q 931 913 910 936 q 967 908 949 892 q 1007 983 985 925 l 1036 983 m 679 1089 q 793 1186 749 1143 q 872 1260 838 1229 q 943 1313 906 1292 q 988 1327 963 1324 q 1035 1323 1013 1331 q 1069 1290 1058 1315 q 1067 1230 1086 1258 q 1014 1183 1049 1201 q 934 1151 979 1164 q 829 1121 889 1138 q 689 1072 769 1104 l 679 1089 z "},"Č":{"ha":963,"x_min":60,"x_max":1096,"o":"m 1036 983 q 993 852 1015 929 q 947 664 971 775 l 917 664 q 927 788 928 735 q 904 879 926 840 q 836 949 878 928 q 740 969 794 969 q 607 932 671 969 q 489 828 543 894 q 394 677 435 763 q 330 494 353 592 q 307 297 307 397 q 358 89 307 156 q 494 22 408 22 q 603 46 546 22 q 703 114 660 69 q 767 203 740 153 q 828 333 794 253 l 858 333 q 805 130 824 207 q 776 0 786 53 l 746 0 q 750 47 750 29 q 739 82 750 76 q 704 71 728 88 q 626 25 667 46 q 538 -8 585 4 q 432 -19 490 -19 q 151 70 243 -19 q 60 325 60 160 q 91 519 60 422 q 181 703 122 617 q 323 858 240 790 q 507 964 406 925 q 724 1003 608 1003 q 819 990 781 1003 q 883 957 857 978 q 931 913 910 936 q 967 908 949 892 q 1007 983 985 925 l 1036 983 m 788 1219 q 926 1264 847 1242 q 1089 1301 1006 1286 l 1096 1282 q 879 1188 979 1247 q 719 1067 779 1129 l 694 1067 q 622 1192 665 1140 q 501 1282 579 1244 l 507 1301 q 622 1277 574 1290 q 710 1249 671 1264 q 788 1219 750 1235 z "},"Ç":{"ha":963,"x_min":60,"x_max":1036,"o":"m 1036 983 q 993 852 1015 929 q 947 664 971 775 l 917 664 q 927 788 928 735 q 904 879 926 840 q 836 949 878 928 q 740 969 794 969 q 607 932 671 969 q 489 828 543 894 q 394 677 435 763 q 330 494 353 592 q 307 297 307 397 q 358 89 307 156 q 494 22 408 22 q 603 46 546 22 q 703 114 660 69 q 767 203 740 153 q 828 333 794 253 l 858 333 q 805 130 824 207 q 776 0 786 53 l 746 0 q 750 47 750 29 q 739 82 750 76 q 704 71 728 88 q 626 25 667 46 q 538 -8 585 4 q 432 -19 490 -19 q 151 70 243 -19 q 60 325 60 160 q 91 519 60 422 q 181 703 122 617 q 323 858 240 790 q 507 964 406 925 q 724 1003 608 1003 q 819 990 781 1003 q 883 957 857 978 q 931 913 910 936 q 967 908 949 892 q 1007 983 985 925 l 1036 983 m 461 8 l 418 -87 q 458 -78 436 -82 q 499 -74 479 -74 q 566 -90 540 -74 q 592 -140 592 -106 q 556 -210 592 -183 q 465 -249 519 -236 q 356 -261 411 -261 q 265 -252 306 -261 q 204 -233 224 -243 l 213 -212 q 256 -222 225 -215 q 325 -228 288 -228 q 376 -223 346 -228 q 428 -204 406 -218 q 450 -164 450 -190 q 406 -132 450 -132 q 383 -134 397 -132 q 357 -142 369 -136 l 424 8 l 461 8 z "},"Ĉ":{"ha":963,"x_min":60,"x_max":1036,"o":"m 1036 983 q 993 852 1015 929 q 947 664 971 775 l 917 664 q 927 788 928 735 q 904 879 926 840 q 836 949 878 928 q 740 969 794 969 q 607 932 671 969 q 489 828 543 894 q 394 677 435 763 q 330 494 353 592 q 307 297 307 397 q 358 89 307 156 q 494 22 408 22 q 603 46 546 22 q 703 114 660 69 q 767 203 740 153 q 828 333 794 253 l 858 333 q 805 130 824 207 q 776 0 786 53 l 746 0 q 750 47 750 29 q 739 82 750 76 q 704 71 728 88 q 626 25 667 46 q 538 -8 585 4 q 432 -19 490 -19 q 151 70 243 -19 q 60 325 60 160 q 91 519 60 422 q 181 703 122 617 q 323 858 240 790 q 507 964 406 925 q 724 1003 608 1003 q 819 990 781 1003 q 883 957 857 978 q 931 913 910 936 q 967 908 949 892 q 1007 983 985 925 l 1036 983 m 707 1153 q 567 1108 647 1131 q 404 1071 488 1086 l 397 1090 q 614 1185 514 1126 q 774 1306 714 1243 l 799 1306 q 872 1181 829 1233 q 992 1090 915 1128 l 986 1071 q 871 1095 919 1082 q 783 1123 822 1108 q 707 1153 744 1138 z "},"Ċ":{"ha":963,"x_min":60,"x_max":1036,"o":"m 1036 983 q 993 852 1015 929 q 947 664 971 775 l 917 664 q 927 788 928 735 q 904 879 926 840 q 836 949 878 928 q 740 969 794 969 q 607 932 671 969 q 489 828 543 894 q 394 677 435 763 q 330 494 353 592 q 307 297 307 397 q 358 89 307 156 q 494 22 408 22 q 603 46 546 22 q 703 114 660 69 q 767 203 740 153 q 828 333 794 253 l 858 333 q 805 130 824 207 q 776 0 786 53 l 746 0 q 750 47 750 29 q 739 82 750 76 q 704 71 728 88 q 626 25 667 46 q 538 -8 585 4 q 432 -19 490 -19 q 151 70 243 -19 q 60 325 60 160 q 91 519 60 422 q 181 703 122 617 q 323 858 240 790 q 507 964 406 925 q 724 1003 608 1003 q 819 990 781 1003 q 883 957 857 978 q 931 913 910 936 q 967 908 949 892 q 1007 983 985 925 l 1036 983 m 608 1147 q 649 1241 608 1206 q 750 1276 690 1276 q 826 1254 800 1276 q 853 1190 853 1232 q 811 1099 853 1136 q 708 1063 769 1063 q 635 1085 661 1063 q 608 1147 608 1108 z "},"D":{"ha":1071,"x_min":-53,"x_max":1050,"o":"m 1050 651 q 1024 468 1050 561 q 942 292 997 375 q 806 142 888 208 q 615 38 725 76 q 365 0 504 0 q 312 1 343 0 q 242 3 281 3 q 156 4 203 4 q 84 3 124 4 q 8 2 44 3 q -53 0 -29 1 l -49 28 q 22 39 -4 31 q 63 72 47 47 q 90 147 78 97 l 272 836 q 283 902 283 876 q 262 940 282 928 q 192 956 242 953 l 196 983 q 260 981 221 982 q 342 979 299 979 q 424 979 386 979 q 488 981 449 981 q 565 983 526 982 q 631 983 604 983 q 941 900 832 983 q 1050 651 1050 817 m 365 25 q 527 64 454 25 q 656 170 600 103 q 749 324 711 238 q 806 505 786 410 q 825 696 825 600 q 772 891 825 824 q 600 958 719 958 q 547 949 565 958 q 518 915 529 940 q 493 839 507 890 l 311 144 q 297 74 300 100 q 309 36 294 47 q 365 25 324 25 z "},"Ð":{"ha":1071,"x_min":-53,"x_max":1050,"o":"m 1050 651 q 1024 468 1050 561 q 942 292 997 375 q 806 142 888 208 q 615 38 725 76 q 365 0 504 0 q 312 1 343 0 q 242 3 281 3 q 156 4 203 4 q 84 3 124 4 q 8 2 44 3 q -53 0 -29 1 l -49 28 q 22 39 -4 31 q 63 72 47 47 q 90 147 78 97 l 272 836 q 283 902 283 876 q 262 940 282 928 q 192 956 242 953 l 196 983 q 260 981 221 982 q 342 979 299 979 q 424 979 386 979 q 488 981 449 981 q 565 983 526 982 q 631 983 604 983 q 941 900 832 983 q 1050 651 1050 817 m 365 25 q 527 64 454 25 q 656 170 600 103 q 749 324 711 238 q 806 505 786 410 q 825 696 825 600 q 772 891 825 824 q 600 958 719 958 q 547 949 565 958 q 518 915 529 940 q 493 839 507 890 l 311 144 q 297 74 300 100 q 309 36 294 47 q 365 25 324 25 m 625 508 l 617 474 l 28 474 l 36 508 l 625 508 z "},"Ď":{"ha":1071,"x_min":-53,"x_max":1050,"o":"m 1050 651 q 1024 468 1050 561 q 942 292 997 375 q 806 142 888 208 q 615 38 725 76 q 365 0 504 0 q 312 1 343 0 q 242 3 281 3 q 156 4 203 4 q 84 3 124 4 q 8 2 44 3 q -53 0 -29 1 l -49 28 q 22 39 -4 31 q 63 72 47 47 q 90 147 78 97 l 272 836 q 283 902 283 876 q 262 940 282 928 q 192 956 242 953 l 196 983 q 260 981 221 982 q 342 979 299 979 q 424 979 386 979 q 488 981 449 981 q 565 983 526 982 q 631 983 604 983 q 941 900 832 983 q 1050 651 1050 817 m 365 25 q 527 64 454 25 q 656 170 600 103 q 749 324 711 238 q 806 505 786 410 q 825 696 825 600 q 772 891 825 824 q 600 958 719 958 q 547 949 565 958 q 518 915 529 940 q 493 839 507 890 l 311 144 q 297 74 300 100 q 309 36 294 47 q 365 25 324 25 m 710 1219 q 849 1264 769 1242 q 1011 1301 928 1286 l 1018 1282 q 801 1188 901 1247 q 642 1067 701 1129 l 617 1067 q 544 1192 588 1140 q 424 1282 501 1244 l 429 1301 q 544 1277 496 1290 q 633 1249 593 1264 q 710 1219 672 1235 z "},"Đ":{"ha":1071,"x_min":-53,"x_max":1050,"o":"m 1050 651 q 1024 468 1050 561 q 942 292 997 375 q 806 142 888 208 q 615 38 725 76 q 365 0 504 0 q 312 1 343 0 q 242 3 281 3 q 156 4 203 4 q 84 3 124 4 q 8 2 44 3 q -53 0 -29 1 l -49 28 q 22 39 -4 31 q 63 72 47 47 q 90 147 78 97 l 272 836 q 283 902 283 876 q 262 940 282 928 q 192 956 242 953 l 196 983 q 260 981 221 982 q 342 979 299 979 q 424 979 386 979 q 488 981 449 981 q 565 983 526 982 q 631 983 604 983 q 941 900 832 983 q 1050 651 1050 817 m 365 25 q 527 64 454 25 q 656 170 600 103 q 749 324 711 238 q 806 505 786 410 q 825 696 825 600 q 772 891 825 824 q 600 958 719 958 q 547 949 565 958 q 518 915 529 940 q 493 839 507 890 l 311 144 q 297 74 300 100 q 309 36 294 47 q 365 25 324 25 m 625 508 l 617 474 l 28 474 l 36 508 l 625 508 z "},"E":{"ha":869,"x_min":-60,"x_max":932,"o":"m 313 481 l 319 508 l 594 508 l 588 481 l 313 481 m 458 508 q 528 524 497 508 q 581 564 558 539 q 621 618 604 589 q 649 675 638 647 l 681 675 q 649 573 658 611 q 629 494 639 535 q 617 446 622 469 q 605 392 611 422 q 589 314 599 363 l 558 314 q 558 371 560 342 q 544 425 556 400 q 509 465 533 450 q 443 481 485 481 l 458 508 m 831 733 q 824 863 836 815 q 776 931 811 911 q 678 951 740 951 l 635 951 q 563 944 589 951 q 523 912 538 936 q 494 836 508 888 l 311 147 q 299 72 297 97 q 323 40 301 47 q 390 32 344 32 l 442 32 q 568 56 517 32 q 660 133 619 79 q 742 278 701 186 l 774 278 q 758 233 767 260 q 743 178 750 207 q 725 102 736 151 q 707 0 714 53 q 549 3 636 3 q 392 4 461 4 q 303 4 357 4 q 188 3 250 4 q 61 2 125 3 q -60 0 -3 1 l -53 28 q 21 39 -6 31 q 62 72 47 47 q 90 147 76 97 l 274 836 q 285 912 288 888 q 260 945 282 936 q 192 956 239 954 l 199 983 q 319 981 256 982 q 446 980 383 981 q 562 979 508 979 q 650 979 615 979 q 791 980 713 979 q 932 983 869 981 q 901 896 914 935 q 879 819 889 857 q 869 772 874 794 q 861 733 864 750 l 831 733 z "},"É":{"ha":869,"x_min":-60,"x_max":981,"o":"m 313 481 l 319 508 l 594 508 l 588 481 l 313 481 m 458 508 q 528 524 497 508 q 581 564 558 539 q 621 618 604 589 q 649 675 638 647 l 681 675 q 649 573 658 611 q 629 494 639 535 q 617 446 622 469 q 605 392 611 422 q 589 314 599 363 l 558 314 q 558 371 560 342 q 544 425 556 400 q 509 465 533 450 q 443 481 485 481 l 458 508 m 831 733 q 824 863 836 815 q 776 931 811 911 q 678 951 740 951 l 635 951 q 563 944 589 951 q 523 912 538 936 q 494 836 508 888 l 311 147 q 299 72 297 97 q 323 40 301 47 q 390 32 344 32 l 442 32 q 568 56 517 32 q 660 133 619 79 q 742 278 701 186 l 774 278 q 758 233 767 260 q 743 178 750 207 q 725 102 736 151 q 707 0 714 53 q 549 3 636 3 q 392 4 461 4 q 303 4 357 4 q 188 3 250 4 q 61 2 125 3 q -60 0 -3 1 l -53 28 q 21 39 -6 31 q 62 72 47 47 q 90 147 76 97 l 274 836 q 285 912 288 888 q 260 945 282 936 q 192 956 239 954 l 199 983 q 319 981 256 982 q 446 980 383 981 q 562 979 508 979 q 650 979 615 979 q 791 980 713 979 q 932 983 869 981 q 901 896 914 935 q 879 819 889 857 q 869 772 874 794 q 861 733 864 750 l 831 733 m 574 1089 q 688 1186 643 1143 q 766 1260 732 1229 q 838 1313 800 1292 q 882 1327 857 1324 q 930 1323 907 1331 q 964 1290 953 1315 q 962 1230 981 1258 q 908 1183 943 1201 q 828 1151 874 1164 q 724 1121 783 1138 q 583 1072 664 1104 l 574 1089 z "},"Ĕ":{"ha":869,"x_min":-60,"x_max":956,"o":"m 313 481 l 319 508 l 594 508 l 588 481 l 313 481 m 458 508 q 528 524 497 508 q 581 564 558 539 q 621 618 604 589 q 649 675 638 647 l 681 675 q 649 573 658 611 q 629 494 639 535 q 617 446 622 469 q 605 392 611 422 q 589 314 599 363 l 558 314 q 558 371 560 342 q 544 425 556 400 q 509 465 533 450 q 443 481 485 481 l 458 508 m 831 733 q 824 863 836 815 q 776 931 811 911 q 678 951 740 951 l 635 951 q 563 944 589 951 q 523 912 538 936 q 494 836 508 888 l 311 147 q 299 72 297 97 q 323 40 301 47 q 390 32 344 32 l 442 32 q 568 56 517 32 q 660 133 619 79 q 742 278 701 186 l 774 278 q 758 233 767 260 q 743 178 750 207 q 725 102 736 151 q 707 0 714 53 q 549 3 636 3 q 392 4 461 4 q 303 4 357 4 q 188 3 250 4 q 61 2 125 3 q -60 0 -3 1 l -53 28 q 21 39 -6 31 q 62 72 47 47 q 90 147 76 97 l 274 836 q 285 912 288 888 q 260 945 282 936 q 192 956 239 954 l 199 983 q 319 981 256 982 q 446 980 383 981 q 562 979 508 979 q 650 979 615 979 q 791 980 713 979 q 932 983 869 981 q 901 896 914 935 q 879 819 889 857 q 869 772 874 794 q 861 733 864 750 l 831 733 m 624 1207 q 793 1227 713 1207 q 940 1286 874 1247 l 956 1272 q 861 1176 919 1222 q 734 1100 803 1129 q 596 1071 665 1071 q 486 1097 532 1071 q 413 1169 440 1124 q 376 1271 386 1215 l 397 1281 q 490 1224 438 1242 q 624 1207 542 1207 z "},"Ě":{"ha":869,"x_min":-60,"x_max":990,"o":"m 313 481 l 319 508 l 594 508 l 588 481 l 313 481 m 458 508 q 528 524 497 508 q 581 564 558 539 q 621 618 604 589 q 649 675 638 647 l 681 675 q 649 573 658 611 q 629 494 639 535 q 617 446 622 469 q 605 392 611 422 q 589 314 599 363 l 558 314 q 558 371 560 342 q 544 425 556 400 q 509 465 533 450 q 443 481 485 481 l 458 508 m 831 733 q 824 863 836 815 q 776 931 811 911 q 678 951 740 951 l 635 951 q 563 944 589 951 q 523 912 538 936 q 494 836 508 888 l 311 147 q 299 72 297 97 q 323 40 301 47 q 390 32 344 32 l 442 32 q 568 56 517 32 q 660 133 619 79 q 742 278 701 186 l 774 278 q 758 233 767 260 q 743 178 750 207 q 725 102 736 151 q 707 0 714 53 q 549 3 636 3 q 392 4 461 4 q 303 4 357 4 q 188 3 250 4 q 61 2 125 3 q -60 0 -3 1 l -53 28 q 21 39 -6 31 q 62 72 47 47 q 90 147 76 97 l 274 836 q 285 912 288 888 q 260 945 282 936 q 192 956 239 954 l 199 983 q 319 981 256 982 q 446 980 383 981 q 562 979 508 979 q 650 979 615 979 q 791 980 713 979 q 932 983 869 981 q 901 896 914 935 q 879 819 889 857 q 869 772 874 794 q 861 733 864 750 l 831 733 m 682 1219 q 821 1264 742 1242 q 983 1301 900 1286 l 990 1282 q 774 1188 874 1247 q 614 1067 674 1129 l 589 1067 q 517 1192 560 1140 q 396 1282 474 1244 l 401 1301 q 517 1277 468 1290 q 605 1249 565 1264 q 682 1219 644 1235 z "},"Ê":{"ha":869,"x_min":-60,"x_max":932,"o":"m 313 481 l 319 508 l 594 508 l 588 481 l 313 481 m 458 508 q 528 524 497 508 q 581 564 558 539 q 621 618 604 589 q 649 675 638 647 l 681 675 q 649 573 658 611 q 629 494 639 535 q 617 446 622 469 q 605 392 611 422 q 589 314 599 363 l 558 314 q 558 371 560 342 q 544 425 556 400 q 509 465 533 450 q 443 481 485 481 l 458 508 m 831 733 q 824 863 836 815 q 776 931 811 911 q 678 951 740 951 l 635 951 q 563 944 589 951 q 523 912 538 936 q 494 836 508 888 l 311 147 q 299 72 297 97 q 323 40 301 47 q 390 32 344 32 l 442 32 q 568 56 517 32 q 660 133 619 79 q 742 278 701 186 l 774 278 q 758 233 767 260 q 743 178 750 207 q 725 102 736 151 q 707 0 714 53 q 549 3 636 3 q 392 4 461 4 q 303 4 357 4 q 188 3 250 4 q 61 2 125 3 q -60 0 -3 1 l -53 28 q 21 39 -6 31 q 62 72 47 47 q 90 147 76 97 l 274 836 q 285 912 288 888 q 260 945 282 936 q 192 956 239 954 l 199 983 q 319 981 256 982 q 446 980 383 981 q 562 979 508 979 q 650 979 615 979 q 791 980 713 979 q 932 983 869 981 q 901 896 914 935 q 879 819 889 857 q 869 772 874 794 q 861 733 864 750 l 831 733 m 603 1153 q 463 1108 543 1131 q 300 1071 383 1086 l 293 1090 q 510 1185 410 1126 q 669 1306 610 1243 l 694 1306 q 768 1181 725 1233 q 888 1090 811 1128 l 882 1071 q 767 1095 815 1082 q 679 1123 718 1108 q 603 1153 640 1138 z "},"Ế":{"ha":869,"x_min":-60,"x_max":1053,"o":"m 313 481 l 319 508 l 594 508 l 588 481 l 313 481 m 458 508 q 528 524 497 508 q 581 564 558 539 q 621 618 604 589 q 649 675 638 647 l 681 675 q 649 573 658 611 q 629 494 639 535 q 617 446 622 469 q 605 392 611 422 q 589 314 599 363 l 558 314 q 558 371 560 342 q 544 425 556 400 q 509 465 533 450 q 443 481 485 481 l 458 508 m 831 733 q 824 863 836 815 q 776 931 811 911 q 678 951 740 951 l 635 951 q 563 944 589 951 q 523 912 538 936 q 494 836 508 888 l 311 147 q 299 72 297 97 q 323 40 301 47 q 390 32 344 32 l 442 32 q 568 56 517 32 q 660 133 619 79 q 742 278 701 186 l 774 278 q 758 233 767 260 q 743 178 750 207 q 725 102 736 151 q 707 0 714 53 q 549 3 636 3 q 392 4 461 4 q 303 4 357 4 q 188 3 250 4 q 61 2 125 3 q -60 0 -3 1 l -53 28 q 21 39 -6 31 q 62 72 47 47 q 90 147 76 97 l 274 836 q 285 912 288 888 q 260 945 282 936 q 192 956 239 954 l 199 983 q 319 981 256 982 q 446 980 383 981 q 562 979 508 979 q 650 979 615 979 q 791 980 713 979 q 932 983 869 981 q 901 896 914 935 q 879 819 889 857 q 869 772 874 794 q 861 733 864 750 l 831 733 m 603 1153 q 463 1108 543 1131 q 300 1071 383 1086 l 293 1090 q 510 1185 410 1126 q 669 1306 610 1243 l 694 1306 q 768 1181 725 1233 q 888 1090 811 1128 l 882 1071 q 767 1095 815 1082 q 679 1123 718 1108 q 603 1153 640 1138 m 646 1378 q 760 1475 715 1432 q 838 1549 804 1518 q 910 1601 872 1581 q 954 1616 929 1613 q 1002 1612 979 1619 q 1036 1579 1025 1604 q 1034 1519 1053 1547 q 981 1472 1015 1490 q 901 1440 946 1453 q 796 1410 856 1426 q 656 1361 736 1393 l 646 1378 z "},"Ệ":{"ha":869,"x_min":-60,"x_max":932,"o":"m 313 481 l 319 508 l 594 508 l 588 481 l 313 481 m 458 508 q 528 524 497 508 q 581 564 558 539 q 621 618 604 589 q 649 675 638 647 l 681 675 q 649 573 658 611 q 629 494 639 535 q 617 446 622 469 q 605 392 611 422 q 589 314 599 363 l 558 314 q 558 371 560 342 q 544 425 556 400 q 509 465 533 450 q 443 481 485 481 l 458 508 m 831 733 q 824 863 836 815 q 776 931 811 911 q 678 951 740 951 l 635 951 q 563 944 589 951 q 523 912 538 936 q 494 836 508 888 l 311 147 q 299 72 297 97 q 323 40 301 47 q 390 32 344 32 l 442 32 q 568 56 517 32 q 660 133 619 79 q 742 278 701 186 l 774 278 q 758 233 767 260 q 743 178 750 207 q 725 102 736 151 q 707 0 714 53 q 549 3 636 3 q 392 4 461 4 q 303 4 357 4 q 188 3 250 4 q 61 2 125 3 q -60 0 -3 1 l -53 28 q 21 39 -6 31 q 62 72 47 47 q 90 147 76 97 l 274 836 q 285 912 288 888 q 260 945 282 936 q 192 956 239 954 l 199 983 q 319 981 256 982 q 446 980 383 981 q 562 979 508 979 q 650 979 615 979 q 791 980 713 979 q 932 983 869 981 q 901 896 914 935 q 879 819 889 857 q 869 772 874 794 q 861 733 864 750 l 831 733 m 338 -260 q 271 -241 294 -260 q 247 -187 247 -222 q 281 -106 247 -136 q 369 -76 314 -76 q 436 -95 413 -76 q 460 -149 460 -114 q 425 -231 460 -201 q 338 -260 390 -260 m 603 1153 q 463 1108 543 1131 q 300 1071 383 1086 l 293 1090 q 510 1185 410 1126 q 669 1306 610 1243 l 694 1306 q 768 1181 725 1233 q 888 1090 811 1128 l 882 1071 q 767 1095 815 1082 q 679 1123 718 1108 q 603 1153 640 1138 z "},"Ề":{"ha":869,"x_min":-60,"x_max":932,"o":"m 313 481 l 319 508 l 594 508 l 588 481 l 313 481 m 458 508 q 528 524 497 508 q 581 564 558 539 q 621 618 604 589 q 649 675 638 647 l 681 675 q 649 573 658 611 q 629 494 639 535 q 617 446 622 469 q 605 392 611 422 q 589 314 599 363 l 558 314 q 558 371 560 342 q 544 425 556 400 q 509 465 533 450 q 443 481 485 481 l 458 508 m 831 733 q 824 863 836 815 q 776 931 811 911 q 678 951 740 951 l 635 951 q 563 944 589 951 q 523 912 538 936 q 494 836 508 888 l 311 147 q 299 72 297 97 q 323 40 301 47 q 390 32 344 32 l 442 32 q 568 56 517 32 q 660 133 619 79 q 742 278 701 186 l 774 278 q 758 233 767 260 q 743 178 750 207 q 725 102 736 151 q 707 0 714 53 q 549 3 636 3 q 392 4 461 4 q 303 4 357 4 q 188 3 250 4 q 61 2 125 3 q -60 0 -3 1 l -53 28 q 21 39 -6 31 q 62 72 47 47 q 90 147 76 97 l 274 836 q 285 912 288 888 q 260 945 282 936 q 192 956 239 954 l 199 983 q 319 981 256 982 q 446 980 383 981 q 562 979 508 979 q 650 979 615 979 q 791 980 713 979 q 932 983 869 981 q 901 896 914 935 q 879 819 889 857 q 869 772 874 794 q 861 733 864 750 l 831 733 m 603 1153 q 463 1108 543 1131 q 300 1071 383 1086 l 293 1090 q 510 1185 410 1126 q 669 1306 610 1243 l 694 1306 q 768 1181 725 1233 q 888 1090 811 1128 l 882 1071 q 767 1095 815 1082 q 679 1123 718 1108 q 603 1153 640 1138 m 732 1360 q 613 1410 661 1393 q 530 1438 564 1426 q 467 1468 496 1450 q 428 1515 440 1486 q 433 1574 417 1544 q 487 1606 451 1604 q 549 1592 522 1608 q 599 1545 578 1575 q 653 1474 621 1515 q 743 1375 686 1432 l 732 1360 z "},"Ể":{"ha":869,"x_min":-60,"x_max":1144,"o":"m 313 481 l 319 508 l 594 508 l 588 481 l 313 481 m 458 508 q 528 524 497 508 q 581 564 558 539 q 621 618 604 589 q 649 675 638 647 l 681 675 q 649 573 658 611 q 629 494 639 535 q 617 446 622 469 q 605 392 611 422 q 589 314 599 363 l 558 314 q 558 371 560 342 q 544 425 556 400 q 509 465 533 450 q 443 481 485 481 l 458 508 m 831 733 q 824 863 836 815 q 776 931 811 911 q 678 951 740 951 l 635 951 q 563 944 589 951 q 523 912 538 936 q 494 836 508 888 l 311 147 q 299 72 297 97 q 323 40 301 47 q 390 32 344 32 l 442 32 q 568 56 517 32 q 660 133 619 79 q 742 278 701 186 l 774 278 q 758 233 767 260 q 743 178 750 207 q 725 102 736 151 q 707 0 714 53 q 549 3 636 3 q 392 4 461 4 q 303 4 357 4 q 188 3 250 4 q 61 2 125 3 q -60 0 -3 1 l -53 28 q 21 39 -6 31 q 62 72 47 47 q 90 147 76 97 l 274 836 q 285 912 288 888 q 260 945 282 936 q 192 956 239 954 l 199 983 q 319 981 256 982 q 446 980 383 981 q 562 979 508 979 q 650 979 615 979 q 791 980 713 979 q 932 983 869 981 q 901 896 914 935 q 879 819 889 857 q 869 772 874 794 q 861 733 864 750 l 831 733 m 603 1153 q 463 1108 543 1131 q 300 1071 383 1086 l 293 1090 q 510 1185 410 1126 q 669 1306 610 1243 l 694 1306 q 768 1181 725 1233 q 888 1090 811 1128 l 882 1071 q 767 1095 815 1082 q 679 1123 718 1108 q 603 1153 640 1138 m 897 1260 q 922 1328 903 1303 q 962 1372 940 1354 q 999 1413 983 1390 q 1015 1475 1015 1436 q 993 1538 1015 1519 q 932 1557 971 1557 q 896 1553 913 1557 q 869 1542 879 1549 q 905 1515 892 1532 q 918 1472 918 1499 q 894 1417 918 1439 q 833 1396 869 1396 q 783 1413 803 1396 q 764 1460 764 1431 q 788 1517 764 1493 q 844 1556 811 1540 q 904 1576 869 1568 q 982 1583 939 1583 q 1098 1560 1051 1583 q 1144 1482 1144 1536 q 1124 1424 1144 1444 q 1073 1388 1104 1403 q 1010 1359 1042 1374 q 954 1322 978 1344 q 925 1260 931 1300 l 897 1260 z "},"Ễ":{"ha":869,"x_min":-60,"x_max":1019,"o":"m 313 481 l 319 508 l 594 508 l 588 481 l 313 481 m 458 508 q 528 524 497 508 q 581 564 558 539 q 621 618 604 589 q 649 675 638 647 l 681 675 q 649 573 658 611 q 629 494 639 535 q 617 446 622 469 q 605 392 611 422 q 589 314 599 363 l 558 314 q 558 371 560 342 q 544 425 556 400 q 509 465 533 450 q 443 481 485 481 l 458 508 m 831 733 q 824 863 836 815 q 776 931 811 911 q 678 951 740 951 l 635 951 q 563 944 589 951 q 523 912 538 936 q 494 836 508 888 l 311 147 q 299 72 297 97 q 323 40 301 47 q 390 32 344 32 l 442 32 q 568 56 517 32 q 660 133 619 79 q 742 278 701 186 l 774 278 q 758 233 767 260 q 743 178 750 207 q 725 102 736 151 q 707 0 714 53 q 549 3 636 3 q 392 4 461 4 q 303 4 357 4 q 188 3 250 4 q 61 2 125 3 q -60 0 -3 1 l -53 28 q 21 39 -6 31 q 62 72 47 47 q 90 147 76 97 l 274 836 q 285 912 288 888 q 260 945 282 936 q 192 956 239 954 l 199 983 q 319 981 256 982 q 446 980 383 981 q 562 979 508 979 q 650 979 615 979 q 791 980 713 979 q 932 983 869 981 q 901 896 914 935 q 879 819 889 857 q 869 772 874 794 q 861 733 864 750 l 831 733 m 603 1153 q 463 1108 543 1131 q 300 1071 383 1086 l 293 1090 q 510 1185 410 1126 q 669 1306 610 1243 l 694 1306 q 768 1181 725 1233 q 888 1090 811 1128 l 882 1071 q 767 1095 815 1082 q 679 1123 718 1108 q 603 1153 640 1138 m 624 1576 q 709 1561 675 1576 q 769 1526 743 1546 q 822 1490 794 1506 q 888 1475 849 1475 q 943 1494 917 1475 q 994 1556 969 1513 l 1019 1549 q 916 1401 979 1446 q 789 1356 853 1356 q 703 1371 738 1356 q 644 1406 669 1386 q 591 1442 618 1426 q 525 1457 564 1457 q 470 1439 496 1457 q 418 1376 444 1421 l 393 1383 q 496 1531 432 1486 q 624 1576 560 1576 z "},"Ë":{"ha":869,"x_min":-60,"x_max":932,"o":"m 313 481 l 319 508 l 594 508 l 588 481 l 313 481 m 458 508 q 528 524 497 508 q 581 564 558 539 q 621 618 604 589 q 649 675 638 647 l 681 675 q 649 573 658 611 q 629 494 639 535 q 617 446 622 469 q 605 392 611 422 q 589 314 599 363 l 558 314 q 558 371 560 342 q 544 425 556 400 q 509 465 533 450 q 443 481 485 481 l 458 508 m 831 733 q 824 863 836 815 q 776 931 811 911 q 678 951 740 951 l 635 951 q 563 944 589 951 q 523 912 538 936 q 494 836 508 888 l 311 147 q 299 72 297 97 q 323 40 301 47 q 390 32 344 32 l 442 32 q 568 56 517 32 q 660 133 619 79 q 742 278 701 186 l 774 278 q 758 233 767 260 q 743 178 750 207 q 725 102 736 151 q 707 0 714 53 q 549 3 636 3 q 392 4 461 4 q 303 4 357 4 q 188 3 250 4 q 61 2 125 3 q -60 0 -3 1 l -53 28 q 21 39 -6 31 q 62 72 47 47 q 90 147 76 97 l 274 836 q 285 912 288 888 q 260 945 282 936 q 192 956 239 954 l 199 983 q 319 981 256 982 q 446 980 383 981 q 562 979 508 979 q 650 979 615 979 q 791 980 713 979 q 932 983 869 981 q 901 896 914 935 q 879 819 889 857 q 869 772 874 794 q 861 733 864 750 l 831 733 m 349 1156 q 385 1242 349 1211 q 468 1274 422 1274 q 536 1247 514 1274 q 558 1181 558 1221 q 541 1117 558 1143 q 497 1077 524 1090 q 438 1064 469 1064 q 371 1090 393 1064 q 349 1156 349 1115 m 682 1156 q 718 1242 682 1211 q 801 1274 754 1274 q 869 1247 846 1274 q 892 1181 892 1221 q 874 1117 892 1143 q 829 1077 857 1090 q 771 1064 801 1064 q 703 1090 725 1064 q 682 1156 682 1115 z "},"Ė":{"ha":869,"x_min":-60,"x_max":932,"o":"m 313 481 l 319 508 l 594 508 l 588 481 l 313 481 m 458 508 q 528 524 497 508 q 581 564 558 539 q 621 618 604 589 q 649 675 638 647 l 681 675 q 649 573 658 611 q 629 494 639 535 q 617 446 622 469 q 605 392 611 422 q 589 314 599 363 l 558 314 q 558 371 560 342 q 544 425 556 400 q 509 465 533 450 q 443 481 485 481 l 458 508 m 831 733 q 824 863 836 815 q 776 931 811 911 q 678 951 740 951 l 635 951 q 563 944 589 951 q 523 912 538 936 q 494 836 508 888 l 311 147 q 299 72 297 97 q 323 40 301 47 q 390 32 344 32 l 442 32 q 568 56 517 32 q 660 133 619 79 q 742 278 701 186 l 774 278 q 758 233 767 260 q 743 178 750 207 q 725 102 736 151 q 707 0 714 53 q 549 3 636 3 q 392 4 461 4 q 303 4 357 4 q 188 3 250 4 q 61 2 125 3 q -60 0 -3 1 l -53 28 q 21 39 -6 31 q 62 72 47 47 q 90 147 76 97 l 274 836 q 285 912 288 888 q 260 945 282 936 q 192 956 239 954 l 199 983 q 319 981 256 982 q 446 980 383 981 q 562 979 508 979 q 650 979 615 979 q 791 980 713 979 q 932 983 869 981 q 901 896 914 935 q 879 819 889 857 q 869 772 874 794 q 861 733 864 750 l 831 733 m 504 1147 q 545 1241 504 1206 q 646 1276 586 1276 q 722 1254 696 1276 q 749 1190 749 1232 q 707 1099 749 1136 q 604 1063 665 1063 q 531 1085 557 1063 q 504 1147 504 1108 z "},"Ẹ":{"ha":869,"x_min":-60,"x_max":932,"o":"m 313 481 l 319 508 l 594 508 l 588 481 l 313 481 m 458 508 q 528 524 497 508 q 581 564 558 539 q 621 618 604 589 q 649 675 638 647 l 681 675 q 649 573 658 611 q 629 494 639 535 q 617 446 622 469 q 605 392 611 422 q 589 314 599 363 l 558 314 q 558 371 560 342 q 544 425 556 400 q 509 465 533 450 q 443 481 485 481 l 458 508 m 831 733 q 824 863 836 815 q 776 931 811 911 q 678 951 740 951 l 635 951 q 563 944 589 951 q 523 912 538 936 q 494 836 508 888 l 311 147 q 299 72 297 97 q 323 40 301 47 q 390 32 344 32 l 442 32 q 568 56 517 32 q 660 133 619 79 q 742 278 701 186 l 774 278 q 758 233 767 260 q 743 178 750 207 q 725 102 736 151 q 707 0 714 53 q 549 3 636 3 q 392 4 461 4 q 303 4 357 4 q 188 3 250 4 q 61 2 125 3 q -60 0 -3 1 l -53 28 q 21 39 -6 31 q 62 72 47 47 q 90 147 76 97 l 274 836 q 285 912 288 888 q 260 945 282 936 q 192 956 239 954 l 199 983 q 319 981 256 982 q 446 980 383 981 q 562 979 508 979 q 650 979 615 979 q 791 980 713 979 q 932 983 869 981 q 901 896 914 935 q 879 819 889 857 q 869 772 874 794 q 861 733 864 750 l 831 733 m 338 -260 q 271 -241 294 -260 q 247 -187 247 -222 q 281 -106 247 -136 q 369 -76 314 -76 q 436 -95 413 -76 q 460 -149 460 -114 q 425 -231 460 -201 q 338 -260 390 -260 z "},"È":{"ha":869,"x_min":-60,"x_max":932,"o":"m 313 481 l 319 508 l 594 508 l 588 481 l 313 481 m 458 508 q 528 524 497 508 q 581 564 558 539 q 621 618 604 589 q 649 675 638 647 l 681 675 q 649 573 658 611 q 629 494 639 535 q 617 446 622 469 q 605 392 611 422 q 589 314 599 363 l 558 314 q 558 371 560 342 q 544 425 556 400 q 509 465 533 450 q 443 481 485 481 l 458 508 m 831 733 q 824 863 836 815 q 776 931 811 911 q 678 951 740 951 l 635 951 q 563 944 589 951 q 523 912 538 936 q 494 836 508 888 l 311 147 q 299 72 297 97 q 323 40 301 47 q 390 32 344 32 l 442 32 q 568 56 517 32 q 660 133 619 79 q 742 278 701 186 l 774 278 q 758 233 767 260 q 743 178 750 207 q 725 102 736 151 q 707 0 714 53 q 549 3 636 3 q 392 4 461 4 q 303 4 357 4 q 188 3 250 4 q 61 2 125 3 q -60 0 -3 1 l -53 28 q 21 39 -6 31 q 62 72 47 47 q 90 147 76 97 l 274 836 q 285 912 288 888 q 260 945 282 936 q 192 956 239 954 l 199 983 q 319 981 256 982 q 446 980 383 981 q 562 979 508 979 q 650 979 615 979 q 791 980 713 979 q 932 983 869 981 q 901 896 914 935 q 879 819 889 857 q 869 772 874 794 q 861 733 864 750 l 831 733 m 660 1071 q 540 1121 589 1104 q 458 1149 492 1138 q 394 1179 424 1161 q 356 1226 368 1197 q 361 1285 344 1256 q 415 1317 379 1315 q 476 1303 450 1319 q 527 1256 506 1286 q 581 1185 549 1226 q 671 1086 614 1143 l 660 1071 z "},"Ẻ":{"ha":869,"x_min":-60,"x_max":932,"o":"m 313 481 l 319 508 l 594 508 l 588 481 l 313 481 m 458 508 q 528 524 497 508 q 581 564 558 539 q 621 618 604 589 q 649 675 638 647 l 681 675 q 649 573 658 611 q 629 494 639 535 q 617 446 622 469 q 605 392 611 422 q 589 314 599 363 l 558 314 q 558 371 560 342 q 544 425 556 400 q 509 465 533 450 q 443 481 485 481 l 458 508 m 831 733 q 824 863 836 815 q 776 931 811 911 q 678 951 740 951 l 635 951 q 563 944 589 951 q 523 912 538 936 q 494 836 508 888 l 311 147 q 299 72 297 97 q 323 40 301 47 q 390 32 344 32 l 442 32 q 568 56 517 32 q 660 133 619 79 q 742 278 701 186 l 774 278 q 758 233 767 260 q 743 178 750 207 q 725 102 736 151 q 707 0 714 53 q 549 3 636 3 q 392 4 461 4 q 303 4 357 4 q 188 3 250 4 q 61 2 125 3 q -60 0 -3 1 l -53 28 q 21 39 -6 31 q 62 72 47 47 q 90 147 76 97 l 274 836 q 285 912 288 888 q 260 945 282 936 q 192 956 239 954 l 199 983 q 319 981 256 982 q 446 980 383 981 q 562 979 508 979 q 650 979 615 979 q 791 980 713 979 q 932 983 869 981 q 901 896 914 935 q 879 819 889 857 q 869 772 874 794 q 861 733 864 750 l 831 733 m 585 1032 q 609 1101 590 1075 q 649 1144 628 1126 q 687 1185 671 1163 q 703 1247 703 1208 q 681 1310 703 1292 q 619 1329 658 1329 q 583 1325 600 1329 q 557 1314 567 1321 q 592 1288 579 1304 q 606 1244 606 1271 q 581 1190 606 1211 q 521 1168 557 1168 q 471 1185 490 1168 q 451 1232 451 1203 q 475 1289 451 1265 q 532 1328 499 1313 q 592 1348 557 1340 q 669 1356 626 1356 q 785 1332 739 1356 q 832 1254 832 1308 q 812 1196 832 1217 q 760 1160 792 1175 q 697 1131 729 1146 q 642 1094 665 1117 q 613 1032 618 1072 l 585 1032 z "},"Ē":{"ha":869,"x_min":-60,"x_max":932,"o":"m 313 481 l 319 508 l 594 508 l 588 481 l 313 481 m 458 508 q 528 524 497 508 q 581 564 558 539 q 621 618 604 589 q 649 675 638 647 l 681 675 q 649 573 658 611 q 629 494 639 535 q 617 446 622 469 q 605 392 611 422 q 589 314 599 363 l 558 314 q 558 371 560 342 q 544 425 556 400 q 509 465 533 450 q 443 481 485 481 l 458 508 m 831 733 q 824 863 836 815 q 776 931 811 911 q 678 951 740 951 l 635 951 q 563 944 589 951 q 523 912 538 936 q 494 836 508 888 l 311 147 q 299 72 297 97 q 323 40 301 47 q 390 32 344 32 l 442 32 q 568 56 517 32 q 660 133 619 79 q 742 278 701 186 l 774 278 q 758 233 767 260 q 743 178 750 207 q 725 102 736 151 q 707 0 714 53 q 549 3 636 3 q 392 4 461 4 q 303 4 357 4 q 188 3 250 4 q 61 2 125 3 q -60 0 -3 1 l -53 28 q 21 39 -6 31 q 62 72 47 47 q 90 147 76 97 l 274 836 q 285 912 288 888 q 260 945 282 936 q 192 956 239 954 l 199 983 q 319 981 256 982 q 446 980 383 981 q 562 979 508 979 q 650 979 615 979 q 791 980 713 979 q 932 983 869 981 q 901 896 914 935 q 879 819 889 857 q 869 772 874 794 q 861 733 864 750 l 831 733 m 881 1172 l 872 1138 l 317 1138 l 325 1172 l 881 1172 z "},"Ę":{"ha":869,"x_min":-60,"x_max":932,"o":"m 313 481 l 319 508 l 594 508 l 588 481 l 313 481 m 458 508 q 528 524 497 508 q 581 564 558 539 q 621 618 604 589 q 649 675 638 647 l 681 675 q 649 573 658 611 q 629 494 639 535 q 617 446 622 469 q 605 392 611 422 q 589 314 599 363 l 558 314 q 558 371 560 342 q 544 425 556 400 q 509 465 533 450 q 443 481 485 481 l 458 508 m 831 733 q 824 863 836 815 q 776 931 811 911 q 678 951 740 951 l 635 951 q 563 944 589 951 q 523 912 538 936 q 494 836 508 888 l 311 147 q 299 72 297 97 q 323 40 301 47 q 390 32 344 32 l 442 32 q 568 56 517 32 q 660 133 619 79 q 742 278 701 186 l 774 278 q 758 233 767 260 q 743 178 750 207 q 725 102 736 151 q 707 0 714 53 q 549 3 636 3 q 392 4 461 4 q 303 4 357 4 q 188 3 250 4 q 61 2 125 3 q -60 0 -3 1 l -53 28 q 21 39 -6 31 q 62 72 47 47 q 90 147 76 97 l 274 836 q 285 912 288 888 q 260 945 282 936 q 192 956 239 954 l 199 983 q 319 981 256 982 q 446 980 383 981 q 562 979 508 979 q 650 979 615 979 q 791 980 713 979 q 932 983 869 981 q 901 896 914 935 q 879 819 889 857 q 869 772 874 794 q 861 733 864 750 l 831 733 m 703 4 q 629 -35 663 -11 q 576 -89 596 -60 q 557 -150 557 -118 q 603 -192 557 -192 q 653 -183 625 -192 q 704 -161 681 -175 l 719 -185 q 619 -243 669 -225 q 518 -261 569 -261 q 431 -239 463 -261 q 400 -178 400 -217 q 440 -98 400 -133 q 542 -37 481 -62 q 667 4 603 -11 l 703 4 z "},"Ẽ":{"ha":869,"x_min":-60,"x_max":947,"o":"m 313 481 l 319 508 l 594 508 l 588 481 l 313 481 m 458 508 q 528 524 497 508 q 581 564 558 539 q 621 618 604 589 q 649 675 638 647 l 681 675 q 649 573 658 611 q 629 494 639 535 q 617 446 622 469 q 605 392 611 422 q 589 314 599 363 l 558 314 q 558 371 560 342 q 544 425 556 400 q 509 465 533 450 q 443 481 485 481 l 458 508 m 831 733 q 824 863 836 815 q 776 931 811 911 q 678 951 740 951 l 635 951 q 563 944 589 951 q 523 912 538 936 q 494 836 508 888 l 311 147 q 299 72 297 97 q 323 40 301 47 q 390 32 344 32 l 442 32 q 568 56 517 32 q 660 133 619 79 q 742 278 701 186 l 774 278 q 758 233 767 260 q 743 178 750 207 q 725 102 736 151 q 707 0 714 53 q 549 3 636 3 q 392 4 461 4 q 303 4 357 4 q 188 3 250 4 q 61 2 125 3 q -60 0 -3 1 l -53 28 q 21 39 -6 31 q 62 72 47 47 q 90 147 76 97 l 274 836 q 285 912 288 888 q 260 945 282 936 q 192 956 239 954 l 199 983 q 319 981 256 982 q 446 980 383 981 q 562 979 508 979 q 650 979 615 979 q 791 980 713 979 q 932 983 869 981 q 901 896 914 935 q 879 819 889 857 q 869 772 874 794 q 861 733 864 750 l 831 733 m 551 1288 q 637 1272 603 1288 q 697 1237 671 1257 q 749 1201 722 1217 q 815 1186 776 1186 q 871 1205 844 1186 q 922 1267 897 1224 l 947 1260 q 844 1112 907 1157 q 717 1067 781 1067 q 631 1082 665 1067 q 572 1117 597 1097 q 519 1153 546 1138 q 453 1168 492 1168 q 398 1150 424 1168 q 346 1088 372 1132 l 321 1094 q 424 1242 360 1197 q 551 1288 488 1288 z "},"Ʒ":{"ha":844,"x_min":-43,"x_max":924,"o":"m 924 983 l 917 956 l 561 492 l 553 550 q 710 450 654 508 q 765 299 765 392 q 708 135 765 207 q 551 22 650 63 q 328 -19 451 -19 q 176 -1 235 -19 q 88 31 117 17 q 60 46 72 40 q 36 51 47 51 q 11 36 22 51 q -11 -10 0 21 l -43 -10 q -18 68 -31 24 q 13 184 -6 113 q 56 365 32 256 l 88 365 q 79 186 65 265 q 149 62 93 107 q 301 17 204 17 q 435 59 378 17 q 526 167 493 101 q 560 306 560 233 q 513 456 560 401 q 372 533 465 511 l 379 561 l 681 951 l 522 951 q 421 938 469 951 q 326 891 372 924 q 242 803 281 858 q 174 667 204 749 l 142 667 q 170 764 157 710 q 194 876 183 818 q 215 983 206 933 q 316 981 261 982 q 426 979 371 979 q 526 979 481 979 q 726 980 619 979 q 924 983 832 981 z "},"Ǯ":{"ha":844,"x_min":-43,"x_max":969,"o":"m 924 983 l 917 956 l 561 492 l 553 550 q 710 450 654 508 q 765 299 765 392 q 708 135 765 207 q 551 22 650 63 q 328 -19 451 -19 q 176 -1 235 -19 q 88 31 117 17 q 60 46 72 40 q 36 51 47 51 q 11 36 22 51 q -11 -10 0 21 l -43 -10 q -18 68 -31 24 q 13 184 -6 113 q 56 365 32 256 l 88 365 q 79 186 65 265 q 149 62 93 107 q 301 17 204 17 q 435 59 378 17 q 526 167 493 101 q 560 306 560 233 q 513 456 560 401 q 372 533 465 511 l 379 561 l 681 951 l 522 951 q 421 938 469 951 q 326 891 372 924 q 242 803 281 858 q 174 667 204 749 l 142 667 q 170 764 157 710 q 194 876 183 818 q 215 983 206 933 q 316 981 261 982 q 426 979 371 979 q 526 979 481 979 q 726 980 619 979 q 924 983 832 981 m 661 1219 q 800 1264 721 1242 q 963 1301 879 1286 l 969 1282 q 753 1188 853 1247 q 593 1067 653 1129 l 568 1067 q 496 1192 539 1140 q 375 1282 453 1244 l 381 1301 q 496 1277 447 1290 q 584 1249 544 1264 q 661 1219 624 1235 z "},"F":{"ha":817,"x_min":-60,"x_max":932,"o":"m 319 475 l 326 503 l 615 503 l 610 475 l 319 475 m 817 692 q 817 847 829 790 q 765 927 804 903 q 658 951 726 951 l 626 951 q 560 944 583 951 q 522 912 536 936 q 494 836 507 888 l 311 147 q 301 72 297 97 q 334 39 306 47 q 419 28 363 31 l 414 0 q 303 3 371 3 q 167 4 236 4 q 38 3 97 4 q -60 0 -22 3 l -53 28 q 21 39 -6 31 q 62 72 47 47 q 90 147 76 97 l 274 836 q 285 912 288 888 q 260 945 282 936 q 192 956 239 954 l 199 983 q 319 981 256 982 q 446 980 383 981 q 562 979 508 979 q 650 979 615 979 q 791 980 713 979 q 932 983 869 981 q 901 893 914 933 q 878 814 889 853 q 860 747 868 778 q 849 692 853 717 l 817 692 m 469 503 q 536 517 507 503 q 588 555 565 531 q 628 609 611 579 q 660 669 646 639 l 690 669 q 660 567 669 606 q 639 489 650 529 q 620 403 631 449 q 596 283 610 357 l 565 283 q 563 361 567 326 q 548 422 560 396 q 514 461 536 447 q 454 475 492 475 l 469 503 z "},"G":{"ha":1026,"x_min":53,"x_max":1057,"o":"m 472 8 q 531 17 503 8 q 579 38 560 25 q 615 77 604 54 q 636 139 626 100 l 668 261 q 680 346 683 318 q 649 383 676 374 q 564 394 622 393 l 571 422 q 641 420 600 421 q 726 419 682 419 q 807 418 769 418 q 919 419 868 418 q 1003 422 971 421 l 996 394 q 948 385 965 393 q 919 351 931 376 q 893 275 907 326 l 819 0 l 792 0 q 785 58 794 36 q 753 79 776 79 q 697 65 726 79 q 636 35 667 50 q 535 -6 583 7 q 435 -19 486 -19 q 153 64 254 -19 q 53 299 53 147 q 84 492 53 393 q 173 682 115 590 q 313 846 231 774 q 498 960 396 918 q 719 1003 600 1003 q 859 976 810 1003 q 947 913 908 950 q 986 906 968 892 q 1026 983 1004 919 l 1057 983 q 1014 852 1036 929 q 968 664 992 775 l 938 664 q 942 717 940 692 q 944 768 944 743 q 941 822 944 797 q 925 869 938 846 q 842 950 897 922 q 711 978 788 978 q 556 928 625 978 q 434 798 488 879 q 345 620 381 717 q 292 427 310 524 q 274 253 274 331 q 323 68 274 128 q 472 8 372 8 z "},"Ǵ":{"ha":1026,"x_min":53,"x_max":1101,"o":"m 472 8 q 531 17 503 8 q 579 38 560 25 q 615 77 604 54 q 636 139 626 100 l 668 261 q 680 346 683 318 q 649 383 676 374 q 564 394 622 393 l 571 422 q 641 420 600 421 q 726 419 682 419 q 807 418 769 418 q 919 419 868 418 q 1003 422 971 421 l 996 394 q 948 385 965 393 q 919 351 931 376 q 893 275 907 326 l 819 0 l 792 0 q 785 58 794 36 q 753 79 776 79 q 697 65 726 79 q 636 35 667 50 q 535 -6 583 7 q 435 -19 486 -19 q 153 64 254 -19 q 53 299 53 147 q 84 492 53 393 q 173 682 115 590 q 313 846 231 774 q 498 960 396 918 q 719 1003 600 1003 q 859 976 810 1003 q 947 913 908 950 q 986 906 968 892 q 1026 983 1004 919 l 1057 983 q 1014 852 1036 929 q 968 664 992 775 l 938 664 q 942 717 940 692 q 944 768 944 743 q 941 822 944 797 q 925 869 938 846 q 842 950 897 922 q 711 978 788 978 q 556 928 625 978 q 434 798 488 879 q 345 620 381 717 q 292 427 310 524 q 274 253 274 331 q 323 68 274 128 q 472 8 372 8 m 694 1089 q 808 1186 764 1143 q 887 1260 853 1229 q 958 1313 921 1292 q 1003 1327 978 1324 q 1051 1323 1028 1331 q 1085 1290 1074 1315 q 1083 1230 1101 1258 q 1029 1183 1064 1201 q 949 1151 994 1164 q 844 1121 904 1138 q 704 1072 785 1104 l 694 1089 z "},"Ğ":{"ha":1026,"x_min":53,"x_max":1076,"o":"m 472 8 q 531 17 503 8 q 579 38 560 25 q 615 77 604 54 q 636 139 626 100 l 668 261 q 680 346 683 318 q 649 383 676 374 q 564 394 622 393 l 571 422 q 641 420 600 421 q 726 419 682 419 q 807 418 769 418 q 919 419 868 418 q 1003 422 971 421 l 996 394 q 948 385 965 393 q 919 351 931 376 q 893 275 907 326 l 819 0 l 792 0 q 785 58 794 36 q 753 79 776 79 q 697 65 726 79 q 636 35 667 50 q 535 -6 583 7 q 435 -19 486 -19 q 153 64 254 -19 q 53 299 53 147 q 84 492 53 393 q 173 682 115 590 q 313 846 231 774 q 498 960 396 918 q 719 1003 600 1003 q 859 976 810 1003 q 947 913 908 950 q 986 906 968 892 q 1026 983 1004 919 l 1057 983 q 1014 852 1036 929 q 968 664 992 775 l 938 664 q 942 717 940 692 q 944 768 944 743 q 941 822 944 797 q 925 869 938 846 q 842 950 897 922 q 711 978 788 978 q 556 928 625 978 q 434 798 488 879 q 345 620 381 717 q 292 427 310 524 q 274 253 274 331 q 323 68 274 128 q 472 8 372 8 m 744 1207 q 914 1227 833 1207 q 1061 1286 994 1247 l 1076 1272 q 982 1176 1040 1222 q 855 1100 924 1129 q 717 1071 786 1071 q 607 1097 653 1071 q 534 1169 561 1124 q 497 1271 507 1215 l 518 1281 q 610 1224 558 1242 q 744 1207 663 1207 z "},"Ǧ":{"ha":1026,"x_min":53,"x_max":1113,"o":"m 472 8 q 531 17 503 8 q 579 38 560 25 q 615 77 604 54 q 636 139 626 100 l 668 261 q 680 346 683 318 q 649 383 676 374 q 564 394 622 393 l 571 422 q 641 420 600 421 q 726 419 682 419 q 807 418 769 418 q 919 419 868 418 q 1003 422 971 421 l 996 394 q 948 385 965 393 q 919 351 931 376 q 893 275 907 326 l 819 0 l 792 0 q 785 58 794 36 q 753 79 776 79 q 697 65 726 79 q 636 35 667 50 q 535 -6 583 7 q 435 -19 486 -19 q 153 64 254 -19 q 53 299 53 147 q 84 492 53 393 q 173 682 115 590 q 313 846 231 774 q 498 960 396 918 q 719 1003 600 1003 q 859 976 810 1003 q 947 913 908 950 q 986 906 968 892 q 1026 983 1004 919 l 1057 983 q 1014 852 1036 929 q 968 664 992 775 l 938 664 q 942 717 940 692 q 944 768 944 743 q 941 822 944 797 q 925 869 938 846 q 842 950 897 922 q 711 978 788 978 q 556 928 625 978 q 434 798 488 879 q 345 620 381 717 q 292 427 310 524 q 274 253 274 331 q 323 68 274 128 q 472 8 372 8 m 804 1219 q 943 1264 864 1242 q 1106 1301 1022 1286 l 1113 1282 q 896 1188 996 1247 q 736 1067 796 1129 l 711 1067 q 639 1192 682 1140 q 518 1282 596 1244 l 524 1301 q 639 1277 590 1290 q 727 1249 688 1264 q 804 1219 767 1235 z "},"Ĝ":{"ha":1026,"x_min":53,"x_max":1057,"o":"m 472 8 q 531 17 503 8 q 579 38 560 25 q 615 77 604 54 q 636 139 626 100 l 668 261 q 680 346 683 318 q 649 383 676 374 q 564 394 622 393 l 571 422 q 641 420 600 421 q 726 419 682 419 q 807 418 769 418 q 919 419 868 418 q 1003 422 971 421 l 996 394 q 948 385 965 393 q 919 351 931 376 q 893 275 907 326 l 819 0 l 792 0 q 785 58 794 36 q 753 79 776 79 q 697 65 726 79 q 636 35 667 50 q 535 -6 583 7 q 435 -19 486 -19 q 153 64 254 -19 q 53 299 53 147 q 84 492 53 393 q 173 682 115 590 q 313 846 231 774 q 498 960 396 918 q 719 1003 600 1003 q 859 976 810 1003 q 947 913 908 950 q 986 906 968 892 q 1026 983 1004 919 l 1057 983 q 1014 852 1036 929 q 968 664 992 775 l 938 664 q 942 717 940 692 q 944 768 944 743 q 941 822 944 797 q 925 869 938 846 q 842 950 897 922 q 711 978 788 978 q 556 928 625 978 q 434 798 488 879 q 345 620 381 717 q 292 427 310 524 q 274 253 274 331 q 323 68 274 128 q 472 8 372 8 m 724 1153 q 584 1108 664 1131 q 421 1071 504 1086 l 414 1090 q 631 1185 531 1126 q 790 1306 731 1243 l 815 1306 q 889 1181 846 1233 q 1008 1090 932 1128 l 1003 1071 q 888 1095 936 1082 q 800 1123 839 1108 q 724 1153 761 1138 z "},"Ģ":{"ha":1026,"x_min":53,"x_max":1057,"o":"m 472 8 q 531 17 503 8 q 579 38 560 25 q 615 77 604 54 q 636 139 626 100 l 668 261 q 680 346 683 318 q 649 383 676 374 q 564 394 622 393 l 571 422 q 641 420 600 421 q 726 419 682 419 q 807 418 769 418 q 919 419 868 418 q 1003 422 971 421 l 996 394 q 948 385 965 393 q 919 351 931 376 q 893 275 907 326 l 819 0 l 792 0 q 785 58 794 36 q 753 79 776 79 q 697 65 726 79 q 636 35 667 50 q 535 -6 583 7 q 435 -19 486 -19 q 153 64 254 -19 q 53 299 53 147 q 84 492 53 393 q 173 682 115 590 q 313 846 231 774 q 498 960 396 918 q 719 1003 600 1003 q 859 976 810 1003 q 947 913 908 950 q 986 906 968 892 q 1026 983 1004 919 l 1057 983 q 1014 852 1036 929 q 968 664 992 775 l 938 664 q 942 717 940 692 q 944 768 944 743 q 941 822 944 797 q 925 869 938 846 q 842 950 897 922 q 711 978 788 978 q 556 928 625 978 q 434 798 488 879 q 345 620 381 717 q 292 427 310 524 q 274 253 274 331 q 323 68 274 128 q 472 8 372 8 m 444 -74 q 510 -94 481 -74 q 539 -158 539 -115 q 490 -274 539 -228 q 347 -335 442 -321 l 344 -308 q 435 -282 396 -303 q 482 -228 475 -261 q 447 -244 468 -237 q 403 -251 426 -251 q 342 -234 364 -251 q 319 -183 319 -217 q 356 -106 319 -137 q 444 -74 392 -74 z "},"Ġ":{"ha":1026,"x_min":53,"x_max":1057,"o":"m 472 8 q 531 17 503 8 q 579 38 560 25 q 615 77 604 54 q 636 139 626 100 l 668 261 q 680 346 683 318 q 649 383 676 374 q 564 394 622 393 l 571 422 q 641 420 600 421 q 726 419 682 419 q 807 418 769 418 q 919 419 868 418 q 1003 422 971 421 l 996 394 q 948 385 965 393 q 919 351 931 376 q 893 275 907 326 l 819 0 l 792 0 q 785 58 794 36 q 753 79 776 79 q 697 65 726 79 q 636 35 667 50 q 535 -6 583 7 q 435 -19 486 -19 q 153 64 254 -19 q 53 299 53 147 q 84 492 53 393 q 173 682 115 590 q 313 846 231 774 q 498 960 396 918 q 719 1003 600 1003 q 859 976 810 1003 q 947 913 908 950 q 986 906 968 892 q 1026 983 1004 919 l 1057 983 q 1014 852 1036 929 q 968 664 992 775 l 938 664 q 942 717 940 692 q 944 768 944 743 q 941 822 944 797 q 925 869 938 846 q 842 950 897 922 q 711 978 788 978 q 556 928 625 978 q 434 798 488 879 q 345 620 381 717 q 292 427 310 524 q 274 253 274 331 q 323 68 274 128 q 472 8 372 8 m 625 1147 q 666 1241 625 1206 q 767 1276 707 1276 q 843 1254 817 1276 q 869 1190 869 1232 q 828 1099 869 1136 q 725 1063 786 1063 q 651 1085 678 1063 q 625 1147 625 1108 z "},"Ǥ":{"ha":1026,"x_min":53,"x_max":1057,"o":"m 435 -19 q 153 64 254 -19 q 53 299 53 147 q 84 492 53 393 q 173 682 115 590 q 313 846 231 774 q 498 960 396 918 q 719 1003 600 1003 q 859 976 810 1003 q 947 913 908 950 q 986 906 968 892 q 1026 983 1004 919 l 1057 983 q 1014 852 1036 929 q 968 664 992 775 l 938 664 q 942 717 940 692 q 944 768 944 743 q 941 822 944 797 q 925 869 938 846 q 842 950 897 922 q 711 978 788 978 q 556 928 625 978 q 434 798 488 879 q 345 620 381 717 q 292 427 310 524 q 274 253 274 331 q 323 68 274 128 q 472 8 372 8 q 531 17 503 8 q 579 38 560 25 q 615 78 604 54 q 636 139 626 101 l 676 292 q 688 375 692 347 q 658 413 685 403 q 572 425 631 424 l 579 453 q 649 451 608 451 q 734 449 690 450 q 815 449 778 449 q 928 450 876 449 q 1011 453 979 451 l 1004 425 q 956 415 974 424 q 927 381 939 406 q 901 306 915 357 l 819 0 l 792 0 q 785 58 794 36 q 753 79 776 79 q 697 65 726 79 q 636 35 667 50 q 535 -6 583 7 q 435 -19 486 -19 m 522 242 l 528 269 l 1001 269 l 996 242 l 522 242 z "},"H":{"ha":1125,"x_min":-57,"x_max":1228,"o":"m 332 481 l 342 508 l 832 508 l 821 481 l 332 481 m 857 836 q 869 912 871 888 q 844 945 867 936 q 775 956 822 954 l 782 983 q 879 981 819 982 q 999 979 939 979 q 1128 981 1067 979 q 1228 983 1189 982 l 1221 956 q 1147 945 1174 954 q 1106 912 1121 936 q 1078 836 1092 888 l 894 147 q 883 72 882 97 q 907 39 885 47 q 976 28 929 31 l 971 0 q 872 3 933 3 q 743 4 811 4 q 623 3 683 4 q 525 0 563 3 l 531 28 q 604 39 578 31 q 646 72 631 47 q 674 147 661 97 l 857 836 m 311 147 q 300 72 299 97 q 324 39 301 47 q 393 28 346 31 l 388 0 q 290 3 349 3 q 169 4 231 4 q 40 3 100 4 q -57 0 -19 3 l -50 28 q 22 39 -4 31 q 63 72 47 47 q 90 147 78 97 l 274 836 q 285 912 288 888 q 260 945 282 936 q 192 956 239 954 l 199 983 q 294 981 233 982 q 425 979 356 979 q 544 981 486 979 q 644 983 601 982 l 638 956 q 564 945 590 954 q 523 912 538 936 q 494 836 508 888 l 311 147 z "},"Ħ":{"ha":1125,"x_min":-57,"x_max":1228,"o":"m 332 481 l 342 508 l 832 508 l 821 481 l 332 481 m 857 836 q 869 912 871 888 q 844 945 867 936 q 775 956 822 954 l 782 983 q 879 981 819 982 q 999 979 939 979 q 1128 981 1067 979 q 1228 983 1189 982 l 1221 956 q 1147 945 1174 954 q 1106 912 1121 936 q 1078 836 1092 888 l 894 147 q 883 72 882 97 q 907 39 885 47 q 976 28 929 31 l 971 0 q 872 3 933 3 q 743 4 811 4 q 623 3 683 4 q 525 0 563 3 l 531 28 q 604 39 578 31 q 646 72 631 47 q 674 147 661 97 l 857 836 m 311 147 q 300 72 299 97 q 324 39 301 47 q 393 28 346 31 l 388 0 q 290 3 349 3 q 169 4 231 4 q 40 3 100 4 q -57 0 -19 3 l -50 28 q 22 39 -4 31 q 63 72 47 47 q 90 147 78 97 l 274 836 q 285 912 288 888 q 260 945 282 936 q 192 956 239 954 l 199 983 q 294 981 233 982 q 425 979 356 979 q 544 981 486 979 q 644 983 601 982 l 638 956 q 564 945 590 954 q 523 912 538 936 q 494 836 508 888 l 311 147 m 1211 740 l 1204 713 l 83 713 l 90 740 l 1211 740 z "},"Ȟ":{"ha":1125,"x_min":-57,"x_max":1228,"o":"m 332 481 l 342 508 l 832 508 l 821 481 l 332 481 m 857 836 q 869 912 871 888 q 844 945 867 936 q 775 956 822 954 l 782 983 q 879 981 819 982 q 999 979 939 979 q 1128 981 1067 979 q 1228 983 1189 982 l 1221 956 q 1147 945 1174 954 q 1106 912 1121 936 q 1078 836 1092 888 l 894 147 q 883 72 882 97 q 907 39 885 47 q 976 28 929 31 l 971 0 q 872 3 933 3 q 743 4 811 4 q 623 3 683 4 q 525 0 563 3 l 531 28 q 604 39 578 31 q 646 72 631 47 q 674 147 661 97 l 857 836 m 311 147 q 300 72 299 97 q 324 39 301 47 q 393 28 346 31 l 388 0 q 290 3 349 3 q 169 4 231 4 q 40 3 100 4 q -57 0 -19 3 l -50 28 q 22 39 -4 31 q 63 72 47 47 q 90 147 78 97 l 274 836 q 285 912 288 888 q 260 945 282 936 q 192 956 239 954 l 199 983 q 294 981 233 982 q 425 979 356 979 q 544 981 486 979 q 644 983 601 982 l 638 956 q 564 945 590 954 q 523 912 538 936 q 494 836 508 888 l 311 147 m 807 1219 q 946 1264 867 1242 q 1108 1301 1025 1286 l 1115 1282 q 899 1188 999 1247 q 739 1067 799 1129 l 714 1067 q 642 1192 685 1140 q 521 1282 599 1244 l 526 1301 q 642 1277 593 1290 q 730 1249 690 1264 q 807 1219 769 1235 z "},"Ĥ":{"ha":1125,"x_min":-57,"x_max":1228,"o":"m 332 481 l 342 508 l 832 508 l 821 481 l 332 481 m 857 836 q 869 912 871 888 q 844 945 867 936 q 775 956 822 954 l 782 983 q 879 981 819 982 q 999 979 939 979 q 1128 981 1067 979 q 1228 983 1189 982 l 1221 956 q 1147 945 1174 954 q 1106 912 1121 936 q 1078 836 1092 888 l 894 147 q 883 72 882 97 q 907 39 885 47 q 976 28 929 31 l 971 0 q 872 3 933 3 q 743 4 811 4 q 623 3 683 4 q 525 0 563 3 l 531 28 q 604 39 578 31 q 646 72 631 47 q 674 147 661 97 l 857 836 m 311 147 q 300 72 299 97 q 324 39 301 47 q 393 28 346 31 l 388 0 q 290 3 349 3 q 169 4 231 4 q 40 3 100 4 q -57 0 -19 3 l -50 28 q 22 39 -4 31 q 63 72 47 47 q 90 147 78 97 l 274 836 q 285 912 288 888 q 260 945 282 936 q 192 956 239 954 l 199 983 q 294 981 233 982 q 425 979 356 979 q 544 981 486 979 q 644 983 601 982 l 638 956 q 564 945 590 954 q 523 912 538 936 q 494 836 508 888 l 311 147 m 726 1153 q 587 1108 667 1131 q 424 1071 507 1086 l 417 1090 q 633 1185 533 1126 q 793 1306 733 1243 l 818 1306 q 892 1181 849 1233 q 1011 1090 935 1128 l 1006 1071 q 890 1095 939 1082 q 803 1123 842 1108 q 726 1153 764 1138 z "},"I":{"ha":542,"x_min":-57,"x_max":644,"o":"m 311 147 q 300 72 299 97 q 324 39 301 47 q 393 28 346 31 l 388 0 q 285 3 347 3 q 161 4 224 4 q 37 3 94 4 q -57 0 -21 3 l -50 28 q 22 39 -4 31 q 63 72 47 47 q 90 147 78 97 l 274 836 q 285 912 288 888 q 260 945 282 936 q 192 956 239 954 l 199 983 q 290 981 232 982 q 417 979 349 979 q 540 981 479 979 q 644 983 600 982 l 638 956 q 564 945 590 954 q 523 912 538 936 q 494 836 508 888 l 311 147 z "},"Ĳ":{"ha":1175,"x_min":22,"x_max":1328,"o":"m 1150 508 q 1147 494 1150 508 q 1144 481 1144 481 l 607 481 q 610 494 607 481 q 613 508 613 508 l 1150 508 m 438 672 q 555 685 507 672 q 647 724 603 699 l 658 700 q 557 658 611 674 q 429 643 503 643 q 320 654 372 643 q 227 688 268 665 q 163 749 186 711 q 139 839 139 786 q 167 937 139 894 q 249 1003 194 979 q 379 1026 303 1026 q 507 1012 451 1026 q 611 977 563 997 q 707 936 660 957 q 808 901 754 915 q 931 886 863 886 q 1022 892 975 886 q 1115 910 1068 899 q 1206 940 1161 922 q 1263 1008 1235 985 q 1311 1014 1290 1032 q 1310 976 1328 1000 q 1218 925 1292 953 q 1117 801 1158 872 q 1045 642 1075 731 q 989 444 1015 553 l 904 90 q 833 -84 882 -4 q 701 -212 783 -164 q 497 -261 619 -261 q 399 -251 443 -261 q 329 -217 356 -240 q 301 -157 303 -194 q 331 -82 301 -112 q 418 -51 361 -51 q 494 -73 463 -51 q 526 -135 526 -94 q 507 -193 528 -168 q 451 -233 486 -218 q 471 -237 461 -236 q 490 -237 481 -237 q 560 -214 532 -237 q 609 -146 589 -190 q 646 -40 629 -101 q 682 97 663 22 l 757 382 q 825 564 785 488 q 918 699 865 640 q 1036 807 971 757 q 1178 910 1101 857 q 1069 872 1117 893 q 978 831 1022 850 q 888 799 935 811 q 785 788 842 788 q 669 798 722 788 q 565 822 615 808 q 463 847 515 836 q 350 857 410 857 q 269 838 299 857 q 239 779 239 819 q 265 720 239 744 q 335 684 290 696 q 438 672 381 672 m 326 668 l 547 668 l 390 147 q 376 74 375 99 q 401 40 378 49 q 472 28 424 31 l 467 0 q 365 3 426 3 q 240 4 303 4 q 116 3 174 4 q 22 0 58 3 l 29 28 q 99 39 75 31 q 139 72 124 47 q 169 147 154 97 l 326 668 z "},"Í":{"ha":542,"x_min":-57,"x_max":825,"o":"m 311 147 q 300 72 299 97 q 324 39 301 47 q 393 28 346 31 l 388 0 q 285 3 347 3 q 161 4 224 4 q 37 3 94 4 q -57 0 -21 3 l -50 28 q 22 39 -4 31 q 63 72 47 47 q 90 147 78 97 l 274 836 q 285 912 288 888 q 260 945 282 936 q 192 956 239 954 l 199 983 q 290 981 232 982 q 417 979 349 979 q 540 981 479 979 q 644 983 600 982 l 638 956 q 564 945 590 954 q 523 912 538 936 q 494 836 508 888 l 311 147 m 418 1089 q 532 1186 488 1143 q 610 1260 576 1229 q 682 1313 644 1292 q 726 1327 701 1324 q 774 1323 751 1331 q 808 1290 797 1315 q 806 1230 825 1258 q 753 1183 788 1201 q 673 1151 718 1164 q 568 1121 628 1138 q 428 1072 508 1104 l 418 1089 z "},"Ĭ":{"ha":542,"x_min":-57,"x_max":800,"o":"m 311 147 q 300 72 299 97 q 324 39 301 47 q 393 28 346 31 l 388 0 q 285 3 347 3 q 161 4 224 4 q 37 3 94 4 q -57 0 -21 3 l -50 28 q 22 39 -4 31 q 63 72 47 47 q 90 147 78 97 l 274 836 q 285 912 288 888 q 260 945 282 936 q 192 956 239 954 l 199 983 q 290 981 232 982 q 417 979 349 979 q 540 981 479 979 q 644 983 600 982 l 638 956 q 564 945 590 954 q 523 912 538 936 q 494 836 508 888 l 311 147 m 468 1207 q 638 1227 557 1207 q 785 1286 718 1247 l 800 1272 q 706 1176 764 1222 q 578 1100 647 1129 q 440 1071 510 1071 q 331 1097 376 1071 q 258 1169 285 1124 q 221 1271 231 1215 l 242 1281 q 334 1224 282 1242 q 468 1207 386 1207 z "},"Î":{"ha":542,"x_min":-57,"x_max":732,"o":"m 311 147 q 300 72 299 97 q 324 39 301 47 q 393 28 346 31 l 388 0 q 285 3 347 3 q 161 4 224 4 q 37 3 94 4 q -57 0 -21 3 l -50 28 q 22 39 -4 31 q 63 72 47 47 q 90 147 78 97 l 274 836 q 285 912 288 888 q 260 945 282 936 q 192 956 239 954 l 199 983 q 290 981 232 982 q 417 979 349 979 q 540 981 479 979 q 644 983 600 982 l 638 956 q 564 945 590 954 q 523 912 538 936 q 494 836 508 888 l 311 147 m 447 1153 q 308 1108 388 1131 q 144 1071 228 1086 l 138 1090 q 354 1185 254 1126 q 514 1306 454 1243 l 539 1306 q 613 1181 569 1233 q 732 1090 656 1128 l 726 1071 q 611 1095 660 1082 q 524 1123 563 1108 q 447 1153 485 1138 z "},"Ï":{"ha":542,"x_min":-57,"x_max":736,"o":"m 311 147 q 300 72 299 97 q 324 39 301 47 q 393 28 346 31 l 388 0 q 285 3 347 3 q 161 4 224 4 q 37 3 94 4 q -57 0 -21 3 l -50 28 q 22 39 -4 31 q 63 72 47 47 q 90 147 78 97 l 274 836 q 285 912 288 888 q 260 945 282 936 q 192 956 239 954 l 199 983 q 290 981 232 982 q 417 979 349 979 q 540 981 479 979 q 644 983 600 982 l 638 956 q 564 945 590 954 q 523 912 538 936 q 494 836 508 888 l 311 147 m 194 1156 q 231 1242 194 1211 q 314 1274 268 1274 q 382 1247 360 1274 q 404 1181 404 1221 q 387 1117 404 1143 q 342 1077 369 1090 q 283 1064 315 1064 q 217 1090 239 1064 q 194 1156 194 1115 m 528 1156 q 564 1242 528 1211 q 647 1274 600 1274 q 715 1247 692 1274 q 738 1181 738 1221 q 720 1117 738 1143 q 675 1077 703 1090 q 617 1064 647 1064 q 549 1090 571 1064 q 528 1156 528 1115 z "},"İ":{"ha":542,"x_min":-57,"x_max":644,"o":"m 311 147 q 300 72 299 97 q 324 39 301 47 q 393 28 346 31 l 388 0 q 285 3 347 3 q 161 4 224 4 q 37 3 94 4 q -57 0 -21 3 l -50 28 q 22 39 -4 31 q 63 72 47 47 q 90 147 78 97 l 274 836 q 285 912 288 888 q 260 945 282 936 q 192 956 239 954 l 199 983 q 290 981 232 982 q 417 979 349 979 q 540 981 479 979 q 644 983 600 982 l 638 956 q 564 945 590 954 q 523 912 538 936 q 494 836 508 888 l 311 147 m 349 1147 q 390 1241 349 1206 q 490 1276 431 1276 q 567 1254 540 1276 q 593 1190 593 1232 q 551 1099 593 1136 q 449 1063 510 1063 q 375 1085 401 1063 q 349 1147 349 1108 z "},"Ị":{"ha":542,"x_min":-57,"x_max":644,"o":"m 311 147 q 300 72 299 97 q 324 39 301 47 q 393 28 346 31 l 388 0 q 285 3 347 3 q 161 4 224 4 q 37 3 94 4 q -57 0 -21 3 l -50 28 q 22 39 -4 31 q 63 72 47 47 q 90 147 78 97 l 274 836 q 285 912 288 888 q 260 945 282 936 q 192 956 239 954 l 199 983 q 290 981 232 982 q 417 979 349 979 q 540 981 479 979 q 644 983 600 982 l 638 956 q 564 945 590 954 q 523 912 538 936 q 494 836 508 888 l 311 147 m 118 -260 q 51 -241 75 -260 q 28 -187 28 -222 q 61 -106 28 -136 q 150 -76 94 -76 q 217 -95 193 -76 q 240 -149 240 -114 q 206 -231 240 -201 q 118 -260 171 -260 z "},"Ì":{"ha":542,"x_min":-57,"x_max":644,"o":"m 311 147 q 300 72 299 97 q 324 39 301 47 q 393 28 346 31 l 388 0 q 285 3 347 3 q 161 4 224 4 q 37 3 94 4 q -57 0 -21 3 l -50 28 q 22 39 -4 31 q 63 72 47 47 q 90 147 78 97 l 274 836 q 285 912 288 888 q 260 945 282 936 q 192 956 239 954 l 199 983 q 290 981 232 982 q 417 979 349 979 q 540 981 479 979 q 644 983 600 982 l 638 956 q 564 945 590 954 q 523 912 538 936 q 494 836 508 888 l 311 147 m 504 1071 q 385 1121 433 1104 q 302 1149 336 1138 q 239 1179 268 1161 q 201 1226 213 1197 q 206 1285 189 1256 q 259 1317 224 1315 q 321 1303 294 1319 q 372 1256 350 1286 q 426 1185 393 1226 q 515 1086 458 1143 l 504 1071 z "},"Ỉ":{"ha":542,"x_min":-57,"x_max":676,"o":"m 311 147 q 300 72 299 97 q 324 39 301 47 q 393 28 346 31 l 388 0 q 285 3 347 3 q 161 4 224 4 q 37 3 94 4 q -57 0 -21 3 l -50 28 q 22 39 -4 31 q 63 72 47 47 q 90 147 78 97 l 274 836 q 285 912 288 888 q 260 945 282 936 q 192 956 239 954 l 199 983 q 290 981 232 982 q 417 979 349 979 q 540 981 479 979 q 644 983 600 982 l 638 956 q 564 945 590 954 q 523 912 538 936 q 494 836 508 888 l 311 147 m 429 1032 q 453 1101 435 1075 q 494 1144 472 1126 q 531 1185 515 1163 q 547 1247 547 1208 q 525 1310 547 1292 q 464 1329 503 1329 q 428 1325 444 1329 q 401 1314 411 1321 q 437 1288 424 1304 q 450 1244 450 1271 q 426 1190 450 1211 q 365 1168 401 1168 q 315 1185 335 1168 q 296 1232 296 1203 q 319 1289 296 1265 q 376 1328 343 1313 q 436 1348 401 1340 q 514 1356 471 1356 q 630 1332 583 1356 q 676 1254 676 1308 q 656 1196 676 1217 q 605 1160 636 1175 q 542 1131 574 1146 q 486 1094 510 1117 q 457 1032 463 1072 l 429 1032 z "},"Ī":{"ha":542,"x_min":-57,"x_max":725,"o":"m 311 147 q 300 72 299 97 q 324 39 301 47 q 393 28 346 31 l 388 0 q 285 3 347 3 q 161 4 224 4 q 37 3 94 4 q -57 0 -21 3 l -50 28 q 22 39 -4 31 q 63 72 47 47 q 90 147 78 97 l 274 836 q 285 912 288 888 q 260 945 282 936 q 192 956 239 954 l 199 983 q 290 981 232 982 q 417 979 349 979 q 540 981 479 979 q 644 983 600 982 l 638 956 q 564 945 590 954 q 523 912 538 936 q 494 836 508 888 l 311 147 m 725 1172 l 717 1138 l 161 1138 l 169 1172 l 725 1172 z "},"Į":{"ha":542,"x_min":-57,"x_max":644,"o":"m 311 147 q 300 72 299 97 q 324 39 301 47 q 393 28 346 31 l 388 0 q 285 3 347 3 q 161 4 224 4 q 37 3 94 4 q -57 0 -21 3 l -50 28 q 22 39 -4 31 q 63 72 47 47 q 90 147 78 97 l 274 836 q 285 912 288 888 q 260 945 282 936 q 192 956 239 954 l 199 983 q 290 981 232 982 q 417 979 349 979 q 540 981 479 979 q 644 983 600 982 l 638 956 q 564 945 590 954 q 523 912 538 936 q 494 836 508 888 l 311 147 m 382 4 q 308 -35 342 -11 q 256 -89 275 -60 q 236 -150 236 -118 q 282 -192 236 -192 q 332 -183 304 -192 q 383 -161 360 -175 l 399 -185 q 299 -243 349 -225 q 197 -261 249 -261 q 110 -239 142 -261 q 79 -178 79 -217 q 119 -98 79 -133 q 221 -37 160 -62 q 346 4 282 -11 l 382 4 z "},"Ĩ":{"ha":542,"x_min":-57,"x_max":792,"o":"m 311 147 q 300 72 299 97 q 324 39 301 47 q 393 28 346 31 l 388 0 q 285 3 347 3 q 161 4 224 4 q 37 3 94 4 q -57 0 -21 3 l -50 28 q 22 39 -4 31 q 63 72 47 47 q 90 147 78 97 l 274 836 q 285 912 288 888 q 260 945 282 936 q 192 956 239 954 l 199 983 q 290 981 232 982 q 417 979 349 979 q 540 981 479 979 q 644 983 600 982 l 638 956 q 564 945 590 954 q 523 912 538 936 q 494 836 508 888 l 311 147 m 397 1288 q 483 1272 449 1288 q 542 1237 517 1257 q 595 1201 568 1217 q 661 1186 622 1186 q 717 1205 690 1186 q 768 1267 743 1224 l 793 1260 q 690 1112 753 1157 q 563 1067 626 1067 q 477 1082 511 1067 q 417 1117 443 1097 q 365 1153 392 1138 q 299 1168 338 1168 q 244 1150 269 1168 q 192 1088 218 1132 l 167 1094 q 269 1242 206 1197 q 397 1288 333 1288 z "},"J":{"ha":949,"x_min":38,"x_max":1101,"o":"m 890 508 l 886 481 l 349 481 l 353 508 l 890 508 m 597 788 q 515 798 554 788 q 441 822 476 808 q 371 847 406 836 q 300 857 336 857 q 238 838 261 857 q 215 778 215 818 q 253 706 217 733 q 372 671 290 679 q 370 658 372 671 q 368 644 368 644 q 245 673 300 650 q 159 738 190 696 q 126 842 128 781 q 175 974 125 922 q 324 1026 225 1026 q 419 1012 378 1026 q 497 977 461 997 q 570 936 533 957 q 649 901 607 915 q 744 886 690 886 q 861 900 800 886 q 979 940 922 914 q 1036 1008 1008 985 q 1085 1014 1064 1032 q 1083 976 1101 1000 q 992 925 1065 953 q 832 717 893 846 q 729 426 771 588 l 643 90 q 569 -85 619 -4 q 437 -213 519 -165 q 232 -261 354 -261 q 134 -251 178 -261 q 64 -217 90 -240 q 38 -157 38 -194 q 68 -82 38 -112 q 154 -51 99 -51 q 231 -73 200 -51 q 263 -135 261 -94 q 242 -193 263 -168 q 186 -233 222 -218 q 206 -237 196 -236 q 225 -237 215 -237 q 295 -214 267 -237 q 344 -146 324 -190 q 384 -40 365 -101 q 422 97 403 22 l 497 364 q 569 549 525 469 q 672 690 614 628 q 799 804 729 751 q 950 910 869 857 q 854 872 897 893 q 772 831 811 850 q 690 799 732 811 q 597 788 649 788 z "},"Ĵ":{"ha":949,"x_min":38,"x_max":1101,"o":"m 890 508 l 886 481 l 349 481 l 353 508 l 890 508 m 597 788 q 515 798 554 788 q 441 822 476 808 q 371 847 406 836 q 300 857 336 857 q 238 838 261 857 q 215 778 215 818 q 253 706 217 733 q 372 671 290 679 q 370 658 372 671 q 368 644 368 644 q 245 673 300 650 q 159 738 190 696 q 126 842 128 781 q 175 974 125 922 q 324 1026 225 1026 q 419 1012 378 1026 q 497 977 461 997 q 570 936 533 957 q 649 901 607 915 q 744 886 690 886 q 861 900 800 886 q 979 940 922 914 q 1036 1008 1008 985 q 1085 1014 1064 1032 q 1083 976 1101 1000 q 992 925 1065 953 q 832 717 893 846 q 729 426 771 588 l 643 90 q 569 -85 619 -4 q 437 -213 519 -165 q 232 -261 354 -261 q 134 -251 178 -261 q 64 -217 90 -240 q 38 -157 38 -194 q 68 -82 38 -112 q 154 -51 99 -51 q 231 -73 200 -51 q 263 -135 261 -94 q 242 -193 263 -168 q 186 -233 222 -218 q 206 -237 196 -236 q 225 -237 215 -237 q 295 -214 267 -237 q 344 -146 324 -190 q 384 -40 365 -101 q 422 97 403 22 l 497 364 q 569 549 525 469 q 672 690 614 628 q 799 804 729 751 q 950 910 869 857 q 854 872 897 893 q 772 831 811 850 q 690 799 732 811 q 597 788 649 788 m 740 1153 q 601 1108 681 1131 q 438 1071 521 1086 l 431 1090 q 647 1185 547 1126 q 807 1306 747 1243 l 832 1306 q 906 1181 863 1233 q 1025 1090 949 1128 l 1019 1071 q 904 1095 953 1082 q 817 1123 856 1108 q 740 1153 778 1138 z "},"K":{"ha":1028,"x_min":-57,"x_max":1078,"o":"m 311 147 q 300 72 299 97 q 324 39 301 47 q 393 28 346 31 l 388 0 q 290 3 349 3 q 169 4 231 4 q 40 3 100 4 q -57 0 -19 3 l -50 28 q 22 39 -4 31 q 63 72 47 47 q 90 147 78 97 l 274 836 q 285 912 288 888 q 260 945 282 936 q 192 956 239 954 l 199 983 q 294 981 233 982 q 425 979 356 979 q 544 981 486 979 q 644 983 601 982 l 638 956 q 564 945 590 954 q 523 912 538 936 q 494 836 508 888 l 311 147 m 815 82 q 861 103 843 82 q 893 165 879 125 l 917 236 l 944 236 l 908 129 q 833 16 882 51 q 722 -19 783 -19 q 593 28 633 -19 q 564 156 553 76 l 590 350 q 593 430 596 400 q 578 477 590 460 q 546 507 567 494 l 549 521 q 675 503 624 517 q 755 462 726 489 q 793 390 783 435 q 796 279 803 344 l 781 133 q 786 97 778 111 q 815 82 794 82 m 565 500 q 463 485 490 481 q 439 513 436 489 q 468 540 443 535 q 565 525 493 544 l 565 500 m 868 946 q 826 876 843 919 q 794 784 808 833 q 761 686 779 735 q 716 598 743 638 q 649 534 689 558 q 547 511 608 510 l 550 525 q 658 568 618 532 q 721 657 697 604 q 760 769 744 710 q 795 879 776 828 q 847 963 814 931 q 897 995 871 988 q 946 1003 922 1003 q 1043 967 1008 1003 q 1076 876 1078 932 q 1063 815 1076 846 q 1021 763 1049 783 q 950 742 993 742 q 884 766 911 742 q 858 835 857 790 q 886 913 858 875 q 961 972 914 951 q 952 976 958 975 q 939 976 946 976 q 897 969 913 976 q 868 946 881 961 z "},"Ǩ":{"ha":1028,"x_min":-57,"x_max":1078,"o":"m 311 147 q 300 72 299 97 q 324 39 301 47 q 393 28 346 31 l 388 0 q 290 3 349 3 q 169 4 231 4 q 40 3 100 4 q -57 0 -19 3 l -50 28 q 22 39 -4 31 q 63 72 47 47 q 90 147 78 97 l 274 836 q 285 912 288 888 q 260 945 282 936 q 192 956 239 954 l 199 983 q 294 981 233 982 q 425 979 356 979 q 544 981 486 979 q 644 983 601 982 l 638 956 q 564 945 590 954 q 523 912 538 936 q 494 836 508 888 l 311 147 m 815 82 q 861 103 843 82 q 893 165 879 125 l 917 236 l 944 236 l 908 129 q 833 16 882 51 q 722 -19 783 -19 q 593 28 633 -19 q 564 156 553 76 l 590 350 q 593 430 596 400 q 578 477 590 460 q 546 507 567 494 l 549 521 q 675 503 624 517 q 755 462 726 489 q 793 390 783 435 q 796 279 803 344 l 781 133 q 786 97 778 111 q 815 82 794 82 m 565 500 q 463 485 490 481 q 439 513 436 489 q 468 540 443 535 q 565 525 493 544 l 565 500 m 868 946 q 826 876 843 919 q 794 784 808 833 q 761 686 779 735 q 716 598 743 638 q 649 534 689 558 q 547 511 608 510 l 550 525 q 658 568 618 532 q 721 657 697 604 q 760 769 744 710 q 795 879 776 828 q 847 963 814 931 q 897 995 871 988 q 946 1003 922 1003 q 1043 967 1008 1003 q 1076 876 1078 932 q 1063 815 1076 846 q 1021 763 1049 783 q 950 742 993 742 q 884 766 911 742 q 858 835 857 790 q 886 913 858 875 q 961 972 914 951 q 952 976 958 975 q 939 976 946 976 q 897 969 913 976 q 868 946 881 961 m 726 1219 q 865 1264 786 1242 q 1028 1301 944 1286 l 1035 1282 q 818 1188 918 1247 q 658 1067 718 1129 l 633 1067 q 561 1192 604 1140 q 440 1282 518 1244 l 446 1301 q 561 1277 513 1290 q 649 1249 610 1264 q 726 1219 689 1235 z "},"Ķ":{"ha":1028,"x_min":-57,"x_max":1078,"o":"m 311 147 q 300 72 299 97 q 324 39 301 47 q 393 28 346 31 l 388 0 q 290 3 349 3 q 169 4 231 4 q 40 3 100 4 q -57 0 -19 3 l -50 28 q 22 39 -4 31 q 63 72 47 47 q 90 147 78 97 l 274 836 q 285 912 288 888 q 260 945 282 936 q 192 956 239 954 l 199 983 q 294 981 233 982 q 425 979 356 979 q 544 981 486 979 q 644 983 601 982 l 638 956 q 564 945 590 954 q 523 912 538 936 q 494 836 508 888 l 311 147 m 815 82 q 861 103 843 82 q 893 165 879 125 l 917 236 l 944 236 l 908 129 q 833 16 882 51 q 722 -19 783 -19 q 593 28 633 -19 q 564 156 553 76 l 590 350 q 593 430 596 400 q 578 477 590 460 q 546 507 567 494 l 549 521 q 675 503 624 517 q 755 462 726 489 q 793 390 783 435 q 796 279 803 344 l 781 133 q 786 97 778 111 q 815 82 794 82 m 565 500 q 463 485 490 481 q 439 513 436 489 q 468 540 443 535 q 565 525 493 544 l 565 500 m 868 946 q 826 876 843 919 q 794 784 808 833 q 761 686 779 735 q 716 598 743 638 q 649 534 689 558 q 547 511 608 510 l 550 525 q 658 568 618 532 q 721 657 697 604 q 760 769 744 710 q 795 879 776 828 q 847 963 814 931 q 897 995 871 988 q 946 1003 922 1003 q 1043 967 1008 1003 q 1076 876 1078 932 q 1063 815 1076 846 q 1021 763 1049 783 q 950 742 993 742 q 884 766 911 742 q 858 835 857 790 q 886 913 858 875 q 961 972 914 951 q 952 976 958 975 q 939 976 946 976 q 897 969 913 976 q 868 946 881 961 m 390 -74 q 456 -94 426 -74 q 485 -158 485 -115 q 436 -274 485 -228 q 293 -335 388 -321 l 290 -308 q 381 -282 342 -303 q 428 -228 421 -261 q 393 -244 414 -237 q 349 -251 372 -251 q 288 -234 310 -251 q 265 -183 265 -217 q 301 -106 265 -137 q 390 -74 338 -74 z "},"L":{"ha":840,"x_min":-60,"x_max":781,"o":"m 781 292 q 764 240 772 269 q 747 178 756 211 q 729 102 740 151 q 710 0 718 53 q 551 3 639 3 q 394 4 464 4 q 306 4 360 4 q 189 3 253 4 q 61 2 125 3 q -60 0 -3 1 l -53 28 q 21 39 -6 31 q 62 72 47 47 q 90 147 76 97 l 274 836 q 285 912 288 888 q 260 945 282 936 q 192 956 239 954 l 199 983 q 297 981 235 982 q 428 979 358 979 q 546 981 489 979 q 644 983 603 982 l 638 956 q 564 945 590 954 q 522 912 538 936 q 493 836 507 888 l 310 147 q 299 72 297 97 q 322 40 300 47 q 390 32 343 32 l 446 32 q 563 57 508 32 q 665 139 618 82 q 750 292 713 196 l 781 292 z "},"Ĺ":{"ha":840,"x_min":-60,"x_max":818,"o":"m 781 292 q 764 240 772 269 q 747 178 756 211 q 729 102 740 151 q 710 0 718 53 q 551 3 639 3 q 394 4 464 4 q 306 4 360 4 q 189 3 253 4 q 61 2 125 3 q -60 0 -3 1 l -53 28 q 21 39 -6 31 q 62 72 47 47 q 90 147 76 97 l 274 836 q 285 912 288 888 q 260 945 282 936 q 192 956 239 954 l 199 983 q 297 981 235 982 q 428 979 358 979 q 546 981 489 979 q 644 983 603 982 l 638 956 q 564 945 590 954 q 522 912 538 936 q 493 836 507 888 l 310 147 q 299 72 297 97 q 322 40 300 47 q 390 32 343 32 l 446 32 q 563 57 508 32 q 665 139 618 82 q 750 292 713 196 l 781 292 m 411 1089 q 525 1186 481 1143 q 603 1260 569 1229 q 675 1313 638 1292 q 719 1327 694 1324 q 767 1323 744 1331 q 801 1290 790 1315 q 799 1230 818 1258 q 746 1183 781 1201 q 666 1151 711 1164 q 561 1121 621 1138 q 421 1072 501 1104 l 411 1089 z "},"Ľ":{"ha":840,"x_min":-60,"x_max":885,"o":"m 781 292 q 764 240 772 269 q 747 178 756 211 q 729 102 740 151 q 710 0 718 53 q 551 3 639 3 q 394 4 464 4 q 306 4 360 4 q 189 3 253 4 q 61 2 125 3 q -60 0 -3 1 l -53 28 q 21 39 -6 31 q 62 72 47 47 q 90 147 76 97 l 274 836 q 285 912 288 888 q 260 945 282 936 q 192 956 239 954 l 199 983 q 297 981 235 982 q 428 979 358 979 q 546 981 489 979 q 644 983 603 982 l 638 956 q 564 945 590 954 q 522 912 538 936 q 493 836 507 888 l 310 147 q 299 72 297 97 q 322 40 300 47 q 390 32 343 32 l 446 32 q 563 57 508 32 q 665 139 618 82 q 750 292 713 196 l 781 292 m 643 674 q 707 837 689 771 q 725 928 725 903 q 717 947 725 940 q 688 954 710 954 l 692 983 q 722 983 708 983 q 750 982 736 982 q 827 988 796 982 q 883 999 858 993 q 885 985 885 996 q 826 850 885 933 q 663 668 767 767 l 643 674 z "},"Ļ":{"ha":840,"x_min":-60,"x_max":781,"o":"m 781 292 q 764 240 772 269 q 747 178 756 211 q 729 102 740 151 q 710 0 718 53 q 551 3 639 3 q 394 4 464 4 q 306 4 360 4 q 189 3 253 4 q 61 2 125 3 q -60 0 -3 1 l -53 28 q 21 39 -6 31 q 62 72 47 47 q 90 147 76 97 l 274 836 q 285 912 288 888 q 260 945 282 936 q 192 956 239 954 l 199 983 q 297 981 235 982 q 428 979 358 979 q 546 981 489 979 q 644 983 603 982 l 638 956 q 564 945 590 954 q 522 912 538 936 q 493 836 507 888 l 310 147 q 299 72 297 97 q 322 40 300 47 q 390 32 343 32 l 446 32 q 563 57 508 32 q 665 139 618 82 q 750 292 713 196 l 781 292 m 376 -74 q 442 -94 413 -74 q 471 -158 471 -115 q 422 -274 471 -228 q 279 -335 374 -321 l 276 -308 q 367 -282 328 -303 q 414 -228 407 -261 q 379 -244 400 -237 q 335 -251 358 -251 q 274 -234 296 -251 q 251 -183 251 -217 q 288 -106 251 -137 q 376 -74 324 -74 z "},"Ŀ":{"ha":863,"x_min":-60,"x_max":863,"o":"m 781 292 q 764 240 772 269 q 747 178 756 211 q 729 102 740 151 q 710 0 718 53 q 551 3 639 3 q 394 4 464 4 q 306 4 360 4 q 189 3 253 4 q 61 2 125 3 q -60 0 -3 1 l -53 28 q 21 39 -6 31 q 62 72 47 47 q 90 147 76 97 l 274 836 q 285 912 288 888 q 260 945 282 936 q 192 956 239 954 l 199 983 q 297 981 235 982 q 428 979 358 979 q 546 981 489 979 q 644 983 603 982 l 638 956 q 564 945 590 954 q 522 912 538 936 q 493 836 507 888 l 310 147 q 299 72 297 97 q 322 40 300 47 q 390 32 343 32 l 446 32 q 563 57 508 32 q 665 139 618 82 q 750 292 713 196 l 781 292 m 633 488 q 673 581 633 543 q 768 618 713 618 q 838 596 813 618 q 863 533 863 574 q 844 470 863 500 q 794 422 825 440 q 726 404 764 404 q 658 426 682 404 q 633 488 633 449 z "},"Ł":{"ha":842,"x_min":-57,"x_max":782,"o":"m 263 428 l 718 657 l 710 625 l 254 396 l 263 428 m 257 410 l 22 292 l 31 324 l 265 442 l 257 410 m 782 292 q 765 240 774 269 q 749 178 757 211 q 731 102 742 151 q 713 0 719 53 q 553 3 642 3 q 396 4 465 4 q 308 4 361 4 q 191 3 254 4 q 63 2 128 3 q -57 0 -1 1 l -51 28 q 22 39 -4 31 q 64 72 49 47 q 92 147 79 97 l 275 836 q 287 912 289 888 q 263 945 285 936 q 194 956 242 954 l 201 983 q 299 981 238 982 q 429 979 361 979 q 547 981 490 979 q 646 983 604 982 l 639 956 q 565 945 592 954 q 524 912 539 936 q 496 836 510 888 l 311 147 q 300 72 299 97 q 324 40 301 47 q 392 32 346 32 l 447 32 q 565 57 511 32 q 667 139 619 82 q 751 292 714 196 l 782 292 z "},"M":{"ha":1274,"x_min":-58,"x_max":1376,"o":"m 1044 979 l 1153 979 q 1274 981 1215 979 q 1376 983 1332 982 l 1369 956 q 1296 945 1322 954 q 1255 912 1269 936 q 1226 836 1240 888 l 1043 147 q 1033 72 1031 97 q 1057 39 1035 47 q 1125 28 1079 31 l 1119 0 q 1017 3 1075 3 q 897 4 960 4 q 770 3 831 4 q 675 0 710 3 l 681 28 q 755 39 729 31 q 796 72 781 47 q 824 147 811 97 l 1025 896 l 449 -7 l 418 -7 l 306 846 l 131 179 q 120 101 119 135 q 147 49 121 68 q 235 28 172 31 l 229 0 q 185 2 213 1 q 127 3 157 3 q 74 4 97 4 q 1 3 38 4 q -58 0 -35 3 l -51 28 q 26 49 -3 31 q 71 101 54 68 q 99 179 88 135 l 275 836 q 286 912 289 888 q 262 945 283 936 q 193 956 240 954 l 200 983 q 283 981 232 982 q 390 979 333 979 q 457 981 424 979 q 515 983 490 982 l 594 274 l 1044 979 z "},"N":{"ha":1146,"x_min":-111,"x_max":1296,"o":"m 729 -7 l 376 765 q 376 776 376 765 q 376 801 376 788 q 374 825 375 814 q 374 836 374 836 q 381 912 385 888 q 353 945 378 936 q 275 956 329 954 l 282 983 q 337 981 304 982 q 406 979 369 979 q 518 983 471 979 l 813 308 q 808 285 813 308 q 798 227 804 263 q 786 151 792 192 q 774 74 781 110 q 764 16 768 39 q 760 -7 760 -7 l 729 -7 m 1156 1021 q 1090 1000 1119 1021 q 1039 947 1061 979 q 908 615 975 853 q 760 -7 842 378 l 740 32 q 785 233 761 125 q 835 449 808 340 q 891 656 863 557 q 951 833 919 754 q 1014 958 982 911 q 1076 1022 1040 996 q 1164 1047 1113 1047 q 1262 1013 1228 1047 q 1296 929 1296 978 q 1260 840 1296 876 q 1169 803 1225 803 q 1099 826 1124 803 q 1074 885 1074 849 q 1104 967 1074 932 q 1178 1015 1135 1003 q 1169 1019 1175 1018 q 1156 1021 1163 1021 m 29 -76 q 96 -56 67 -76 q 146 -1 125 -36 q 227 199 186 63 q 310 528 268 335 q 396 951 353 721 l 419 922 q 373 691 397 808 q 324 462 349 574 q 272 254 299 350 q 219 88 246 158 q 168 -15 193 18 q 109 -76 143 -49 q 19 -103 75 -103 q -77 -68 -43 -103 q -111 15 -111 -33 q -75 106 -111 69 q 15 142 -39 142 q 87 119 63 142 q 111 60 111 96 q 81 -22 111 13 q 6 -71 50 -57 q 15 -75 10 -74 q 29 -76 21 -76 z "},"Ń":{"ha":1146,"x_min":-111,"x_max":1296,"o":"m 729 -7 l 376 765 q 376 776 376 765 q 376 801 376 788 q 374 825 375 814 q 374 836 374 836 q 381 912 385 888 q 353 945 378 936 q 275 956 329 954 l 282 983 q 337 981 304 982 q 406 979 369 979 q 518 983 471 979 l 813 308 q 808 285 813 308 q 798 227 804 263 q 786 151 792 192 q 774 74 781 110 q 764 16 768 39 q 760 -7 760 -7 l 729 -7 m 1156 1021 q 1090 1000 1119 1021 q 1039 947 1061 979 q 908 615 975 853 q 760 -7 842 378 l 740 32 q 785 233 761 125 q 835 449 808 340 q 891 656 863 557 q 951 833 919 754 q 1014 958 982 911 q 1076 1022 1040 996 q 1164 1047 1113 1047 q 1262 1013 1228 1047 q 1296 929 1296 978 q 1260 840 1296 876 q 1169 803 1225 803 q 1099 826 1124 803 q 1074 885 1074 849 q 1104 967 1074 932 q 1178 1015 1135 1003 q 1169 1019 1175 1018 q 1156 1021 1163 1021 m 29 -76 q 96 -56 67 -76 q 146 -1 125 -36 q 227 199 186 63 q 310 528 268 335 q 396 951 353 721 l 419 922 q 373 691 397 808 q 324 462 349 574 q 272 254 299 350 q 219 88 246 158 q 168 -15 193 18 q 109 -76 143 -49 q 19 -103 75 -103 q -77 -68 -43 -103 q -111 15 -111 -33 q -75 106 -111 69 q 15 142 -39 142 q 87 119 63 142 q 111 60 111 96 q 81 -22 111 13 q 6 -71 50 -57 q 15 -75 10 -74 q 29 -76 21 -76 m 708 1089 q 822 1186 778 1143 q 901 1260 867 1229 q 972 1313 935 1292 q 1017 1327 992 1324 q 1065 1323 1042 1331 q 1099 1290 1088 1315 q 1097 1230 1115 1258 q 1043 1183 1078 1201 q 963 1151 1008 1164 q 858 1121 918 1138 q 718 1072 799 1104 l 708 1089 z "},"Ň":{"ha":1146,"x_min":-111,"x_max":1296,"o":"m 729 -7 l 376 765 q 376 776 376 765 q 376 801 376 788 q 374 825 375 814 q 374 836 374 836 q 381 912 385 888 q 353 945 378 936 q 275 956 329 954 l 282 983 q 337 981 304 982 q 406 979 369 979 q 518 983 471 979 l 813 308 q 808 285 813 308 q 798 227 804 263 q 786 151 792 192 q 774 74 781 110 q 764 16 768 39 q 760 -7 760 -7 l 729 -7 m 1156 1021 q 1090 1000 1119 1021 q 1039 947 1061 979 q 908 615 975 853 q 760 -7 842 378 l 740 32 q 785 233 761 125 q 835 449 808 340 q 891 656 863 557 q 951 833 919 754 q 1014 958 982 911 q 1076 1022 1040 996 q 1164 1047 1113 1047 q 1262 1013 1228 1047 q 1296 929 1296 978 q 1260 840 1296 876 q 1169 803 1225 803 q 1099 826 1124 803 q 1074 885 1074 849 q 1104 967 1074 932 q 1178 1015 1135 1003 q 1169 1019 1175 1018 q 1156 1021 1163 1021 m 29 -76 q 96 -56 67 -76 q 146 -1 125 -36 q 227 199 186 63 q 310 528 268 335 q 396 951 353 721 l 419 922 q 373 691 397 808 q 324 462 349 574 q 272 254 299 350 q 219 88 246 158 q 168 -15 193 18 q 109 -76 143 -49 q 19 -103 75 -103 q -77 -68 -43 -103 q -111 15 -111 -33 q -75 106 -111 69 q 15 142 -39 142 q 87 119 63 142 q 111 60 111 96 q 81 -22 111 13 q 6 -71 50 -57 q 15 -75 10 -74 q 29 -76 21 -76 m 818 1219 q 957 1264 878 1242 q 1119 1301 1036 1286 l 1126 1282 q 910 1188 1010 1247 q 750 1067 810 1129 l 725 1067 q 653 1192 696 1140 q 532 1282 610 1244 l 538 1301 q 653 1277 604 1290 q 741 1249 701 1264 q 818 1219 781 1235 z "},"Ņ":{"ha":1146,"x_min":-111,"x_max":1296,"o":"m 729 -7 l 376 765 q 376 776 376 765 q 376 801 376 788 q 374 825 375 814 q 374 836 374 836 q 381 912 385 888 q 353 945 378 936 q 275 956 329 954 l 282 983 q 337 981 304 982 q 406 979 369 979 q 518 983 471 979 l 813 308 q 808 285 813 308 q 798 227 804 263 q 786 151 792 192 q 774 74 781 110 q 764 16 768 39 q 760 -7 760 -7 l 729 -7 m 1156 1021 q 1090 1000 1119 1021 q 1039 947 1061 979 q 908 615 975 853 q 760 -7 842 378 l 740 32 q 785 233 761 125 q 835 449 808 340 q 891 656 863 557 q 951 833 919 754 q 1014 958 982 911 q 1076 1022 1040 996 q 1164 1047 1113 1047 q 1262 1013 1228 1047 q 1296 929 1296 978 q 1260 840 1296 876 q 1169 803 1225 803 q 1099 826 1124 803 q 1074 885 1074 849 q 1104 967 1074 932 q 1178 1015 1135 1003 q 1169 1019 1175 1018 q 1156 1021 1163 1021 m 29 -76 q 96 -56 67 -76 q 146 -1 125 -36 q 227 199 186 63 q 310 528 268 335 q 396 951 353 721 l 419 922 q 373 691 397 808 q 324 462 349 574 q 272 254 299 350 q 219 88 246 158 q 168 -15 193 18 q 109 -76 143 -49 q 19 -103 75 -103 q -77 -68 -43 -103 q -111 15 -111 -33 q -75 106 -111 69 q 15 142 -39 142 q 87 119 63 142 q 111 60 111 96 q 81 -22 111 13 q 6 -71 50 -57 q 15 -75 10 -74 q 29 -76 21 -76 m 429 -74 q 494 -94 465 -74 q 524 -158 524 -115 q 475 -274 524 -228 q 332 -335 426 -321 l 329 -308 q 420 -282 381 -303 q 467 -228 460 -261 q 432 -244 453 -237 q 388 -251 411 -251 q 326 -234 349 -251 q 304 -183 304 -217 q 340 -106 304 -137 q 429 -74 376 -74 z "},"Ŋ":{"ha":1001,"x_min":-56,"x_max":1115,"o":"m 933 831 q 945 908 947 882 q 920 944 943 933 q 847 956 897 954 l 854 983 q 915 981 878 982 q 988 979 953 979 q 1058 981 1024 979 q 1115 983 1092 982 l 1108 956 q 1035 944 1061 954 q 994 908 1008 933 q 965 831 979 882 l 754 33 l 714 -10 l 286 758 l 125 153 q 114 76 113 103 q 140 40 115 50 q 213 28 164 31 l 206 0 q 147 3 182 3 q 75 4 111 4 q 4 3 40 4 q -56 0 -32 3 l -50 28 q 25 40 -1 31 q 67 76 51 50 q 94 153 82 103 l 276 836 q 287 911 290 886 q 260 945 283 936 q 185 956 236 954 l 192 983 q 247 981 214 982 q 315 979 279 979 q 428 983 381 979 l 797 310 l 933 831 m 756 38 q 706 -120 736 -53 q 630 -224 676 -187 q 511 -261 583 -261 q 433 -251 472 -261 q 369 -217 394 -240 q 344 -157 344 -194 q 376 -82 344 -112 q 461 -51 407 -51 q 538 -73 507 -51 q 569 -135 568 -94 q 548 -193 569 -168 q 492 -233 526 -218 q 505 -237 497 -236 q 521 -237 513 -237 q 606 -211 571 -237 q 663 -142 640 -185 q 701 -47 686 -99 q 728 53 717 4 l 756 38 z "},"Ñ":{"ha":1146,"x_min":-111,"x_max":1296,"o":"m 729 -7 l 376 765 q 376 776 376 765 q 376 801 376 788 q 374 825 375 814 q 374 836 374 836 q 381 912 385 888 q 353 945 378 936 q 275 956 329 954 l 282 983 q 337 981 304 982 q 406 979 369 979 q 518 983 471 979 l 813 308 q 808 285 813 308 q 798 227 804 263 q 786 151 792 192 q 774 74 781 110 q 764 16 768 39 q 760 -7 760 -7 l 729 -7 m 1156 1021 q 1090 1000 1119 1021 q 1039 947 1061 979 q 908 615 975 853 q 760 -7 842 378 l 740 32 q 785 233 761 125 q 835 449 808 340 q 891 656 863 557 q 951 833 919 754 q 1014 958 982 911 q 1076 1022 1040 996 q 1164 1047 1113 1047 q 1262 1013 1228 1047 q 1296 929 1296 978 q 1260 840 1296 876 q 1169 803 1225 803 q 1099 826 1124 803 q 1074 885 1074 849 q 1104 967 1074 932 q 1178 1015 1135 1003 q 1169 1019 1175 1018 q 1156 1021 1163 1021 m 29 -76 q 96 -56 67 -76 q 146 -1 125 -36 q 227 199 186 63 q 310 528 268 335 q 396 951 353 721 l 419 922 q 373 691 397 808 q 324 462 349 574 q 272 254 299 350 q 219 88 246 158 q 168 -15 193 18 q 109 -76 143 -49 q 19 -103 75 -103 q -77 -68 -43 -103 q -111 15 -111 -33 q -75 106 -111 69 q 15 142 -39 142 q 87 119 63 142 q 111 60 111 96 q 81 -22 111 13 q 6 -71 50 -57 q 15 -75 10 -74 q 29 -76 21 -76 m 688 1288 q 773 1272 739 1288 q 833 1237 807 1257 q 885 1201 858 1217 q 951 1186 913 1186 q 1007 1205 981 1186 q 1058 1267 1033 1224 l 1083 1260 q 980 1112 1043 1157 q 853 1067 917 1067 q 767 1082 801 1067 q 708 1117 733 1097 q 655 1153 682 1138 q 589 1168 628 1168 q 534 1150 560 1168 q 482 1088 508 1132 l 457 1094 q 560 1242 496 1197 q 688 1288 624 1288 z "},"O":{"ha":1079,"x_min":58,"x_max":1065,"o":"m 675 978 q 561 940 617 978 q 458 834 506 901 q 374 680 410 767 q 317 494 338 593 q 297 296 297 396 q 340 83 297 160 q 447 6 382 6 q 561 44 506 6 q 665 149 617 82 q 749 303 713 217 q 805 489 785 390 q 825 688 825 588 q 783 901 825 824 q 675 978 740 978 m 58 314 q 88 503 58 406 q 171 689 117 600 q 302 849 225 778 q 476 961 379 919 q 688 1003 574 1003 q 965 916 864 1003 q 1065 668 1065 829 q 1036 480 1065 576 q 952 294 1007 383 q 819 135 897 206 q 645 22 742 64 q 435 -19 549 -19 q 158 67 258 -19 q 58 314 58 154 z "},"Ó":{"ha":1079,"x_min":58,"x_max":1069,"o":"m 675 978 q 561 940 617 978 q 458 834 506 901 q 374 680 410 767 q 317 494 338 593 q 297 296 297 396 q 340 83 297 160 q 447 6 382 6 q 561 44 506 6 q 665 149 617 82 q 749 303 713 217 q 805 489 785 390 q 825 688 825 588 q 783 901 825 824 q 675 978 740 978 m 58 314 q 88 503 58 406 q 171 689 117 600 q 302 849 225 778 q 476 961 379 919 q 688 1003 574 1003 q 965 916 864 1003 q 1065 668 1065 829 q 1036 480 1065 576 q 952 294 1007 383 q 819 135 897 206 q 645 22 742 64 q 435 -19 549 -19 q 158 67 258 -19 q 58 314 58 154 m 663 1089 q 776 1186 732 1143 q 855 1260 821 1229 q 926 1313 889 1292 q 971 1327 946 1324 q 1019 1323 996 1331 q 1053 1290 1042 1315 q 1051 1230 1069 1258 q 997 1183 1032 1201 q 917 1151 963 1164 q 813 1121 872 1138 q 672 1072 753 1104 l 663 1089 z "},"Ŏ":{"ha":1079,"x_min":58,"x_max":1065,"o":"m 675 978 q 561 940 617 978 q 458 834 506 901 q 374 680 410 767 q 317 494 338 593 q 297 296 297 396 q 340 83 297 160 q 447 6 382 6 q 561 44 506 6 q 665 149 617 82 q 749 303 713 217 q 805 489 785 390 q 825 688 825 588 q 783 901 825 824 q 675 978 740 978 m 58 314 q 88 503 58 406 q 171 689 117 600 q 302 849 225 778 q 476 961 379 919 q 688 1003 574 1003 q 965 916 864 1003 q 1065 668 1065 829 q 1036 480 1065 576 q 952 294 1007 383 q 819 135 897 206 q 645 22 742 64 q 435 -19 549 -19 q 158 67 258 -19 q 58 314 58 154 m 713 1207 q 882 1227 801 1207 q 1029 1286 963 1247 l 1044 1272 q 950 1176 1008 1222 q 823 1100 892 1129 q 685 1071 754 1071 q 575 1097 621 1071 q 502 1169 529 1124 q 465 1271 475 1215 l 486 1281 q 578 1224 526 1242 q 713 1207 631 1207 z "},"Ô":{"ha":1079,"x_min":58,"x_max":1065,"o":"m 675 978 q 561 940 617 978 q 458 834 506 901 q 374 680 410 767 q 317 494 338 593 q 297 296 297 396 q 340 83 297 160 q 447 6 382 6 q 561 44 506 6 q 665 149 617 82 q 749 303 713 217 q 805 489 785 390 q 825 688 825 588 q 783 901 825 824 q 675 978 740 978 m 58 314 q 88 503 58 406 q 171 689 117 600 q 302 849 225 778 q 476 961 379 919 q 688 1003 574 1003 q 965 916 864 1003 q 1065 668 1065 829 q 1036 480 1065 576 q 952 294 1007 383 q 819 135 897 206 q 645 22 742 64 q 435 -19 549 -19 q 158 67 258 -19 q 58 314 58 154 m 692 1153 q 552 1108 632 1131 q 389 1071 472 1086 l 382 1090 q 599 1185 499 1126 q 758 1306 699 1243 l 783 1306 q 857 1181 814 1233 q 976 1090 900 1128 l 971 1071 q 856 1095 904 1082 q 768 1123 807 1108 q 692 1153 729 1138 z "},"Ố":{"ha":1079,"x_min":58,"x_max":1142,"o":"m 675 978 q 561 940 617 978 q 458 834 506 901 q 374 680 410 767 q 317 494 338 593 q 297 296 297 396 q 340 83 297 160 q 447 6 382 6 q 561 44 506 6 q 665 149 617 82 q 749 303 713 217 q 805 489 785 390 q 825 688 825 588 q 783 901 825 824 q 675 978 740 978 m 58 314 q 88 503 58 406 q 171 689 117 600 q 302 849 225 778 q 476 961 379 919 q 688 1003 574 1003 q 965 916 864 1003 q 1065 668 1065 829 q 1036 480 1065 576 q 952 294 1007 383 q 819 135 897 206 q 645 22 742 64 q 435 -19 549 -19 q 158 67 258 -19 q 58 314 58 154 m 692 1153 q 552 1108 632 1131 q 389 1071 472 1086 l 382 1090 q 599 1185 499 1126 q 758 1306 699 1243 l 783 1306 q 857 1181 814 1233 q 976 1090 900 1128 l 971 1071 q 856 1095 904 1082 q 768 1123 807 1108 q 692 1153 729 1138 m 735 1378 q 849 1475 804 1432 q 927 1549 893 1518 q 999 1601 961 1581 q 1043 1616 1018 1613 q 1091 1612 1068 1619 q 1125 1579 1114 1604 q 1123 1519 1142 1547 q 1069 1472 1104 1490 q 990 1440 1035 1453 q 885 1410 944 1426 q 744 1361 825 1393 l 735 1378 z "},"Ộ":{"ha":1079,"x_min":58,"x_max":1065,"o":"m 675 978 q 561 940 617 978 q 458 834 506 901 q 374 680 410 767 q 317 494 338 593 q 297 296 297 396 q 340 83 297 160 q 447 6 382 6 q 561 44 506 6 q 665 149 617 82 q 749 303 713 217 q 805 489 785 390 q 825 688 825 588 q 783 901 825 824 q 675 978 740 978 m 58 314 q 88 503 58 406 q 171 689 117 600 q 302 849 225 778 q 476 961 379 919 q 688 1003 574 1003 q 965 916 864 1003 q 1065 668 1065 829 q 1036 480 1065 576 q 952 294 1007 383 q 819 135 897 206 q 645 22 742 64 q 435 -19 549 -19 q 158 67 258 -19 q 58 314 58 154 m 692 1153 q 552 1108 632 1131 q 389 1071 472 1086 l 382 1090 q 599 1185 499 1126 q 758 1306 699 1243 l 783 1306 q 857 1181 814 1233 q 976 1090 900 1128 l 971 1071 q 856 1095 904 1082 q 768 1123 807 1108 q 692 1153 729 1138 m 400 -260 q 333 -241 357 -260 q 310 -187 310 -222 q 343 -106 310 -136 q 432 -76 376 -76 q 499 -95 475 -76 q 522 -149 522 -114 q 488 -231 522 -201 q 400 -260 453 -260 z "},"Ồ":{"ha":1079,"x_min":58,"x_max":1065,"o":"m 675 978 q 561 940 617 978 q 458 834 506 901 q 374 680 410 767 q 317 494 338 593 q 297 296 297 396 q 340 83 297 160 q 447 6 382 6 q 561 44 506 6 q 665 149 617 82 q 749 303 713 217 q 805 489 785 390 q 825 688 825 588 q 783 901 825 824 q 675 978 740 978 m 58 314 q 88 503 58 406 q 171 689 117 600 q 302 849 225 778 q 476 961 379 919 q 688 1003 574 1003 q 965 916 864 1003 q 1065 668 1065 829 q 1036 480 1065 576 q 952 294 1007 383 q 819 135 897 206 q 645 22 742 64 q 435 -19 549 -19 q 158 67 258 -19 q 58 314 58 154 m 692 1153 q 552 1108 632 1131 q 389 1071 472 1086 l 382 1090 q 599 1185 499 1126 q 758 1306 699 1243 l 783 1306 q 857 1181 814 1233 q 976 1090 900 1128 l 971 1071 q 856 1095 904 1082 q 768 1123 807 1108 q 692 1153 729 1138 m 821 1360 q 701 1410 750 1393 q 619 1438 653 1426 q 556 1468 585 1450 q 517 1515 529 1486 q 522 1574 506 1544 q 576 1606 540 1604 q 638 1592 611 1608 q 688 1545 667 1575 q 742 1474 710 1515 q 832 1375 775 1432 l 821 1360 z "},"Ổ":{"ha":1079,"x_min":58,"x_max":1233,"o":"m 675 978 q 561 940 617 978 q 458 834 506 901 q 374 680 410 767 q 317 494 338 593 q 297 296 297 396 q 340 83 297 160 q 447 6 382 6 q 561 44 506 6 q 665 149 617 82 q 749 303 713 217 q 805 489 785 390 q 825 688 825 588 q 783 901 825 824 q 675 978 740 978 m 58 314 q 88 503 58 406 q 171 689 117 600 q 302 849 225 778 q 476 961 379 919 q 688 1003 574 1003 q 965 916 864 1003 q 1065 668 1065 829 q 1036 480 1065 576 q 952 294 1007 383 q 819 135 897 206 q 645 22 742 64 q 435 -19 549 -19 q 158 67 258 -19 q 58 314 58 154 m 692 1153 q 552 1108 632 1131 q 389 1071 472 1086 l 382 1090 q 599 1185 499 1126 q 758 1306 699 1243 l 783 1306 q 857 1181 814 1233 q 976 1090 900 1128 l 971 1071 q 856 1095 904 1082 q 768 1123 807 1108 q 692 1153 729 1138 m 986 1260 q 1010 1328 992 1303 q 1051 1372 1029 1354 q 1088 1413 1072 1390 q 1104 1475 1104 1436 q 1082 1538 1104 1519 q 1021 1557 1060 1557 q 985 1553 1001 1557 q 958 1542 968 1549 q 994 1515 981 1532 q 1007 1472 1007 1499 q 983 1417 1007 1439 q 922 1396 958 1396 q 872 1413 892 1396 q 853 1460 853 1431 q 876 1517 853 1493 q 933 1556 900 1540 q 993 1576 958 1568 q 1071 1583 1028 1583 q 1187 1560 1140 1583 q 1233 1482 1233 1536 q 1213 1424 1233 1444 q 1162 1388 1193 1403 q 1099 1359 1131 1374 q 1043 1322 1067 1344 q 1014 1260 1019 1300 l 986 1260 z "},"Ỗ":{"ha":1079,"x_min":58,"x_max":1108,"o":"m 675 978 q 561 940 617 978 q 458 834 506 901 q 374 680 410 767 q 317 494 338 593 q 297 296 297 396 q 340 83 297 160 q 447 6 382 6 q 561 44 506 6 q 665 149 617 82 q 749 303 713 217 q 805 489 785 390 q 825 688 825 588 q 783 901 825 824 q 675 978 740 978 m 58 314 q 88 503 58 406 q 171 689 117 600 q 302 849 225 778 q 476 961 379 919 q 688 1003 574 1003 q 965 916 864 1003 q 1065 668 1065 829 q 1036 480 1065 576 q 952 294 1007 383 q 819 135 897 206 q 645 22 742 64 q 435 -19 549 -19 q 158 67 258 -19 q 58 314 58 154 m 692 1153 q 552 1108 632 1131 q 389 1071 472 1086 l 382 1090 q 599 1185 499 1126 q 758 1306 699 1243 l 783 1306 q 857 1181 814 1233 q 976 1090 900 1128 l 971 1071 q 856 1095 904 1082 q 768 1123 807 1108 q 692 1153 729 1138 m 713 1576 q 798 1561 764 1576 q 858 1526 832 1546 q 910 1490 883 1506 q 976 1475 938 1475 q 1032 1494 1006 1475 q 1083 1556 1058 1513 l 1108 1549 q 1005 1401 1068 1446 q 878 1356 942 1356 q 792 1371 826 1356 q 733 1406 758 1386 q 680 1442 707 1426 q 614 1457 653 1457 q 559 1439 585 1457 q 507 1376 533 1421 l 482 1383 q 585 1531 521 1486 q 713 1576 649 1576 z "},"Ö":{"ha":1079,"x_min":58,"x_max":1065,"o":"m 675 978 q 561 940 617 978 q 458 834 506 901 q 374 680 410 767 q 317 494 338 593 q 297 296 297 396 q 340 83 297 160 q 447 6 382 6 q 561 44 506 6 q 665 149 617 82 q 749 303 713 217 q 805 489 785 390 q 825 688 825 588 q 783 901 825 824 q 675 978 740 978 m 58 314 q 88 503 58 406 q 171 689 117 600 q 302 849 225 778 q 476 961 379 919 q 688 1003 574 1003 q 965 916 864 1003 q 1065 668 1065 829 q 1036 480 1065 576 q 952 294 1007 383 q 819 135 897 206 q 645 22 742 64 q 435 -19 549 -19 q 158 67 258 -19 q 58 314 58 154 m 438 1156 q 474 1242 438 1211 q 557 1274 511 1274 q 625 1247 603 1274 q 647 1181 647 1221 q 630 1117 647 1143 q 585 1077 613 1090 q 526 1064 558 1064 q 460 1090 482 1064 q 438 1156 438 1115 m 771 1156 q 807 1242 771 1211 q 890 1274 843 1274 q 958 1247 935 1274 q 981 1181 981 1221 q 963 1117 981 1143 q 918 1077 946 1090 q 860 1064 890 1064 q 792 1090 814 1064 q 771 1156 771 1115 z "},"Ọ":{"ha":1079,"x_min":58,"x_max":1065,"o":"m 675 978 q 561 940 617 978 q 458 834 506 901 q 374 680 410 767 q 317 494 338 593 q 297 296 297 396 q 340 83 297 160 q 447 6 382 6 q 561 44 506 6 q 665 149 617 82 q 749 303 713 217 q 805 489 785 390 q 825 688 825 588 q 783 901 825 824 q 675 978 740 978 m 58 314 q 88 503 58 406 q 171 689 117 600 q 302 849 225 778 q 476 961 379 919 q 688 1003 574 1003 q 965 916 864 1003 q 1065 668 1065 829 q 1036 480 1065 576 q 952 294 1007 383 q 819 135 897 206 q 645 22 742 64 q 435 -19 549 -19 q 158 67 258 -19 q 58 314 58 154 m 400 -260 q 333 -241 357 -260 q 310 -187 310 -222 q 343 -106 310 -136 q 432 -76 376 -76 q 499 -95 475 -76 q 522 -149 522 -114 q 488 -231 522 -201 q 400 -260 453 -260 z "},"Ò":{"ha":1079,"x_min":58,"x_max":1065,"o":"m 675 978 q 561 940 617 978 q 458 834 506 901 q 374 680 410 767 q 317 494 338 593 q 297 296 297 396 q 340 83 297 160 q 447 6 382 6 q 561 44 506 6 q 665 149 617 82 q 749 303 713 217 q 805 489 785 390 q 825 688 825 588 q 783 901 825 824 q 675 978 740 978 m 58 314 q 88 503 58 406 q 171 689 117 600 q 302 849 225 778 q 476 961 379 919 q 688 1003 574 1003 q 965 916 864 1003 q 1065 668 1065 829 q 1036 480 1065 576 q 952 294 1007 383 q 819 135 897 206 q 645 22 742 64 q 435 -19 549 -19 q 158 67 258 -19 q 58 314 58 154 m 749 1071 q 629 1121 678 1104 q 547 1149 581 1138 q 483 1179 513 1161 q 445 1226 457 1197 q 450 1285 433 1256 q 503 1317 468 1315 q 565 1303 539 1319 q 616 1256 594 1286 q 670 1185 638 1226 q 760 1086 703 1143 l 749 1071 z "},"Ỏ":{"ha":1079,"x_min":58,"x_max":1065,"o":"m 675 978 q 561 940 617 978 q 458 834 506 901 q 374 680 410 767 q 317 494 338 593 q 297 296 297 396 q 340 83 297 160 q 447 6 382 6 q 561 44 506 6 q 665 149 617 82 q 749 303 713 217 q 805 489 785 390 q 825 688 825 588 q 783 901 825 824 q 675 978 740 978 m 58 314 q 88 503 58 406 q 171 689 117 600 q 302 849 225 778 q 476 961 379 919 q 688 1003 574 1003 q 965 916 864 1003 q 1065 668 1065 829 q 1036 480 1065 576 q 952 294 1007 383 q 819 135 897 206 q 645 22 742 64 q 435 -19 549 -19 q 158 67 258 -19 q 58 314 58 154 m 683 1094 q 709 1163 690 1138 q 749 1206 728 1188 q 787 1247 771 1225 q 803 1310 803 1269 q 781 1372 803 1353 q 719 1392 758 1392 q 683 1388 700 1392 q 657 1375 667 1383 q 692 1349 679 1367 q 706 1307 706 1332 q 681 1251 706 1272 q 621 1229 657 1229 q 570 1247 589 1229 q 551 1294 551 1265 q 575 1350 551 1326 q 631 1389 599 1374 q 692 1409 657 1401 q 769 1417 726 1417 q 885 1393 839 1417 q 932 1315 932 1369 q 911 1258 932 1279 q 860 1222 890 1236 q 797 1194 829 1208 q 742 1156 765 1179 q 711 1094 718 1133 l 683 1094 z "},"Ơ":{"ha":1079,"x_min":58,"x_max":1253,"o":"m 814 951 l 806 981 q 1006 976 929 967 q 1142 1011 1082 985 l 1139 1000 q 1084 1045 1108 1017 q 1060 1114 1060 1074 q 1087 1183 1060 1156 q 1156 1210 1114 1210 q 1225 1183 1197 1210 q 1253 1111 1253 1156 q 1231 1042 1253 1074 q 1165 989 1208 1010 q 1028 949 1117 964 q 814 951 939 935 m 675 978 q 561 940 617 978 q 458 834 506 901 q 374 680 410 767 q 317 494 338 593 q 297 296 297 396 q 340 83 297 160 q 447 6 382 6 q 561 44 506 6 q 665 149 617 82 q 749 303 713 217 q 805 489 785 390 q 825 688 825 588 q 783 901 825 824 q 675 978 740 978 m 58 314 q 88 503 58 406 q 171 689 117 600 q 302 849 225 778 q 476 961 379 919 q 688 1003 574 1003 q 965 916 864 1003 q 1065 668 1065 829 q 1036 480 1065 576 q 952 294 1007 383 q 819 135 897 206 q 645 22 742 64 q 435 -19 549 -19 q 158 67 258 -19 q 58 314 58 154 z "},"Ớ":{"ha":1079,"x_min":58,"x_max":1253,"o":"m 814 951 l 806 981 q 1006 976 929 967 q 1142 1011 1082 985 l 1139 1000 q 1084 1045 1108 1017 q 1060 1114 1060 1074 q 1087 1183 1060 1156 q 1156 1210 1114 1210 q 1225 1183 1197 1210 q 1253 1111 1253 1156 q 1231 1042 1253 1074 q 1165 989 1208 1010 q 1028 949 1117 964 q 814 951 939 935 m 675 978 q 561 940 617 978 q 458 834 506 901 q 374 680 410 767 q 317 494 338 593 q 297 296 297 396 q 340 83 297 160 q 447 6 382 6 q 561 44 506 6 q 665 149 617 82 q 749 303 713 217 q 805 489 785 390 q 825 688 825 588 q 783 901 825 824 q 675 978 740 978 m 58 314 q 88 503 58 406 q 171 689 117 600 q 302 849 225 778 q 476 961 379 919 q 688 1003 574 1003 q 965 916 864 1003 q 1065 668 1065 829 q 1036 480 1065 576 q 952 294 1007 383 q 819 135 897 206 q 645 22 742 64 q 435 -19 549 -19 q 158 67 258 -19 q 58 314 58 154 m 663 1089 q 776 1186 732 1143 q 855 1260 821 1229 q 926 1313 889 1292 q 971 1327 946 1324 q 1019 1323 996 1331 q 1053 1290 1042 1315 q 1051 1230 1069 1258 q 997 1183 1032 1201 q 917 1151 963 1164 q 813 1121 872 1138 q 672 1072 753 1104 l 663 1089 z "},"Ợ":{"ha":1079,"x_min":58,"x_max":1253,"o":"m 814 951 l 806 981 q 1006 976 929 967 q 1142 1011 1082 985 l 1139 1000 q 1084 1045 1108 1017 q 1060 1114 1060 1074 q 1087 1183 1060 1156 q 1156 1210 1114 1210 q 1225 1183 1197 1210 q 1253 1111 1253 1156 q 1231 1042 1253 1074 q 1165 989 1208 1010 q 1028 949 1117 964 q 814 951 939 935 m 675 978 q 561 940 617 978 q 458 834 506 901 q 374 680 410 767 q 317 494 338 593 q 297 296 297 396 q 340 83 297 160 q 447 6 382 6 q 561 44 506 6 q 665 149 617 82 q 749 303 713 217 q 805 489 785 390 q 825 688 825 588 q 783 901 825 824 q 675 978 740 978 m 58 314 q 88 503 58 406 q 171 689 117 600 q 302 849 225 778 q 476 961 379 919 q 688 1003 574 1003 q 965 916 864 1003 q 1065 668 1065 829 q 1036 480 1065 576 q 952 294 1007 383 q 819 135 897 206 q 645 22 742 64 q 435 -19 549 -19 q 158 67 258 -19 q 58 314 58 154 m 400 -260 q 333 -241 357 -260 q 310 -187 310 -222 q 343 -106 310 -136 q 432 -76 376 -76 q 499 -95 475 -76 q 522 -149 522 -114 q 488 -231 522 -201 q 400 -260 453 -260 z "},"Ờ":{"ha":1079,"x_min":58,"x_max":1253,"o":"m 814 951 l 806 981 q 1006 976 929 967 q 1142 1011 1082 985 l 1139 1000 q 1084 1045 1108 1017 q 1060 1114 1060 1074 q 1087 1183 1060 1156 q 1156 1210 1114 1210 q 1225 1183 1197 1210 q 1253 1111 1253 1156 q 1231 1042 1253 1074 q 1165 989 1208 1010 q 1028 949 1117 964 q 814 951 939 935 m 675 978 q 561 940 617 978 q 458 834 506 901 q 374 680 410 767 q 317 494 338 593 q 297 296 297 396 q 340 83 297 160 q 447 6 382 6 q 561 44 506 6 q 665 149 617 82 q 749 303 713 217 q 805 489 785 390 q 825 688 825 588 q 783 901 825 824 q 675 978 740 978 m 58 314 q 88 503 58 406 q 171 689 117 600 q 302 849 225 778 q 476 961 379 919 q 688 1003 574 1003 q 965 916 864 1003 q 1065 668 1065 829 q 1036 480 1065 576 q 952 294 1007 383 q 819 135 897 206 q 645 22 742 64 q 435 -19 549 -19 q 158 67 258 -19 q 58 314 58 154 m 749 1071 q 629 1121 678 1104 q 547 1149 581 1138 q 483 1179 513 1161 q 445 1226 457 1197 q 450 1285 433 1256 q 503 1317 468 1315 q 565 1303 539 1319 q 616 1256 594 1286 q 670 1185 638 1226 q 760 1086 703 1143 l 749 1071 z "},"Ở":{"ha":1079,"x_min":58,"x_max":1253,"o":"m 814 951 l 806 981 q 1006 976 929 967 q 1142 1011 1082 985 l 1139 1000 q 1084 1045 1108 1017 q 1060 1114 1060 1074 q 1087 1183 1060 1156 q 1156 1210 1114 1210 q 1225 1183 1197 1210 q 1253 1111 1253 1156 q 1231 1042 1253 1074 q 1165 989 1208 1010 q 1028 949 1117 964 q 814 951 939 935 m 675 978 q 561 940 617 978 q 458 834 506 901 q 374 680 410 767 q 317 494 338 593 q 297 296 297 396 q 340 83 297 160 q 447 6 382 6 q 561 44 506 6 q 665 149 617 82 q 749 303 713 217 q 805 489 785 390 q 825 688 825 588 q 783 901 825 824 q 675 978 740 978 m 58 314 q 88 503 58 406 q 171 689 117 600 q 302 849 225 778 q 476 961 379 919 q 688 1003 574 1003 q 965 916 864 1003 q 1065 668 1065 829 q 1036 480 1065 576 q 952 294 1007 383 q 819 135 897 206 q 645 22 742 64 q 435 -19 549 -19 q 158 67 258 -19 q 58 314 58 154 m 674 1032 q 698 1101 679 1075 q 738 1144 717 1126 q 776 1185 760 1163 q 792 1247 792 1208 q 769 1310 792 1292 q 708 1329 747 1329 q 672 1325 689 1329 q 646 1314 656 1321 q 681 1288 668 1304 q 694 1244 694 1271 q 670 1190 694 1211 q 610 1168 646 1168 q 560 1185 579 1168 q 540 1232 540 1203 q 564 1289 540 1265 q 621 1328 588 1313 q 681 1348 646 1340 q 758 1356 715 1356 q 874 1332 828 1356 q 921 1254 921 1308 q 901 1196 921 1217 q 849 1160 881 1175 q 786 1131 818 1146 q 731 1094 754 1117 q 701 1032 707 1072 l 674 1032 z "},"Ỡ":{"ha":1079,"x_min":58,"x_max":1253,"o":"m 814 951 l 806 981 q 1006 976 929 967 q 1142 1011 1082 985 l 1139 1000 q 1084 1045 1108 1017 q 1060 1114 1060 1074 q 1087 1183 1060 1156 q 1156 1210 1114 1210 q 1225 1183 1197 1210 q 1253 1111 1253 1156 q 1231 1042 1253 1074 q 1165 989 1208 1010 q 1028 949 1117 964 q 814 951 939 935 m 675 978 q 561 940 617 978 q 458 834 506 901 q 374 680 410 767 q 317 494 338 593 q 297 296 297 396 q 340 83 297 160 q 447 6 382 6 q 561 44 506 6 q 665 149 617 82 q 749 303 713 217 q 805 489 785 390 q 825 688 825 588 q 783 901 825 824 q 675 978 740 978 m 58 314 q 88 503 58 406 q 171 689 117 600 q 302 849 225 778 q 476 961 379 919 q 688 1003 574 1003 q 965 916 864 1003 q 1065 668 1065 829 q 1036 480 1065 576 q 952 294 1007 383 q 819 135 897 206 q 645 22 742 64 q 435 -19 549 -19 q 158 67 258 -19 q 58 314 58 154 m 640 1288 q 726 1272 692 1288 q 785 1237 760 1257 q 838 1201 811 1217 q 904 1186 865 1186 q 960 1205 933 1186 q 1011 1267 986 1224 l 1036 1260 q 933 1112 996 1157 q 806 1067 869 1067 q 720 1082 754 1067 q 660 1117 686 1097 q 608 1153 635 1138 q 542 1168 581 1168 q 487 1150 513 1168 q 435 1088 461 1132 l 410 1094 q 513 1242 449 1197 q 640 1288 576 1288 z "},"Ő":{"ha":1079,"x_min":58,"x_max":1071,"o":"m 675 978 q 561 940 617 978 q 458 834 506 901 q 374 680 410 767 q 317 494 338 593 q 297 296 297 396 q 340 83 297 160 q 447 6 382 6 q 561 44 506 6 q 665 149 617 82 q 749 303 713 217 q 805 489 785 390 q 825 688 825 588 q 783 901 825 824 q 675 978 740 978 m 58 314 q 88 503 58 406 q 171 689 117 600 q 302 849 225 778 q 476 961 379 919 q 688 1003 574 1003 q 965 916 864 1003 q 1065 668 1065 829 q 1036 480 1065 576 q 952 294 1007 383 q 819 135 897 206 q 645 22 742 64 q 435 -19 549 -19 q 158 67 258 -19 q 58 314 58 154 m 754 1088 q 830 1176 800 1136 q 885 1247 860 1215 q 938 1299 911 1278 q 997 1315 963 1315 q 1051 1282 1032 1314 q 1059 1225 1071 1256 q 1018 1175 1047 1194 q 953 1143 990 1157 q 870 1114 917 1129 q 765 1072 824 1099 l 754 1088 m 461 1088 q 537 1176 507 1136 q 592 1247 567 1215 q 644 1299 618 1278 q 704 1315 669 1317 q 760 1282 739 1313 q 765 1225 776 1254 q 725 1175 754 1196 q 660 1143 697 1157 q 577 1114 624 1129 q 472 1072 531 1099 l 461 1088 z "},"Ō":{"ha":1079,"x_min":58,"x_max":1065,"o":"m 675 978 q 561 940 617 978 q 458 834 506 901 q 374 680 410 767 q 317 494 338 593 q 297 296 297 396 q 340 83 297 160 q 447 6 382 6 q 561 44 506 6 q 665 149 617 82 q 749 303 713 217 q 805 489 785 390 q 825 688 825 588 q 783 901 825 824 q 675 978 740 978 m 58 314 q 88 503 58 406 q 171 689 117 600 q 302 849 225 778 q 476 961 379 919 q 688 1003 574 1003 q 965 916 864 1003 q 1065 668 1065 829 q 1036 480 1065 576 q 952 294 1007 383 q 819 135 897 206 q 645 22 742 64 q 435 -19 549 -19 q 158 67 258 -19 q 58 314 58 154 m 969 1172 l 961 1138 l 406 1138 l 414 1172 l 969 1172 z "},"Ø":{"ha":1079,"x_min":-4,"x_max":1117,"o":"m 675 978 q 561 940 617 978 q 458 834 506 901 q 374 680 410 767 q 317 494 338 593 q 297 296 297 396 q 340 83 297 160 q 447 6 382 6 q 561 44 506 6 q 665 149 617 82 q 749 303 713 217 q 805 489 785 390 q 825 688 825 588 q 783 901 825 824 q 675 978 740 978 m 58 314 q 88 503 58 406 q 171 689 117 600 q 302 849 225 778 q 476 961 379 919 q 688 1003 574 1003 q 965 916 864 1003 q 1065 668 1065 829 q 1036 480 1065 576 q 952 294 1007 383 q 819 135 897 206 q 645 22 742 64 q 435 -19 549 -19 q 158 67 258 -19 q 58 314 58 154 m 908 878 l 1096 1074 l 1117 1056 l 922 850 l 908 878 m 218 104 l 21 -101 l -4 -82 l 200 129 l 218 104 m 240 133 l 890 878 l 904 850 l 258 108 l 240 133 z "},"Ǿ":{"ha":1079,"x_min":-4,"x_max":1117,"o":"m 675 978 q 561 940 617 978 q 458 834 506 901 q 374 680 410 767 q 317 494 338 593 q 297 296 297 396 q 340 83 297 160 q 447 6 382 6 q 561 44 506 6 q 665 149 617 82 q 749 303 713 217 q 805 489 785 390 q 825 688 825 588 q 783 901 825 824 q 675 978 740 978 m 58 314 q 88 503 58 406 q 171 689 117 600 q 302 849 225 778 q 476 961 379 919 q 688 1003 574 1003 q 965 916 864 1003 q 1065 668 1065 829 q 1036 480 1065 576 q 952 294 1007 383 q 819 135 897 206 q 645 22 742 64 q 435 -19 549 -19 q 158 67 258 -19 q 58 314 58 154 m 908 878 l 1096 1074 l 1117 1056 l 922 850 l 908 878 m 218 104 l 21 -101 l -4 -82 l 200 129 l 218 104 m 240 133 l 890 878 l 904 850 l 258 108 l 240 133 m 663 1089 q 776 1186 732 1143 q 855 1260 821 1229 q 926 1313 889 1292 q 971 1327 946 1324 q 1019 1323 996 1331 q 1053 1290 1042 1315 q 1051 1230 1069 1258 q 997 1183 1032 1201 q 917 1151 963 1164 q 813 1121 872 1138 q 672 1072 753 1104 l 663 1089 z "},"Õ":{"ha":1079,"x_min":58,"x_max":1065,"o":"m 675 978 q 561 940 617 978 q 458 834 506 901 q 374 680 410 767 q 317 494 338 593 q 297 296 297 396 q 340 83 297 160 q 447 6 382 6 q 561 44 506 6 q 665 149 617 82 q 749 303 713 217 q 805 489 785 390 q 825 688 825 588 q 783 901 825 824 q 675 978 740 978 m 58 314 q 88 503 58 406 q 171 689 117 600 q 302 849 225 778 q 476 961 379 919 q 688 1003 574 1003 q 965 916 864 1003 q 1065 668 1065 829 q 1036 480 1065 576 q 952 294 1007 383 q 819 135 897 206 q 645 22 742 64 q 435 -19 549 -19 q 158 67 258 -19 q 58 314 58 154 m 640 1288 q 726 1272 692 1288 q 785 1237 760 1257 q 838 1201 811 1217 q 904 1186 865 1186 q 960 1205 933 1186 q 1011 1267 986 1224 l 1036 1260 q 933 1112 996 1157 q 806 1067 869 1067 q 720 1082 754 1067 q 660 1117 686 1097 q 608 1153 635 1138 q 542 1168 581 1168 q 487 1150 513 1168 q 435 1088 461 1132 l 410 1094 q 513 1242 449 1197 q 640 1288 576 1288 z "},"Œ":{"ha":1381,"x_min":60,"x_max":1447,"o":"m 829 481 l 835 508 l 1126 508 l 1121 481 l 829 481 m 1028 508 q 1095 531 1069 508 q 1138 588 1121 553 q 1171 664 1156 624 l 1201 664 q 1174 574 1183 610 q 1154 494 1165 539 q 1138 429 1146 464 q 1118 325 1129 394 l 1088 325 q 1092 375 1088 349 q 1094 424 1096 401 q 1077 463 1093 447 q 1022 481 1061 478 l 1028 508 m 450 6 q 545 26 508 6 q 597 104 582 46 l 792 836 q 798 925 807 894 q 760 967 789 956 q 682 978 731 978 q 564 940 621 978 q 458 834 507 901 q 374 680 410 767 q 318 494 338 593 q 299 296 299 396 q 340 83 299 160 q 450 6 381 6 m 1346 733 q 1342 904 1368 857 q 1233 951 1317 951 l 1151 951 q 1080 944 1106 951 q 1040 912 1054 936 q 1013 836 1026 888 l 829 147 q 818 72 817 97 q 841 40 819 47 q 908 32 863 32 l 1004 32 q 1115 56 1071 32 q 1190 133 1158 79 q 1253 278 1222 186 l 1283 278 q 1268 233 1275 260 q 1254 178 1261 207 q 1236 102 1247 151 q 1218 0 1225 53 q 1063 3 1147 3 q 910 4 978 4 q 819 4 876 4 q 696 4 763 4 q 571 3 629 4 q 500 -13 538 -7 q 425 -19 463 -19 q 156 67 253 -19 q 60 314 60 154 q 88 503 60 406 q 169 689 117 600 q 298 849 222 778 q 469 961 374 919 q 678 1003 565 1003 q 746 997 713 1003 q 807 981 779 992 q 940 979 869 979 q 1073 979 1011 979 q 1171 979 1135 979 q 1308 980 1232 979 q 1447 983 1383 981 q 1416 896 1429 935 q 1394 819 1403 857 q 1382 772 1386 794 q 1376 733 1378 750 l 1346 733 z "},"P":{"ha":893,"x_min":-58,"x_max":949,"o":"m 319 394 l 326 422 l 389 422 q 544 456 481 422 q 645 546 607 490 q 700 669 683 601 q 717 804 717 736 q 685 917 717 878 q 582 956 654 956 q 539 946 554 956 q 515 910 524 936 q 493 836 506 885 l 310 147 q 300 81 300 107 q 321 43 300 56 q 392 28 342 31 l 386 0 q 289 3 344 3 q 172 4 233 4 q 40 3 103 4 q -58 0 -22 3 l -53 28 q 21 39 -6 31 q 63 72 47 47 q 90 147 78 97 l 274 836 q 283 904 283 879 q 264 942 283 929 q 192 956 244 954 l 199 983 q 296 981 233 982 q 419 979 358 979 q 520 981 469 979 q 622 982 571 982 q 869 928 789 982 q 949 772 949 874 q 876 578 949 664 q 675 444 804 493 q 375 394 546 394 l 319 394 z "},"Þ":{"ha":918,"x_min":-57,"x_max":915,"o":"m 386 779 q 487 781 436 779 q 589 782 538 782 q 835 724 756 782 q 915 572 915 667 q 843 378 915 464 q 642 244 771 293 q 342 194 513 194 l 286 194 q 290 208 286 194 q 293 222 293 222 l 356 222 q 504 253 442 222 q 606 336 567 283 q 665 456 646 389 q 683 594 683 522 q 647 713 683 669 q 532 756 610 756 q 474 754 496 756 q 435 751 453 753 q 388 747 417 750 l 386 779 m 311 147 q 300 72 299 97 q 324 39 301 47 q 393 28 346 31 l 388 0 q 285 3 347 3 q 161 4 224 4 q 37 3 94 4 q -57 0 -21 3 l -50 28 q 22 39 -4 31 q 63 72 47 47 q 90 147 78 97 l 274 836 q 285 912 288 888 q 260 945 282 936 q 192 956 239 954 l 199 983 q 290 981 232 982 q 417 979 349 979 q 540 981 479 979 q 644 983 600 982 l 638 956 q 564 945 590 954 q 523 912 538 936 q 494 836 508 888 l 311 147 z "},"Q":{"ha":1154,"x_min":-53,"x_max":1133,"o":"m 431 338 q 275 367 343 338 q 169 452 207 397 q 132 585 132 507 q 180 751 132 675 q 311 884 228 828 q 499 972 394 940 q 717 1003 604 1003 q 934 968 840 1003 q 1081 870 1028 933 q 1133 721 1133 807 q 1092 560 1133 643 q 981 397 1051 478 q 822 240 911 315 q 632 101 732 165 q 434 -12 532 36 q 247 -87 336 -60 q 92 -114 158 -114 q -14 -86 25 -114 q -53 -1 -53 -58 q -28 78 -53 43 q 42 134 -3 114 q 142 154 86 154 q 277 124 213 154 q 405 50 342 94 q 533 -38 468 6 q 669 -112 599 -82 q 821 -143 740 -143 q 905 -129 871 -143 q 963 -92 939 -115 q 1000 -44 986 -69 q 958 -67 982 -58 q 911 -75 935 -75 q 834 -48 865 -75 q 803 26 803 -21 q 838 109 803 75 q 929 143 874 143 q 1010 114 978 143 q 1043 26 1043 85 q 1014 -76 1043 -25 q 931 -169 985 -128 q 808 -236 878 -211 q 656 -261 739 -261 q 513 -238 576 -261 q 399 -179 450 -215 q 303 -102 347 -143 q 220 -25 260 -61 q 142 34 181 11 q 58 57 103 57 q -1 39 22 57 q -24 -11 -24 21 q 10 -69 -24 -49 q 103 -90 43 -90 q 198 -76 144 -90 q 308 -40 251 -61 q 417 7 365 -18 q 566 98 494 44 q 698 217 638 151 q 803 360 758 283 q 872 522 847 436 q 897 696 897 607 q 843 903 897 828 q 688 978 789 978 q 554 940 614 978 q 452 840 494 903 q 388 702 410 778 q 365 550 365 626 q 380 457 365 496 q 426 398 394 418 q 507 378 457 378 q 613 403 565 378 q 691 469 660 428 q 733 554 722 510 q 739 588 738 571 q 739 621 740 606 q 687 556 724 575 q 617 538 650 538 q 544 567 571 538 q 517 640 517 596 q 555 732 517 696 q 649 768 593 768 q 740 726 707 768 q 774 615 774 685 q 730 472 774 535 q 609 374 686 410 q 431 338 532 338 z "},"R":{"ha":988,"x_min":-58,"x_max":949,"o":"m 383 493 q 451 488 424 490 q 498 484 478 486 q 538 481 518 482 q 647 464 596 474 q 733 434 697 454 q 785 379 768 414 q 794 289 801 344 l 775 146 q 781 75 771 101 q 818 49 790 49 q 866 74 846 49 q 903 149 886 100 l 910 168 l 942 168 l 936 150 q 860 22 911 64 q 724 -19 810 -19 q 587 26 628 -19 q 556 142 546 72 l 576 300 q 572 395 583 357 q 517 453 561 433 q 381 472 472 472 l 383 493 m 361 472 l 368 497 l 414 497 q 539 517 482 497 q 638 578 596 538 q 702 676 679 618 q 725 810 725 735 q 693 920 725 885 q 596 956 661 956 q 535 937 556 956 q 500 864 515 918 l 311 147 q 298 80 300 106 q 317 42 296 54 q 392 28 338 31 l 386 0 q 288 3 344 3 q 169 4 232 4 q 40 3 103 4 q -58 0 -22 3 l -53 28 q 21 39 -6 31 q 63 72 47 47 q 90 147 78 97 l 272 836 q 285 904 285 879 q 265 942 285 929 q 192 956 244 954 l 199 983 q 260 981 224 982 q 335 980 296 981 q 408 979 375 979 q 522 981 472 979 q 617 982 571 982 q 867 935 786 982 q 949 789 949 888 q 881 623 949 693 q 694 513 814 553 q 417 474 575 474 l 361 472 z "},"Ŕ":{"ha":988,"x_min":-58,"x_max":972,"o":"m 383 493 q 451 488 424 490 q 498 484 478 486 q 538 481 518 482 q 647 464 596 474 q 733 434 697 454 q 785 379 768 414 q 794 289 801 344 l 775 146 q 781 75 771 101 q 818 49 790 49 q 866 74 846 49 q 903 149 886 100 l 910 168 l 942 168 l 936 150 q 860 22 911 64 q 724 -19 810 -19 q 587 26 628 -19 q 556 142 546 72 l 576 300 q 572 395 583 357 q 517 453 561 433 q 381 472 472 472 l 383 493 m 361 472 l 368 497 l 414 497 q 539 517 482 497 q 638 578 596 538 q 702 676 679 618 q 725 810 725 735 q 693 920 725 885 q 596 956 661 956 q 535 937 556 956 q 500 864 515 918 l 311 147 q 298 80 300 106 q 317 42 296 54 q 392 28 338 31 l 386 0 q 288 3 344 3 q 169 4 232 4 q 40 3 103 4 q -58 0 -22 3 l -53 28 q 21 39 -6 31 q 63 72 47 47 q 90 147 78 97 l 272 836 q 285 904 285 879 q 265 942 285 929 q 192 956 244 954 l 199 983 q 260 981 224 982 q 335 980 296 981 q 408 979 375 979 q 522 981 472 979 q 617 982 571 982 q 867 935 786 982 q 949 789 949 888 q 881 623 949 693 q 694 513 814 553 q 417 474 575 474 l 361 472 m 565 1089 q 679 1186 635 1143 q 758 1260 724 1229 q 829 1313 792 1292 q 874 1327 849 1324 q 922 1323 899 1331 q 956 1290 944 1315 q 953 1230 972 1258 q 900 1183 935 1201 q 820 1151 865 1164 q 715 1121 775 1138 q 575 1072 656 1104 l 565 1089 z "},"Ř":{"ha":988,"x_min":-58,"x_max":983,"o":"m 383 493 q 451 488 424 490 q 498 484 478 486 q 538 481 518 482 q 647 464 596 474 q 733 434 697 454 q 785 379 768 414 q 794 289 801 344 l 775 146 q 781 75 771 101 q 818 49 790 49 q 866 74 846 49 q 903 149 886 100 l 910 168 l 942 168 l 936 150 q 860 22 911 64 q 724 -19 810 -19 q 587 26 628 -19 q 556 142 546 72 l 576 300 q 572 395 583 357 q 517 453 561 433 q 381 472 472 472 l 383 493 m 361 472 l 368 497 l 414 497 q 539 517 482 497 q 638 578 596 538 q 702 676 679 618 q 725 810 725 735 q 693 920 725 885 q 596 956 661 956 q 535 937 556 956 q 500 864 515 918 l 311 147 q 298 80 300 106 q 317 42 296 54 q 392 28 338 31 l 386 0 q 288 3 344 3 q 169 4 232 4 q 40 3 103 4 q -58 0 -22 3 l -53 28 q 21 39 -6 31 q 63 72 47 47 q 90 147 78 97 l 272 836 q 285 904 285 879 q 265 942 285 929 q 192 956 244 954 l 199 983 q 260 981 224 982 q 335 980 296 981 q 408 979 375 979 q 522 981 472 979 q 617 982 571 982 q 867 935 786 982 q 949 789 949 888 q 881 623 949 693 q 694 513 814 553 q 417 474 575 474 l 361 472 m 675 1219 q 814 1264 735 1242 q 976 1301 893 1286 l 983 1282 q 767 1188 867 1247 q 607 1067 667 1129 l 582 1067 q 510 1192 553 1140 q 389 1282 467 1244 l 394 1301 q 510 1277 461 1290 q 598 1249 558 1264 q 675 1219 638 1235 z "},"Ŗ":{"ha":988,"x_min":-58,"x_max":949,"o":"m 383 493 q 451 488 424 490 q 498 484 478 486 q 538 481 518 482 q 647 464 596 474 q 733 434 697 454 q 785 379 768 414 q 794 289 801 344 l 775 146 q 781 75 771 101 q 818 49 790 49 q 866 74 846 49 q 903 149 886 100 l 910 168 l 942 168 l 936 150 q 860 22 911 64 q 724 -19 810 -19 q 587 26 628 -19 q 556 142 546 72 l 576 300 q 572 395 583 357 q 517 453 561 433 q 381 472 472 472 l 383 493 m 361 472 l 368 497 l 414 497 q 539 517 482 497 q 638 578 596 538 q 702 676 679 618 q 725 810 725 735 q 693 920 725 885 q 596 956 661 956 q 535 937 556 956 q 500 864 515 918 l 311 147 q 298 80 300 106 q 317 42 296 54 q 392 28 338 31 l 386 0 q 288 3 344 3 q 169 4 232 4 q 40 3 103 4 q -58 0 -22 3 l -53 28 q 21 39 -6 31 q 63 72 47 47 q 90 147 78 97 l 272 836 q 285 904 285 879 q 265 942 285 929 q 192 956 244 954 l 199 983 q 260 981 224 982 q 335 980 296 981 q 408 979 375 979 q 522 981 472 979 q 617 982 571 982 q 867 935 786 982 q 949 789 949 888 q 881 623 949 693 q 694 513 814 553 q 417 474 575 474 l 361 472 m 425 -74 q 490 -94 461 -74 q 519 -158 519 -115 q 471 -274 519 -228 q 328 -335 422 -321 l 325 -308 q 416 -282 376 -303 q 463 -228 456 -261 q 428 -244 449 -237 q 383 -251 407 -251 q 322 -234 344 -251 q 300 -183 300 -217 q 336 -106 300 -137 q 425 -74 372 -74 z "},"S":{"ha":815,"x_min":-39,"x_max":861,"o":"m 861 993 q 824 888 847 957 q 779 710 800 819 l 751 710 q 758 750 756 729 q 760 788 760 771 q 737 883 760 842 q 670 947 714 924 q 561 969 626 969 q 442 934 492 969 q 393 818 393 899 q 417 724 393 769 q 477 636 440 679 q 556 549 514 593 q 635 460 597 506 q 696 365 672 415 q 719 258 719 315 q 683 131 719 183 q 588 44 646 78 q 463 -4 529 11 q 336 -19 396 -19 q 228 -11 271 -19 q 156 12 186 -3 q 96 44 125 26 q 68 60 81 54 q 47 65 56 65 q 18 49 29 65 q -11 -10 7 32 l -39 -10 q -12 61 -26 21 q 18 165 1 101 q 56 324 35 228 l 83 324 q 73 270 76 300 q 71 214 69 240 q 133 63 75 115 q 297 11 190 11 q 434 50 392 11 q 476 157 476 89 q 455 264 476 215 q 399 356 433 313 q 328 440 365 399 q 256 524 290 481 q 201 617 222 567 q 181 725 181 667 q 211 848 181 796 q 293 935 242 900 q 404 986 344 969 q 522 1003 464 1003 q 656 983 604 1003 q 742 942 707 963 q 767 926 754 933 q 788 919 781 919 q 833 993 807 919 l 861 993 z "},"Ś":{"ha":815,"x_min":-39,"x_max":943,"o":"m 861 993 q 824 888 847 957 q 779 710 800 819 l 751 710 q 758 750 756 729 q 760 788 760 771 q 737 883 760 842 q 670 947 714 924 q 561 969 626 969 q 442 934 492 969 q 393 818 393 899 q 417 724 393 769 q 477 636 440 679 q 556 549 514 593 q 635 460 597 506 q 696 365 672 415 q 719 258 719 315 q 683 131 719 183 q 588 44 646 78 q 463 -4 529 11 q 336 -19 396 -19 q 228 -11 271 -19 q 156 12 186 -3 q 96 44 125 26 q 68 60 81 54 q 47 65 56 65 q 18 49 29 65 q -11 -10 7 32 l -39 -10 q -12 61 -26 21 q 18 165 1 101 q 56 324 35 228 l 83 324 q 73 270 76 300 q 71 214 69 240 q 133 63 75 115 q 297 11 190 11 q 434 50 392 11 q 476 157 476 89 q 455 264 476 215 q 399 356 433 313 q 328 440 365 399 q 256 524 290 481 q 201 617 222 567 q 181 725 181 667 q 211 848 181 796 q 293 935 242 900 q 404 986 344 969 q 522 1003 464 1003 q 656 983 604 1003 q 742 942 707 963 q 767 926 754 933 q 788 919 781 919 q 833 993 807 919 l 861 993 m 536 1089 q 650 1186 606 1143 q 728 1260 694 1229 q 800 1313 763 1292 q 844 1327 819 1324 q 892 1323 869 1331 q 926 1290 915 1315 q 924 1230 943 1258 q 871 1183 906 1201 q 791 1151 836 1164 q 686 1121 746 1138 q 546 1072 626 1104 l 536 1089 z "},"Š":{"ha":815,"x_min":-39,"x_max":953,"o":"m 861 993 q 824 888 847 957 q 779 710 800 819 l 751 710 q 758 750 756 729 q 760 788 760 771 q 737 883 760 842 q 670 947 714 924 q 561 969 626 969 q 442 934 492 969 q 393 818 393 899 q 417 724 393 769 q 477 636 440 679 q 556 549 514 593 q 635 460 597 506 q 696 365 672 415 q 719 258 719 315 q 683 131 719 183 q 588 44 646 78 q 463 -4 529 11 q 336 -19 396 -19 q 228 -11 271 -19 q 156 12 186 -3 q 96 44 125 26 q 68 60 81 54 q 47 65 56 65 q 18 49 29 65 q -11 -10 7 32 l -39 -10 q -12 61 -26 21 q 18 165 1 101 q 56 324 35 228 l 83 324 q 73 270 76 300 q 71 214 69 240 q 133 63 75 115 q 297 11 190 11 q 434 50 392 11 q 476 157 476 89 q 455 264 476 215 q 399 356 433 313 q 328 440 365 399 q 256 524 290 481 q 201 617 222 567 q 181 725 181 667 q 211 848 181 796 q 293 935 242 900 q 404 986 344 969 q 522 1003 464 1003 q 656 983 604 1003 q 742 942 707 963 q 767 926 754 933 q 788 919 781 919 q 833 993 807 919 l 861 993 m 644 1219 q 783 1264 704 1242 q 946 1301 863 1286 l 953 1282 q 736 1188 836 1247 q 576 1067 636 1129 l 551 1067 q 479 1192 522 1140 q 358 1282 436 1244 l 364 1301 q 479 1277 431 1290 q 567 1249 528 1264 q 644 1219 607 1235 z "},"Ş":{"ha":815,"x_min":-39,"x_max":861,"o":"m 861 993 q 824 888 847 957 q 779 710 800 819 l 751 710 q 758 750 756 729 q 760 788 760 771 q 737 883 760 842 q 670 947 714 924 q 561 969 626 969 q 442 934 492 969 q 393 818 393 899 q 417 724 393 769 q 477 636 440 679 q 556 549 514 593 q 635 460 597 506 q 696 365 672 415 q 719 258 719 315 q 683 131 719 183 q 588 44 646 78 q 463 -4 529 11 q 336 -19 396 -19 q 228 -11 271 -19 q 156 12 186 -3 q 96 44 125 26 q 68 60 81 54 q 47 65 56 65 q 18 49 29 65 q -11 -10 7 32 l -39 -10 q -12 61 -26 21 q 18 165 1 101 q 56 324 35 228 l 83 324 q 73 270 76 300 q 71 214 69 240 q 133 63 75 115 q 297 11 190 11 q 434 50 392 11 q 476 157 476 89 q 455 264 476 215 q 399 356 433 313 q 328 440 365 399 q 256 524 290 481 q 201 617 222 567 q 181 725 181 667 q 211 848 181 796 q 293 935 242 900 q 404 986 344 969 q 522 1003 464 1003 q 656 983 604 1003 q 742 942 707 963 q 767 926 754 933 q 788 919 781 919 q 833 993 807 919 l 861 993 m 339 8 l 296 -87 q 335 -78 314 -82 q 376 -74 357 -74 q 444 -90 418 -74 q 469 -140 469 -106 q 433 -210 469 -183 q 343 -249 397 -236 q 233 -261 289 -261 q 142 -252 183 -261 q 82 -233 101 -243 l 90 -212 q 134 -222 103 -215 q 203 -228 165 -228 q 253 -223 224 -228 q 306 -204 283 -218 q 328 -164 328 -190 q 283 -132 328 -132 q 261 -134 275 -132 q 235 -142 247 -136 l 301 8 l 339 8 z "},"Ŝ":{"ha":815,"x_min":-39,"x_max":861,"o":"m 861 993 q 824 888 847 957 q 779 710 800 819 l 751 710 q 758 750 756 729 q 760 788 760 771 q 737 883 760 842 q 670 947 714 924 q 561 969 626 969 q 442 934 492 969 q 393 818 393 899 q 417 724 393 769 q 477 636 440 679 q 556 549 514 593 q 635 460 597 506 q 696 365 672 415 q 719 258 719 315 q 683 131 719 183 q 588 44 646 78 q 463 -4 529 11 q 336 -19 396 -19 q 228 -11 271 -19 q 156 12 186 -3 q 96 44 125 26 q 68 60 81 54 q 47 65 56 65 q 18 49 29 65 q -11 -10 7 32 l -39 -10 q -12 61 -26 21 q 18 165 1 101 q 56 324 35 228 l 83 324 q 73 270 76 300 q 71 214 69 240 q 133 63 75 115 q 297 11 190 11 q 434 50 392 11 q 476 157 476 89 q 455 264 476 215 q 399 356 433 313 q 328 440 365 399 q 256 524 290 481 q 201 617 222 567 q 181 725 181 667 q 211 848 181 796 q 293 935 242 900 q 404 986 344 969 q 522 1003 464 1003 q 656 983 604 1003 q 742 942 707 963 q 767 926 754 933 q 788 919 781 919 q 833 993 807 919 l 861 993 m 565 1153 q 426 1108 506 1131 q 263 1071 346 1086 l 256 1090 q 472 1185 372 1126 q 632 1306 572 1243 l 657 1306 q 731 1181 688 1233 q 850 1090 774 1128 l 844 1071 q 729 1095 778 1082 q 642 1123 681 1108 q 565 1153 603 1138 z "},"Ș":{"ha":815,"x_min":-39,"x_max":861,"o":"m 861 993 q 824 888 847 957 q 779 710 800 819 l 751 710 q 758 750 756 729 q 760 788 760 771 q 737 883 760 842 q 670 947 714 924 q 561 969 626 969 q 442 934 492 969 q 393 818 393 899 q 417 724 393 769 q 477 636 440 679 q 556 549 514 593 q 635 460 597 506 q 696 365 672 415 q 719 258 719 315 q 683 131 719 183 q 588 44 646 78 q 463 -4 529 11 q 336 -19 396 -19 q 228 -11 271 -19 q 156 12 186 -3 q 96 44 125 26 q 68 60 81 54 q 47 65 56 65 q 18 49 29 65 q -11 -10 7 32 l -39 -10 q -12 61 -26 21 q 18 165 1 101 q 56 324 35 228 l 83 324 q 73 270 76 300 q 71 214 69 240 q 133 63 75 115 q 297 11 190 11 q 434 50 392 11 q 476 157 476 89 q 455 264 476 215 q 399 356 433 313 q 328 440 365 399 q 256 524 290 481 q 201 617 222 567 q 181 725 181 667 q 211 848 181 796 q 293 935 242 900 q 404 986 344 969 q 522 1003 464 1003 q 656 983 604 1003 q 742 942 707 963 q 767 926 754 933 q 788 919 781 919 q 833 993 807 919 l 861 993 m 297 -74 q 363 -94 333 -74 q 392 -158 392 -115 q 343 -274 392 -228 q 200 -335 294 -321 l 197 -308 q 288 -282 249 -303 q 335 -228 328 -261 q 300 -244 321 -237 q 256 -251 279 -251 q 194 -234 217 -251 q 172 -183 172 -217 q 208 -106 172 -137 q 297 -74 244 -74 z "},"ẞ":{"ha":914,"x_min":-85,"x_max":892,"o":"m 138 -240 q 19 -247 72 -242 q -85 -261 -33 -251 l 154 635 q 259 849 190 768 q 423 966 328 929 q 632 1003 518 1003 q 822 960 753 1003 q 892 821 892 917 q 840 687 892 747 q 707 585 789 626 q 532 519 625 543 q 717 473 650 510 q 812 385 783 436 q 840 283 840 335 q 808 158 840 214 q 721 63 776 101 q 591 2 665 24 q 432 -19 517 -19 q 323 5 367 -19 q 279 85 279 29 q 293 146 279 117 q 333 194 307 175 q 396 214 360 214 q 458 190 435 214 q 482 131 482 167 q 451 54 482 89 q 378 8 421 19 q 403 4 389 6 q 426 3 418 3 q 524 38 482 3 q 591 138 567 74 q 615 288 615 203 q 602 390 615 339 q 565 474 589 440 q 504 507 540 507 q 465 495 482 500 q 432 490 447 490 q 404 507 404 490 q 416 526 404 518 q 443 535 428 535 q 476 531 460 535 q 513 522 492 528 q 594 613 560 553 q 648 742 629 672 q 667 874 667 813 q 653 956 667 929 q 594 982 639 982 q 527 963 561 982 q 464 900 493 944 q 414 779 435 856 l 138 -240 z "},"Ə":{"ha":1063,"x_min":58,"x_max":1049,"o":"m 406 -19 q 222 20 300 -19 q 101 135 143 60 q 58 315 58 210 q 67 410 58 360 q 89 508 75 460 l 854 508 l 850 482 l 314 482 q 298 390 304 436 q 292 296 292 343 q 330 84 292 163 q 438 6 368 6 q 543 44 490 6 q 643 149 596 82 q 728 301 690 215 q 786 480 765 386 q 807 668 807 574 q 751 886 807 813 q 579 960 696 960 q 478 944 529 960 q 385 900 426 929 q 291 806 329 865 q 219 650 253 746 l 188 650 q 221 769 207 714 q 245 878 235 825 q 264 983 256 931 l 296 983 q 293 956 294 968 q 292 935 292 944 q 310 901 292 901 q 342 913 319 901 q 419 952 375 931 q 522 989 463 974 q 664 1004 582 1004 q 951 913 854 1004 q 1049 661 1049 821 q 1019 477 1049 572 q 935 294 990 382 q 801 135 879 206 q 622 22 722 64 q 406 -19 522 -19 z "},"T":{"ha":946,"x_min":119,"x_max":1192,"o":"m 1085 1192 q 1163 1162 1135 1192 q 1192 1094 1192 1132 q 1166 1017 1192 1050 q 1096 963 1140 983 q 996 933 1054 943 q 864 922 938 922 q 753 927 813 922 q 633 939 694 932 q 512 951 571 946 q 401 956 453 956 q 311 951 354 956 q 244 932 268 946 q 304 892 281 922 q 328 819 328 861 q 298 738 328 772 q 219 703 268 703 q 145 735 171 703 q 119 813 119 768 q 138 884 119 846 q 210 947 157 922 q 279 971 243 964 q 347 979 315 978 q 396 981 379 981 q 564 973 482 981 q 724 958 646 965 q 876 950 803 950 q 967 956 931 950 q 1035 972 1004 961 l 1032 961 q 993 1008 1011 978 q 975 1078 975 1039 q 1005 1160 975 1128 q 1085 1192 1035 1192 m 571 957 q 592 955 571 957 q 646 950 614 953 q 710 944 678 947 q 764 940 742 942 q 786 938 786 938 l 579 161 q 570 83 567 111 q 601 42 574 54 q 683 28 628 31 l 678 0 q 565 3 635 3 q 421 4 496 4 q 283 3 349 4 q 176 0 217 3 l 182 28 q 274 42 240 31 q 327 83 308 54 q 358 161 346 111 l 571 957 z "},"Ŧ":{"ha":946,"x_min":119,"x_max":1192,"o":"m 1085 1192 q 1163 1162 1135 1192 q 1192 1094 1192 1132 q 1166 1017 1192 1050 q 1096 963 1140 983 q 996 933 1054 943 q 864 922 938 922 q 753 927 813 922 q 633 939 694 932 q 512 951 571 946 q 401 956 453 956 q 311 951 354 956 q 244 932 268 946 q 304 892 281 922 q 328 819 328 861 q 298 738 328 772 q 219 703 268 703 q 145 735 171 703 q 119 813 119 768 q 138 884 119 846 q 210 947 157 922 q 279 971 243 964 q 347 979 315 978 q 396 981 379 981 q 564 973 482 981 q 724 958 646 965 q 876 950 803 950 q 967 956 931 950 q 1035 972 1004 961 l 1032 961 q 993 1008 1011 978 q 975 1078 975 1039 q 1005 1160 975 1128 q 1085 1192 1035 1192 m 571 957 q 592 955 571 957 q 646 950 614 953 q 710 944 678 947 q 764 940 742 942 q 786 938 786 938 l 579 161 q 570 83 567 111 q 601 42 574 54 q 683 28 628 31 l 678 0 q 565 3 635 3 q 421 4 496 4 q 283 3 349 4 q 176 0 217 3 l 182 28 q 274 42 240 31 q 327 83 308 54 q 358 161 346 111 l 571 957 m 844 508 l 836 474 l 247 474 l 256 508 l 844 508 z "},"Ť":{"ha":946,"x_min":119,"x_max":1192,"o":"m 1085 1192 q 1163 1162 1135 1192 q 1192 1094 1192 1132 q 1166 1017 1192 1050 q 1096 963 1140 983 q 996 933 1054 943 q 864 922 938 922 q 753 927 813 922 q 633 939 694 932 q 512 951 571 946 q 401 956 453 956 q 311 951 354 956 q 244 932 268 946 q 304 892 281 922 q 328 819 328 861 q 298 738 328 772 q 219 703 268 703 q 145 735 171 703 q 119 813 119 768 q 138 884 119 846 q 210 947 157 922 q 279 971 243 964 q 347 979 315 978 q 396 981 379 981 q 564 973 482 981 q 724 958 646 965 q 876 950 803 950 q 967 956 931 950 q 1035 972 1004 961 l 1032 961 q 993 1008 1011 978 q 975 1078 975 1039 q 1005 1160 975 1128 q 1085 1192 1035 1192 m 571 957 q 592 955 571 957 q 646 950 614 953 q 710 944 678 947 q 764 940 742 942 q 786 938 786 938 l 579 161 q 570 83 567 111 q 601 42 574 54 q 683 28 628 31 l 678 0 q 565 3 635 3 q 421 4 496 4 q 283 3 349 4 q 176 0 217 3 l 182 28 q 274 42 240 31 q 327 83 308 54 q 358 161 346 111 l 571 957 m 757 1219 q 896 1264 817 1242 q 1058 1301 975 1286 l 1065 1282 q 849 1188 949 1247 q 689 1067 749 1129 l 664 1067 q 592 1192 635 1140 q 471 1282 549 1244 l 476 1301 q 592 1277 543 1290 q 680 1249 640 1264 q 757 1219 719 1235 z "},"Ţ":{"ha":946,"x_min":119,"x_max":1192,"o":"m 1085 1192 q 1163 1162 1135 1192 q 1192 1094 1192 1132 q 1166 1017 1192 1050 q 1096 963 1140 983 q 996 933 1054 943 q 864 922 938 922 q 753 927 813 922 q 633 939 694 932 q 512 951 571 946 q 401 956 453 956 q 311 951 354 956 q 244 932 268 946 q 304 892 281 922 q 328 819 328 861 q 298 738 328 772 q 219 703 268 703 q 145 735 171 703 q 119 813 119 768 q 138 884 119 846 q 210 947 157 922 q 279 971 243 964 q 347 979 315 978 q 396 981 379 981 q 564 973 482 981 q 724 958 646 965 q 876 950 803 950 q 967 956 931 950 q 1035 972 1004 961 l 1032 961 q 993 1008 1011 978 q 975 1078 975 1039 q 1005 1160 975 1128 q 1085 1192 1035 1192 m 571 957 q 592 955 571 957 q 646 950 614 953 q 710 944 678 947 q 764 940 742 942 q 786 938 786 938 l 579 161 q 570 83 567 111 q 601 42 574 54 q 683 28 628 31 l 678 0 q 565 3 635 3 q 421 4 496 4 q 283 3 349 4 q 176 0 217 3 l 182 28 q 274 42 240 31 q 327 83 308 54 q 358 161 346 111 l 571 957 m 443 8 l 400 -87 q 440 -78 418 -82 q 481 -74 461 -74 q 548 -90 522 -74 q 574 -140 574 -106 q 538 -210 574 -183 q 447 -249 501 -236 q 338 -261 393 -261 q 247 -252 288 -261 q 186 -233 206 -243 l 194 -212 q 238 -222 207 -215 q 307 -228 269 -228 q 358 -223 328 -228 q 410 -204 388 -218 q 432 -164 432 -190 q 388 -132 432 -132 q 365 -134 379 -132 q 339 -142 351 -136 l 406 8 l 443 8 z "},"Ț":{"ha":946,"x_min":119,"x_max":1192,"o":"m 1085 1192 q 1163 1162 1135 1192 q 1192 1094 1192 1132 q 1166 1017 1192 1050 q 1096 963 1140 983 q 996 933 1054 943 q 864 922 938 922 q 753 927 813 922 q 633 939 694 932 q 512 951 571 946 q 401 956 453 956 q 311 951 354 956 q 244 932 268 946 q 304 892 281 922 q 328 819 328 861 q 298 738 328 772 q 219 703 268 703 q 145 735 171 703 q 119 813 119 768 q 138 884 119 846 q 210 947 157 922 q 279 971 243 964 q 347 979 315 978 q 396 981 379 981 q 564 973 482 981 q 724 958 646 965 q 876 950 803 950 q 967 956 931 950 q 1035 972 1004 961 l 1032 961 q 993 1008 1011 978 q 975 1078 975 1039 q 1005 1160 975 1128 q 1085 1192 1035 1192 m 571 957 q 592 955 571 957 q 646 950 614 953 q 710 944 678 947 q 764 940 742 942 q 786 938 786 938 l 579 161 q 570 83 567 111 q 601 42 574 54 q 683 28 628 31 l 678 0 q 565 3 635 3 q 421 4 496 4 q 283 3 349 4 q 176 0 217 3 l 182 28 q 274 42 240 31 q 327 83 308 54 q 358 161 346 111 l 571 957 m 403 -74 q 468 -94 439 -74 q 497 -158 497 -115 q 449 -274 497 -228 q 306 -335 400 -321 l 303 -308 q 394 -282 354 -303 q 440 -228 433 -261 q 406 -244 426 -237 q 361 -251 385 -251 q 300 -234 322 -251 q 278 -183 278 -217 q 314 -106 278 -137 q 403 -74 350 -74 z "},"U":{"ha":964,"x_min":104,"x_max":1088,"o":"m 893 756 q 915 873 914 832 q 891 932 915 914 q 810 956 867 950 l 817 983 q 885 981 843 982 q 965 979 928 979 q 1032 981 999 979 q 1088 983 1065 982 l 1081 956 q 1008 933 1035 950 q 963 878 981 915 q 928 772 946 840 l 833 404 q 697 110 783 213 q 573 16 647 51 q 413 -19 499 -19 q 242 10 308 -19 q 142 90 175 39 q 105 218 104 144 q 135 400 106 292 l 250 836 q 261 912 264 888 q 237 945 258 936 q 168 956 215 954 l 176 983 q 274 981 211 982 q 406 979 336 979 q 522 981 467 979 q 621 983 578 982 l 613 956 q 539 945 565 954 q 498 912 513 936 q 469 836 483 888 l 347 376 q 317 226 325 290 q 319 117 308 161 q 360 51 331 74 q 439 29 389 29 q 613 76 543 29 q 726 204 682 122 q 797 389 771 286 l 893 756 z "},"Ú":{"ha":964,"x_min":104,"x_max":1088,"o":"m 893 756 q 915 873 914 832 q 891 932 915 914 q 810 956 867 950 l 817 983 q 885 981 843 982 q 965 979 928 979 q 1032 981 999 979 q 1088 983 1065 982 l 1081 956 q 1008 933 1035 950 q 963 878 981 915 q 928 772 946 840 l 833 404 q 697 110 783 213 q 573 16 647 51 q 413 -19 499 -19 q 242 10 308 -19 q 142 90 175 39 q 105 218 104 144 q 135 400 106 292 l 250 836 q 261 912 264 888 q 237 945 258 936 q 168 956 215 954 l 176 983 q 274 981 211 982 q 406 979 336 979 q 522 981 467 979 q 621 983 578 982 l 613 956 q 539 945 565 954 q 498 912 513 936 q 469 836 483 888 l 347 376 q 317 226 325 290 q 319 117 308 161 q 360 51 331 74 q 439 29 389 29 q 613 76 543 29 q 726 204 682 122 q 797 389 771 286 l 893 756 m 658 1089 q 772 1186 728 1143 q 851 1260 817 1229 q 922 1313 885 1292 q 967 1327 942 1324 q 1015 1323 992 1331 q 1049 1290 1038 1315 q 1047 1230 1065 1258 q 993 1183 1028 1201 q 913 1151 958 1164 q 808 1121 868 1138 q 668 1072 749 1104 l 658 1089 z "},"Ŭ":{"ha":964,"x_min":104,"x_max":1088,"o":"m 893 756 q 915 873 914 832 q 891 932 915 914 q 810 956 867 950 l 817 983 q 885 981 843 982 q 965 979 928 979 q 1032 981 999 979 q 1088 983 1065 982 l 1081 956 q 1008 933 1035 950 q 963 878 981 915 q 928 772 946 840 l 833 404 q 697 110 783 213 q 573 16 647 51 q 413 -19 499 -19 q 242 10 308 -19 q 142 90 175 39 q 105 218 104 144 q 135 400 106 292 l 250 836 q 261 912 264 888 q 237 945 258 936 q 168 956 215 954 l 176 983 q 274 981 211 982 q 406 979 336 979 q 522 981 467 979 q 621 983 578 982 l 613 956 q 539 945 565 954 q 498 912 513 936 q 469 836 483 888 l 347 376 q 317 226 325 290 q 319 117 308 161 q 360 51 331 74 q 439 29 389 29 q 613 76 543 29 q 726 204 682 122 q 797 389 771 286 l 893 756 m 708 1207 q 878 1227 797 1207 q 1025 1286 958 1247 l 1040 1272 q 946 1176 1004 1222 q 819 1100 888 1129 q 681 1071 750 1071 q 571 1097 617 1071 q 498 1169 525 1124 q 461 1271 471 1215 l 482 1281 q 574 1224 522 1242 q 708 1207 626 1207 z "},"Ǔ":{"ha":964,"x_min":104,"x_max":1088,"o":"m 893 756 q 915 873 914 832 q 891 932 915 914 q 810 956 867 950 l 817 983 q 885 981 843 982 q 965 979 928 979 q 1032 981 999 979 q 1088 983 1065 982 l 1081 956 q 1008 933 1035 950 q 963 878 981 915 q 928 772 946 840 l 833 404 q 697 110 783 213 q 573 16 647 51 q 413 -19 499 -19 q 242 10 308 -19 q 142 90 175 39 q 105 218 104 144 q 135 400 106 292 l 250 836 q 261 912 264 888 q 237 945 258 936 q 168 956 215 954 l 176 983 q 274 981 211 982 q 406 979 336 979 q 522 981 467 979 q 621 983 578 982 l 613 956 q 539 945 565 954 q 498 912 513 936 q 469 836 483 888 l 347 376 q 317 226 325 290 q 319 117 308 161 q 360 51 331 74 q 439 29 389 29 q 613 76 543 29 q 726 204 682 122 q 797 389 771 286 l 893 756 m 768 1219 q 907 1264 828 1242 q 1069 1301 986 1286 l 1076 1282 q 860 1188 960 1247 q 700 1067 760 1129 l 675 1067 q 603 1192 646 1140 q 482 1282 560 1244 l 488 1301 q 603 1277 554 1290 q 691 1249 651 1264 q 768 1219 731 1235 z "},"Û":{"ha":964,"x_min":104,"x_max":1088,"o":"m 893 756 q 915 873 914 832 q 891 932 915 914 q 810 956 867 950 l 817 983 q 885 981 843 982 q 965 979 928 979 q 1032 981 999 979 q 1088 983 1065 982 l 1081 956 q 1008 933 1035 950 q 963 878 981 915 q 928 772 946 840 l 833 404 q 697 110 783 213 q 573 16 647 51 q 413 -19 499 -19 q 242 10 308 -19 q 142 90 175 39 q 105 218 104 144 q 135 400 106 292 l 250 836 q 261 912 264 888 q 237 945 258 936 q 168 956 215 954 l 176 983 q 274 981 211 982 q 406 979 336 979 q 522 981 467 979 q 621 983 578 982 l 613 956 q 539 945 565 954 q 498 912 513 936 q 469 836 483 888 l 347 376 q 317 226 325 290 q 319 117 308 161 q 360 51 331 74 q 439 29 389 29 q 613 76 543 29 q 726 204 682 122 q 797 389 771 286 l 893 756 m 688 1153 q 548 1108 628 1131 q 385 1071 468 1086 l 378 1090 q 594 1185 494 1126 q 754 1306 694 1243 l 779 1306 q 853 1181 810 1233 q 972 1090 896 1128 l 967 1071 q 851 1095 900 1082 q 764 1123 803 1108 q 688 1153 725 1138 z "},"Ü":{"ha":964,"x_min":104,"x_max":1088,"o":"m 893 756 q 915 873 914 832 q 891 932 915 914 q 810 956 867 950 l 817 983 q 885 981 843 982 q 965 979 928 979 q 1032 981 999 979 q 1088 983 1065 982 l 1081 956 q 1008 933 1035 950 q 963 878 981 915 q 928 772 946 840 l 833 404 q 697 110 783 213 q 573 16 647 51 q 413 -19 499 -19 q 242 10 308 -19 q 142 90 175 39 q 105 218 104 144 q 135 400 106 292 l 250 836 q 261 912 264 888 q 237 945 258 936 q 168 956 215 954 l 176 983 q 274 981 211 982 q 406 979 336 979 q 522 981 467 979 q 621 983 578 982 l 613 956 q 539 945 565 954 q 498 912 513 936 q 469 836 483 888 l 347 376 q 317 226 325 290 q 319 117 308 161 q 360 51 331 74 q 439 29 389 29 q 613 76 543 29 q 726 204 682 122 q 797 389 771 286 l 893 756 m 435 1156 q 472 1242 435 1211 q 554 1274 508 1274 q 622 1247 600 1274 q 644 1181 644 1221 q 627 1117 644 1143 q 583 1077 610 1090 q 524 1064 556 1064 q 457 1090 479 1064 q 435 1156 435 1115 m 768 1156 q 804 1242 768 1211 q 888 1274 840 1274 q 955 1247 932 1274 q 978 1181 978 1221 q 960 1117 978 1143 q 915 1077 943 1090 q 857 1064 888 1064 q 790 1090 811 1064 q 768 1156 768 1115 z "},"Ụ":{"ha":964,"x_min":104,"x_max":1088,"o":"m 893 756 q 915 873 914 832 q 891 932 915 914 q 810 956 867 950 l 817 983 q 885 981 843 982 q 965 979 928 979 q 1032 981 999 979 q 1088 983 1065 982 l 1081 956 q 1008 933 1035 950 q 963 878 981 915 q 928 772 946 840 l 833 404 q 697 110 783 213 q 573 16 647 51 q 413 -19 499 -19 q 242 10 308 -19 q 142 90 175 39 q 105 218 104 144 q 135 400 106 292 l 250 836 q 261 912 264 888 q 237 945 258 936 q 168 956 215 954 l 176 983 q 274 981 211 982 q 406 979 336 979 q 522 981 467 979 q 621 983 578 982 l 613 956 q 539 945 565 954 q 498 912 513 936 q 469 836 483 888 l 347 376 q 317 226 325 290 q 319 117 308 161 q 360 51 331 74 q 439 29 389 29 q 613 76 543 29 q 726 204 682 122 q 797 389 771 286 l 893 756 m 383 -260 q 317 -241 340 -260 q 293 -187 293 -222 q 326 -106 293 -136 q 415 -76 360 -76 q 482 -95 458 -76 q 506 -149 506 -114 q 471 -231 506 -201 q 383 -260 436 -260 z "},"Ù":{"ha":964,"x_min":104,"x_max":1088,"o":"m 893 756 q 915 873 914 832 q 891 932 915 914 q 810 956 867 950 l 817 983 q 885 981 843 982 q 965 979 928 979 q 1032 981 999 979 q 1088 983 1065 982 l 1081 956 q 1008 933 1035 950 q 963 878 981 915 q 928 772 946 840 l 833 404 q 697 110 783 213 q 573 16 647 51 q 413 -19 499 -19 q 242 10 308 -19 q 142 90 175 39 q 105 218 104 144 q 135 400 106 292 l 250 836 q 261 912 264 888 q 237 945 258 936 q 168 956 215 954 l 176 983 q 274 981 211 982 q 406 979 336 979 q 522 981 467 979 q 621 983 578 982 l 613 956 q 539 945 565 954 q 498 912 513 936 q 469 836 483 888 l 347 376 q 317 226 325 290 q 319 117 308 161 q 360 51 331 74 q 439 29 389 29 q 613 76 543 29 q 726 204 682 122 q 797 389 771 286 l 893 756 m 744 1071 q 625 1121 674 1104 q 542 1149 576 1138 q 479 1179 508 1161 q 441 1226 453 1197 q 446 1285 429 1256 q 499 1317 464 1315 q 561 1303 535 1319 q 612 1256 590 1286 q 666 1185 633 1226 q 756 1086 699 1143 l 744 1071 z "},"Ủ":{"ha":964,"x_min":104,"x_max":1088,"o":"m 893 756 q 915 873 914 832 q 891 932 915 914 q 810 956 867 950 l 817 983 q 885 981 843 982 q 965 979 928 979 q 1032 981 999 979 q 1088 983 1065 982 l 1081 956 q 1008 933 1035 950 q 963 878 981 915 q 928 772 946 840 l 833 404 q 697 110 783 213 q 573 16 647 51 q 413 -19 499 -19 q 242 10 308 -19 q 142 90 175 39 q 105 218 104 144 q 135 400 106 292 l 250 836 q 261 912 264 888 q 237 945 258 936 q 168 956 215 954 l 176 983 q 274 981 211 982 q 406 979 336 979 q 522 981 467 979 q 621 983 578 982 l 613 956 q 539 945 565 954 q 498 912 513 936 q 469 836 483 888 l 347 376 q 317 226 325 290 q 319 117 308 161 q 360 51 331 74 q 439 29 389 29 q 613 76 543 29 q 726 204 682 122 q 797 389 771 286 l 893 756 m 669 1032 q 694 1101 675 1075 q 734 1144 713 1126 q 772 1185 756 1163 q 788 1247 788 1208 q 765 1310 788 1292 q 704 1329 743 1329 q 668 1325 685 1329 q 642 1314 651 1321 q 677 1288 664 1304 q 690 1244 690 1271 q 666 1190 690 1211 q 606 1168 642 1168 q 556 1185 575 1168 q 536 1232 536 1203 q 560 1289 536 1265 q 617 1328 583 1313 q 676 1348 642 1340 q 754 1356 711 1356 q 870 1332 824 1356 q 917 1254 917 1308 q 897 1196 917 1217 q 845 1160 876 1175 q 782 1131 814 1146 q 726 1094 750 1117 q 697 1032 703 1072 l 669 1032 z "},"Ư":{"ha":964,"x_min":101,"x_max":1194,"o":"m 399 -19 q 244 9 311 -19 q 142 90 176 38 q 105 224 101 146 q 135 400 108 301 l 250 836 q 260 911 263 886 q 237 945 258 936 q 168 956 215 954 l 176 983 q 274 981 211 982 q 400 979 336 979 q 522 981 465 979 q 621 983 578 982 l 613 956 q 539 945 565 954 q 498 912 513 936 q 469 836 483 888 l 347 376 q 313 178 315 256 q 346 65 311 101 q 456 29 381 29 q 614 77 547 29 q 726 206 681 125 q 797 389 771 288 l 944 963 l 949 951 q 878 951 914 950 q 808 956 843 951 l 815 983 q 865 980 842 982 q 917 978 889 978 q 1004 984 964 978 q 1082 1015 1044 990 l 1079 1006 q 1025 1050 1050 1021 q 1000 1118 1000 1079 q 1027 1188 1000 1160 q 1096 1215 1054 1215 q 1167 1188 1139 1215 q 1194 1117 1194 1161 q 1169 1046 1194 1076 q 1106 994 1144 1015 q 1033 964 1068 974 q 965 951 999 954 l 976 961 l 832 404 q 776 240 808 315 q 697 110 744 165 q 574 16 647 51 q 399 -19 500 -19 z "},"Ứ":{"ha":964,"x_min":101,"x_max":1194,"o":"m 399 -19 q 244 9 311 -19 q 142 90 176 38 q 105 224 101 146 q 135 400 108 301 l 250 836 q 260 911 263 886 q 237 945 258 936 q 168 956 215 954 l 176 983 q 274 981 211 982 q 400 979 336 979 q 522 981 465 979 q 621 983 578 982 l 613 956 q 539 945 565 954 q 498 912 513 936 q 469 836 483 888 l 347 376 q 313 178 315 256 q 346 65 311 101 q 456 29 381 29 q 614 77 547 29 q 726 206 681 125 q 797 389 771 288 l 944 963 l 949 951 q 878 951 914 950 q 808 956 843 951 l 815 983 q 865 980 842 982 q 917 978 889 978 q 1004 984 964 978 q 1082 1015 1044 990 l 1079 1006 q 1025 1050 1050 1021 q 1000 1118 1000 1079 q 1027 1188 1000 1160 q 1096 1215 1054 1215 q 1167 1188 1139 1215 q 1194 1117 1194 1161 q 1169 1046 1194 1076 q 1106 994 1144 1015 q 1033 964 1068 974 q 965 951 999 954 l 976 961 l 832 404 q 776 240 808 315 q 697 110 744 165 q 574 16 647 51 q 399 -19 500 -19 m 658 1089 q 772 1186 728 1143 q 851 1260 817 1229 q 922 1313 885 1292 q 967 1327 942 1324 q 1015 1323 992 1331 q 1049 1290 1038 1315 q 1047 1230 1065 1258 q 993 1183 1028 1201 q 913 1151 958 1164 q 808 1121 868 1138 q 668 1072 749 1104 l 658 1089 z "},"Ự":{"ha":964,"x_min":101,"x_max":1194,"o":"m 399 -19 q 244 9 311 -19 q 142 90 176 38 q 105 224 101 146 q 135 400 108 301 l 250 836 q 260 911 263 886 q 237 945 258 936 q 168 956 215 954 l 176 983 q 274 981 211 982 q 400 979 336 979 q 522 981 465 979 q 621 983 578 982 l 613 956 q 539 945 565 954 q 498 912 513 936 q 469 836 483 888 l 347 376 q 313 178 315 256 q 346 65 311 101 q 456 29 381 29 q 614 77 547 29 q 726 206 681 125 q 797 389 771 288 l 944 963 l 949 951 q 878 951 914 950 q 808 956 843 951 l 815 983 q 865 980 842 982 q 917 978 889 978 q 1004 984 964 978 q 1082 1015 1044 990 l 1079 1006 q 1025 1050 1050 1021 q 1000 1118 1000 1079 q 1027 1188 1000 1160 q 1096 1215 1054 1215 q 1167 1188 1139 1215 q 1194 1117 1194 1161 q 1169 1046 1194 1076 q 1106 994 1144 1015 q 1033 964 1068 974 q 965 951 999 954 l 976 961 l 832 404 q 776 240 808 315 q 697 110 744 165 q 574 16 647 51 q 399 -19 500 -19 m 383 -260 q 317 -241 340 -260 q 293 -187 293 -222 q 326 -106 293 -136 q 415 -76 360 -76 q 482 -95 458 -76 q 506 -149 506 -114 q 471 -231 506 -201 q 383 -260 436 -260 z "},"Ừ":{"ha":964,"x_min":101,"x_max":1194,"o":"m 399 -19 q 244 9 311 -19 q 142 90 176 38 q 105 224 101 146 q 135 400 108 301 l 250 836 q 260 911 263 886 q 237 945 258 936 q 168 956 215 954 l 176 983 q 274 981 211 982 q 400 979 336 979 q 522 981 465 979 q 621 983 578 982 l 613 956 q 539 945 565 954 q 498 912 513 936 q 469 836 483 888 l 347 376 q 313 178 315 256 q 346 65 311 101 q 456 29 381 29 q 614 77 547 29 q 726 206 681 125 q 797 389 771 288 l 944 963 l 949 951 q 878 951 914 950 q 808 956 843 951 l 815 983 q 865 980 842 982 q 917 978 889 978 q 1004 984 964 978 q 1082 1015 1044 990 l 1079 1006 q 1025 1050 1050 1021 q 1000 1118 1000 1079 q 1027 1188 1000 1160 q 1096 1215 1054 1215 q 1167 1188 1139 1215 q 1194 1117 1194 1161 q 1169 1046 1194 1076 q 1106 994 1144 1015 q 1033 964 1068 974 q 965 951 999 954 l 976 961 l 832 404 q 776 240 808 315 q 697 110 744 165 q 574 16 647 51 q 399 -19 500 -19 m 744 1071 q 625 1121 674 1104 q 542 1149 576 1138 q 479 1179 508 1161 q 441 1226 453 1197 q 446 1285 429 1256 q 499 1317 464 1315 q 561 1303 535 1319 q 612 1256 590 1286 q 666 1185 633 1226 q 756 1086 699 1143 l 744 1071 z "},"Ử":{"ha":964,"x_min":101,"x_max":1194,"o":"m 399 -19 q 244 9 311 -19 q 142 90 176 38 q 105 224 101 146 q 135 400 108 301 l 250 836 q 260 911 263 886 q 237 945 258 936 q 168 956 215 954 l 176 983 q 274 981 211 982 q 400 979 336 979 q 522 981 465 979 q 621 983 578 982 l 613 956 q 539 945 565 954 q 498 912 513 936 q 469 836 483 888 l 347 376 q 313 178 315 256 q 346 65 311 101 q 456 29 381 29 q 614 77 547 29 q 726 206 681 125 q 797 389 771 288 l 944 963 l 949 951 q 878 951 914 950 q 808 956 843 951 l 815 983 q 865 980 842 982 q 917 978 889 978 q 1004 984 964 978 q 1082 1015 1044 990 l 1079 1006 q 1025 1050 1050 1021 q 1000 1118 1000 1079 q 1027 1188 1000 1160 q 1096 1215 1054 1215 q 1167 1188 1139 1215 q 1194 1117 1194 1161 q 1169 1046 1194 1076 q 1106 994 1144 1015 q 1033 964 1068 974 q 965 951 999 954 l 976 961 l 832 404 q 776 240 808 315 q 697 110 744 165 q 574 16 647 51 q 399 -19 500 -19 m 669 1032 q 694 1101 675 1075 q 734 1144 713 1126 q 772 1185 756 1163 q 788 1247 788 1208 q 765 1310 788 1292 q 704 1329 743 1329 q 668 1325 685 1329 q 642 1314 651 1321 q 677 1288 664 1304 q 690 1244 690 1271 q 666 1190 690 1211 q 606 1168 642 1168 q 556 1185 575 1168 q 536 1232 536 1203 q 560 1289 536 1265 q 617 1328 583 1313 q 676 1348 642 1340 q 754 1356 711 1356 q 870 1332 824 1356 q 917 1254 917 1308 q 897 1196 917 1217 q 845 1160 876 1175 q 782 1131 814 1146 q 726 1094 750 1117 q 697 1032 703 1072 l 669 1032 z "},"Ữ":{"ha":964,"x_min":101,"x_max":1194,"o":"m 399 -19 q 244 9 311 -19 q 142 90 176 38 q 105 224 101 146 q 135 400 108 301 l 250 836 q 260 911 263 886 q 237 945 258 936 q 168 956 215 954 l 176 983 q 274 981 211 982 q 400 979 336 979 q 522 981 465 979 q 621 983 578 982 l 613 956 q 539 945 565 954 q 498 912 513 936 q 469 836 483 888 l 347 376 q 313 178 315 256 q 346 65 311 101 q 456 29 381 29 q 614 77 547 29 q 726 206 681 125 q 797 389 771 288 l 944 963 l 949 951 q 878 951 914 950 q 808 956 843 951 l 815 983 q 865 980 842 982 q 917 978 889 978 q 1004 984 964 978 q 1082 1015 1044 990 l 1079 1006 q 1025 1050 1050 1021 q 1000 1118 1000 1079 q 1027 1188 1000 1160 q 1096 1215 1054 1215 q 1167 1188 1139 1215 q 1194 1117 1194 1161 q 1169 1046 1194 1076 q 1106 994 1144 1015 q 1033 964 1068 974 q 965 951 999 954 l 976 961 l 832 404 q 776 240 808 315 q 697 110 744 165 q 574 16 647 51 q 399 -19 500 -19 m 638 1288 q 723 1272 689 1288 q 783 1237 757 1257 q 835 1201 808 1217 q 901 1186 863 1186 q 957 1205 931 1186 q 1008 1267 983 1224 l 1033 1260 q 930 1112 993 1157 q 803 1067 867 1067 q 717 1082 751 1067 q 658 1117 683 1097 q 605 1153 632 1138 q 539 1168 578 1168 q 484 1150 510 1168 q 432 1088 458 1132 l 407 1094 q 510 1242 446 1197 q 638 1288 574 1288 z "},"Ű":{"ha":964,"x_min":104,"x_max":1088,"o":"m 893 756 q 915 873 914 832 q 891 932 915 914 q 810 956 867 950 l 817 983 q 885 981 843 982 q 965 979 928 979 q 1032 981 999 979 q 1088 983 1065 982 l 1081 956 q 1008 933 1035 950 q 963 878 981 915 q 928 772 946 840 l 833 404 q 697 110 783 213 q 573 16 647 51 q 413 -19 499 -19 q 242 10 308 -19 q 142 90 175 39 q 105 218 104 144 q 135 400 106 292 l 250 836 q 261 912 264 888 q 237 945 258 936 q 168 956 215 954 l 176 983 q 274 981 211 982 q 406 979 336 979 q 522 981 467 979 q 621 983 578 982 l 613 956 q 539 945 565 954 q 498 912 513 936 q 469 836 483 888 l 347 376 q 317 226 325 290 q 319 117 308 161 q 360 51 331 74 q 439 29 389 29 q 613 76 543 29 q 726 204 682 122 q 797 389 771 286 l 893 756 m 750 1088 q 826 1176 796 1136 q 881 1247 856 1215 q 933 1299 907 1278 q 993 1315 958 1315 q 1047 1282 1028 1314 q 1055 1225 1067 1256 q 1014 1175 1043 1194 q 949 1143 986 1157 q 866 1114 913 1129 q 761 1072 819 1099 l 750 1088 m 457 1088 q 533 1176 503 1136 q 588 1247 563 1215 q 640 1299 614 1278 q 700 1315 665 1317 q 756 1282 735 1313 q 761 1225 772 1254 q 721 1175 750 1196 q 656 1143 693 1157 q 573 1114 619 1129 q 468 1072 526 1099 l 457 1088 z "},"Ū":{"ha":964,"x_min":104,"x_max":1088,"o":"m 893 756 q 915 873 914 832 q 891 932 915 914 q 810 956 867 950 l 817 983 q 885 981 843 982 q 965 979 928 979 q 1032 981 999 979 q 1088 983 1065 982 l 1081 956 q 1008 933 1035 950 q 963 878 981 915 q 928 772 946 840 l 833 404 q 697 110 783 213 q 573 16 647 51 q 413 -19 499 -19 q 242 10 308 -19 q 142 90 175 39 q 105 218 104 144 q 135 400 106 292 l 250 836 q 261 912 264 888 q 237 945 258 936 q 168 956 215 954 l 176 983 q 274 981 211 982 q 406 979 336 979 q 522 981 467 979 q 621 983 578 982 l 613 956 q 539 945 565 954 q 498 912 513 936 q 469 836 483 888 l 347 376 q 317 226 325 290 q 319 117 308 161 q 360 51 331 74 q 439 29 389 29 q 613 76 543 29 q 726 204 682 122 q 797 389 771 286 l 893 756 m 965 1172 l 957 1138 l 401 1138 l 410 1172 l 965 1172 z "},"Ų":{"ha":964,"x_min":104,"x_max":1088,"o":"m 893 756 q 915 873 914 832 q 891 932 915 914 q 810 956 867 950 l 817 983 q 885 981 843 982 q 965 979 928 979 q 1032 981 999 979 q 1088 983 1065 982 l 1081 956 q 1008 933 1035 950 q 963 878 981 915 q 928 772 946 840 l 833 404 q 697 110 783 213 q 573 16 647 51 q 413 -19 499 -19 q 242 10 308 -19 q 142 90 175 39 q 105 218 104 144 q 135 400 106 292 l 250 836 q 261 912 264 888 q 237 945 258 936 q 168 956 215 954 l 176 983 q 274 981 211 982 q 406 979 336 979 q 522 981 467 979 q 621 983 578 982 l 613 956 q 539 945 565 954 q 498 912 513 936 q 469 836 483 888 l 347 376 q 317 226 325 290 q 319 117 308 161 q 360 51 331 74 q 439 29 389 29 q 613 76 543 29 q 726 204 682 122 q 797 389 771 286 l 893 756 m 542 4 q 468 -35 501 -11 q 415 -89 435 -60 q 396 -150 396 -118 q 442 -192 396 -192 q 492 -183 464 -192 q 543 -161 519 -175 l 558 -185 q 458 -243 508 -225 q 357 -261 408 -261 q 270 -239 301 -261 q 239 -178 239 -217 q 279 -98 239 -133 q 381 -37 319 -62 q 506 4 442 -11 l 542 4 z "},"Ů":{"ha":964,"x_min":104,"x_max":1088,"o":"m 893 756 q 915 873 914 832 q 891 932 915 914 q 810 956 867 950 l 817 983 q 885 981 843 982 q 965 979 928 979 q 1032 981 999 979 q 1088 983 1065 982 l 1081 956 q 1008 933 1035 950 q 963 878 981 915 q 928 772 946 840 l 833 404 q 697 110 783 213 q 573 16 647 51 q 413 -19 499 -19 q 242 10 308 -19 q 142 90 175 39 q 105 218 104 144 q 135 400 106 292 l 250 836 q 261 912 264 888 q 237 945 258 936 q 168 956 215 954 l 176 983 q 274 981 211 982 q 406 979 336 979 q 522 981 467 979 q 621 983 578 982 l 613 956 q 539 945 565 954 q 498 912 513 936 q 469 836 483 888 l 347 376 q 317 226 325 290 q 319 117 308 161 q 360 51 331 74 q 439 29 389 29 q 613 76 543 29 q 726 204 682 122 q 797 389 771 286 l 893 756 m 719 1301 q 817 1269 778 1301 q 856 1183 856 1238 q 832 1107 856 1142 q 769 1051 808 1072 q 683 1031 729 1031 q 590 1063 628 1031 q 551 1150 551 1094 q 574 1227 551 1193 q 635 1281 597 1261 q 719 1301 674 1301 m 689 1060 q 753 1076 722 1060 q 801 1119 783 1092 q 819 1182 819 1147 q 785 1250 819 1228 q 715 1272 751 1272 q 626 1235 664 1272 q 589 1150 589 1199 q 620 1083 589 1106 q 689 1060 651 1060 z "},"Ũ":{"ha":964,"x_min":104,"x_max":1088,"o":"m 893 756 q 915 873 914 832 q 891 932 915 914 q 810 956 867 950 l 817 983 q 885 981 843 982 q 965 979 928 979 q 1032 981 999 979 q 1088 983 1065 982 l 1081 956 q 1008 933 1035 950 q 963 878 981 915 q 928 772 946 840 l 833 404 q 697 110 783 213 q 573 16 647 51 q 413 -19 499 -19 q 242 10 308 -19 q 142 90 175 39 q 105 218 104 144 q 135 400 106 292 l 250 836 q 261 912 264 888 q 237 945 258 936 q 168 956 215 954 l 176 983 q 274 981 211 982 q 406 979 336 979 q 522 981 467 979 q 621 983 578 982 l 613 956 q 539 945 565 954 q 498 912 513 936 q 469 836 483 888 l 347 376 q 317 226 325 290 q 319 117 308 161 q 360 51 331 74 q 439 29 389 29 q 613 76 543 29 q 726 204 682 122 q 797 389 771 286 l 893 756 m 638 1288 q 723 1272 689 1288 q 783 1237 757 1257 q 835 1201 808 1217 q 901 1186 863 1186 q 957 1205 931 1186 q 1008 1267 983 1224 l 1033 1260 q 930 1112 993 1157 q 803 1067 867 1067 q 717 1082 751 1067 q 658 1117 683 1097 q 605 1153 632 1138 q 539 1168 578 1168 q 484 1150 510 1168 q 432 1088 458 1132 l 407 1094 q 510 1242 446 1197 q 638 1288 574 1288 z "},"V":{"ha":918,"x_min":128,"x_max":1083,"o":"m 864 785 q 906 883 906 847 q 876 936 907 919 q 790 956 846 953 l 797 983 q 849 981 817 982 q 918 980 882 981 q 979 979 954 979 q 1036 981 1011 979 q 1083 983 1061 982 l 1076 956 q 1024 934 1049 949 q 972 890 999 919 q 911 808 944 860 l 381 -7 q 345 -6 363 -6 q 310 -7 328 -6 l 200 867 q 171 935 194 917 q 128 956 147 954 l 135 983 q 226 981 171 982 q 335 979 282 979 q 456 981 401 979 q 547 983 511 982 l 540 956 q 469 945 496 954 q 433 913 443 936 q 429 839 424 889 l 501 199 l 461 165 l 864 785 z "},"W":{"ha":1364,"x_min":119,"x_max":1515,"o":"m 796 690 l 375 -7 l 303 -7 l 193 867 q 164 936 188 918 q 119 956 140 954 l 126 983 q 214 981 161 982 q 321 979 267 979 q 423 981 376 979 q 501 983 469 982 l 494 956 q 433 931 450 953 q 422 839 415 910 l 492 215 l 450 172 l 788 726 l 796 690 m 1303 785 q 1338 888 1339 851 q 1308 938 1338 924 q 1221 956 1278 953 l 1228 983 q 1280 981 1247 982 q 1349 980 1313 981 q 1410 979 1386 979 q 1467 981 1442 979 q 1515 983 1493 982 l 1508 956 q 1454 935 1481 949 q 1401 892 1428 921 q 1344 808 1375 863 l 907 -7 l 835 -7 l 714 867 q 689 936 707 918 q 654 956 671 954 l 661 983 q 742 981 693 982 q 842 979 792 979 q 965 981 908 979 q 1058 983 1022 982 l 1051 956 q 958 932 982 953 q 943 839 933 911 l 1021 226 l 979 189 l 1303 785 z "},"Ẃ":{"ha":1364,"x_min":119,"x_max":1515,"o":"m 796 690 l 375 -7 l 303 -7 l 193 867 q 164 936 188 918 q 119 956 140 954 l 126 983 q 214 981 161 982 q 321 979 267 979 q 423 981 376 979 q 501 983 469 982 l 494 956 q 433 931 450 953 q 422 839 415 910 l 492 215 l 450 172 l 788 726 l 796 690 m 1303 785 q 1338 888 1339 851 q 1308 938 1338 924 q 1221 956 1278 953 l 1228 983 q 1280 981 1247 982 q 1349 980 1313 981 q 1410 979 1386 979 q 1467 981 1442 979 q 1515 983 1493 982 l 1508 956 q 1454 935 1481 949 q 1401 892 1428 921 q 1344 808 1375 863 l 907 -7 l 835 -7 l 714 867 q 689 936 707 918 q 654 956 671 954 l 661 983 q 742 981 693 982 q 842 979 792 979 q 965 981 908 979 q 1058 983 1022 982 l 1051 956 q 958 932 982 953 q 943 839 933 911 l 1021 226 l 979 189 l 1303 785 m 850 1086 q 964 1183 919 1140 q 1042 1258 1008 1226 q 1114 1310 1076 1289 q 1158 1324 1133 1321 q 1206 1320 1183 1328 q 1240 1288 1229 1313 q 1238 1227 1257 1256 q 1185 1181 1219 1199 q 1105 1148 1150 1161 q 1000 1118 1060 1135 q 860 1069 940 1101 l 850 1086 z "},"Ŵ":{"ha":1364,"x_min":119,"x_max":1515,"o":"m 796 690 l 375 -7 l 303 -7 l 193 867 q 164 936 188 918 q 119 956 140 954 l 126 983 q 214 981 161 982 q 321 979 267 979 q 423 981 376 979 q 501 983 469 982 l 494 956 q 433 931 450 953 q 422 839 415 910 l 492 215 l 450 172 l 788 726 l 796 690 m 1303 785 q 1338 888 1339 851 q 1308 938 1338 924 q 1221 956 1278 953 l 1228 983 q 1280 981 1247 982 q 1349 980 1313 981 q 1410 979 1386 979 q 1467 981 1442 979 q 1515 983 1493 982 l 1508 956 q 1454 935 1481 949 q 1401 892 1428 921 q 1344 808 1375 863 l 907 -7 l 835 -7 l 714 867 q 689 936 707 918 q 654 956 671 954 l 661 983 q 742 981 693 982 q 842 979 792 979 q 965 981 908 979 q 1058 983 1022 982 l 1051 956 q 958 932 982 953 q 943 839 933 911 l 1021 226 l 979 189 l 1303 785 m 878 1150 q 738 1106 818 1128 q 575 1068 658 1083 l 568 1088 q 785 1182 685 1124 q 944 1303 885 1240 l 969 1303 q 1043 1178 1000 1231 q 1163 1088 1086 1125 l 1157 1068 q 1042 1092 1090 1079 q 954 1120 993 1106 q 878 1150 915 1135 z "},"Ẅ":{"ha":1364,"x_min":119,"x_max":1515,"o":"m 796 690 l 375 -7 l 303 -7 l 193 867 q 164 936 188 918 q 119 956 140 954 l 126 983 q 214 981 161 982 q 321 979 267 979 q 423 981 376 979 q 501 983 469 982 l 494 956 q 433 931 450 953 q 422 839 415 910 l 492 215 l 450 172 l 788 726 l 796 690 m 1303 785 q 1338 888 1339 851 q 1308 938 1338 924 q 1221 956 1278 953 l 1228 983 q 1280 981 1247 982 q 1349 980 1313 981 q 1410 979 1386 979 q 1467 981 1442 979 q 1515 983 1493 982 l 1508 956 q 1454 935 1481 949 q 1401 892 1428 921 q 1344 808 1375 863 l 907 -7 l 835 -7 l 714 867 q 689 936 707 918 q 654 956 671 954 l 661 983 q 742 981 693 982 q 842 979 792 979 q 965 981 908 979 q 1058 983 1022 982 l 1051 956 q 958 932 982 953 q 943 839 933 911 l 1021 226 l 979 189 l 1303 785 m 625 1153 q 662 1240 625 1208 q 744 1271 699 1271 q 813 1244 790 1271 q 835 1178 835 1218 q 817 1114 835 1140 q 773 1074 800 1088 q 714 1061 746 1061 q 647 1087 669 1061 q 625 1153 625 1113 m 958 1153 q 994 1240 958 1208 q 1078 1271 1031 1271 q 1145 1244 1122 1271 q 1168 1178 1168 1218 q 1151 1114 1168 1140 q 1106 1074 1133 1088 q 1047 1061 1078 1061 q 980 1087 1001 1061 q 958 1153 958 1113 z "},"Ẁ":{"ha":1364,"x_min":119,"x_max":1515,"o":"m 796 690 l 375 -7 l 303 -7 l 193 867 q 164 936 188 918 q 119 956 140 954 l 126 983 q 214 981 161 982 q 321 979 267 979 q 423 981 376 979 q 501 983 469 982 l 494 956 q 433 931 450 953 q 422 839 415 910 l 492 215 l 450 172 l 788 726 l 796 690 m 1303 785 q 1338 888 1339 851 q 1308 938 1338 924 q 1221 956 1278 953 l 1228 983 q 1280 981 1247 982 q 1349 980 1313 981 q 1410 979 1386 979 q 1467 981 1442 979 q 1515 983 1493 982 l 1508 956 q 1454 935 1481 949 q 1401 892 1428 921 q 1344 808 1375 863 l 907 -7 l 835 -7 l 714 867 q 689 936 707 918 q 654 956 671 954 l 661 983 q 742 981 693 982 q 842 979 792 979 q 965 981 908 979 q 1058 983 1022 982 l 1051 956 q 958 932 982 953 q 943 839 933 911 l 1021 226 l 979 189 l 1303 785 m 936 1068 q 817 1118 865 1101 q 734 1147 768 1135 q 671 1176 700 1158 q 633 1224 644 1194 q 638 1282 621 1253 q 691 1315 656 1313 q 753 1300 726 1317 q 803 1253 782 1283 q 858 1182 825 1224 q 947 1083 890 1140 l 936 1068 z "},"X":{"ha":1029,"x_min":-57,"x_max":1119,"o":"m 692 174 q 715 106 697 132 q 771 79 733 79 q 826 99 804 79 q 865 165 849 119 l 889 236 l 917 236 l 881 129 q 803 15 851 50 q 688 -19 756 -19 q 567 9 611 -19 q 501 87 522 38 q 472 197 481 136 l 397 814 q 374 885 392 858 q 319 911 357 911 q 265 889 288 911 q 225 818 242 867 l 201 747 l 174 747 l 210 854 q 289 969 238 935 q 413 1003 340 1003 q 526 976 485 1003 q 590 900 568 949 q 619 786 611 851 l 692 174 m 986 976 q 940 969 963 976 q 896 944 917 961 q 799 836 854 911 q 684 648 743 761 q 572 386 625 535 l 590 492 q 669 672 622 582 q 768 837 715 763 q 868 953 821 911 q 994 1003 931 1003 q 1088 965 1057 1003 q 1118 874 1119 926 q 1082 780 1117 818 q 994 742 1047 742 q 928 767 951 742 q 904 835 904 793 q 935 918 906 881 q 1010 971 964 956 q 1000 975 1006 974 q 986 976 994 976 m 76 7 q 124 15 103 7 q 168 39 146 24 q 272 138 213 69 q 396 309 332 206 q 514 550 460 413 l 493 444 q 409 283 460 364 q 303 135 358 201 q 196 28 249 68 q 67 -19 133 -19 q -26 19 6 -19 q -56 110 -57 57 q -20 203 -54 165 q 68 242 14 242 q 135 216 113 242 q 157 149 158 190 q 128 66 157 103 q 53 13 99 29 q 63 8 57 10 q 76 7 68 7 z "},"Y":{"ha":1019,"x_min":115,"x_max":1133,"o":"m 544 147 q 538 72 532 97 q 570 39 544 47 q 643 28 596 31 l 636 0 q 570 2 610 1 q 485 3 531 3 q 397 4 439 4 q 270 3 331 4 q 174 0 210 3 l 181 28 q 254 39 228 31 q 296 72 281 47 q 324 147 311 97 l 419 528 l 510 440 l 606 467 l 653 578 l 544 147 m 992 976 q 950 969 969 976 q 908 944 931 961 q 814 844 869 917 q 701 653 758 771 q 596 375 644 536 l 407 368 q 392 506 401 433 q 368 648 382 578 q 335 776 354 718 q 293 867 317 833 q 239 900 269 900 q 199 881 214 900 q 175 835 183 863 l 146 747 q 131 747 146 747 q 115 747 115 747 l 150 854 q 228 969 178 936 q 346 1003 279 1003 q 492 944 440 1003 q 568 775 543 886 q 611 507 593 664 q 717 744 658 640 q 839 917 775 847 q 913 977 871 951 q 1003 1003 954 1003 q 1100 967 1067 1003 q 1132 881 1133 931 q 1096 794 1131 829 q 1006 758 1061 758 q 935 782 960 758 q 910 843 910 806 q 941 924 911 890 q 1015 971 971 958 q 1006 975 1011 974 q 992 976 1000 976 z "},"Ý":{"ha":1019,"x_min":115,"x_max":1133,"o":"m 544 147 q 538 72 532 97 q 570 39 544 47 q 643 28 596 31 l 636 0 q 570 2 610 1 q 485 3 531 3 q 397 4 439 4 q 270 3 331 4 q 174 0 210 3 l 181 28 q 254 39 228 31 q 296 72 281 47 q 324 147 311 97 l 419 528 l 510 440 l 606 467 l 653 578 l 544 147 m 992 976 q 950 969 969 976 q 908 944 931 961 q 814 844 869 917 q 701 653 758 771 q 596 375 644 536 l 407 368 q 392 506 401 433 q 368 648 382 578 q 335 776 354 718 q 293 867 317 833 q 239 900 269 900 q 199 881 214 900 q 175 835 183 863 l 146 747 q 131 747 146 747 q 115 747 115 747 l 150 854 q 228 969 178 936 q 346 1003 279 1003 q 492 944 440 1003 q 568 775 543 886 q 611 507 593 664 q 717 744 658 640 q 839 917 775 847 q 913 977 871 951 q 1003 1003 954 1003 q 1100 967 1067 1003 q 1132 881 1133 931 q 1096 794 1131 829 q 1006 758 1061 758 q 935 782 960 758 q 910 843 910 806 q 941 924 911 890 q 1015 971 971 958 q 1006 975 1011 974 q 992 976 1000 976 m 649 1089 q 763 1186 718 1143 q 841 1260 807 1229 q 913 1313 875 1292 q 957 1327 932 1324 q 1005 1323 982 1331 q 1039 1290 1028 1315 q 1037 1230 1056 1258 q 983 1183 1018 1201 q 903 1151 949 1164 q 799 1121 858 1138 q 658 1072 739 1104 l 649 1089 z "},"Ŷ":{"ha":1019,"x_min":115,"x_max":1133,"o":"m 544 147 q 538 72 532 97 q 570 39 544 47 q 643 28 596 31 l 636 0 q 570 2 610 1 q 485 3 531 3 q 397 4 439 4 q 270 3 331 4 q 174 0 210 3 l 181 28 q 254 39 228 31 q 296 72 281 47 q 324 147 311 97 l 419 528 l 510 440 l 606 467 l 653 578 l 544 147 m 992 976 q 950 969 969 976 q 908 944 931 961 q 814 844 869 917 q 701 653 758 771 q 596 375 644 536 l 407 368 q 392 506 401 433 q 368 648 382 578 q 335 776 354 718 q 293 867 317 833 q 239 900 269 900 q 199 881 214 900 q 175 835 183 863 l 146 747 q 131 747 146 747 q 115 747 115 747 l 150 854 q 228 969 178 936 q 346 1003 279 1003 q 492 944 440 1003 q 568 775 543 886 q 611 507 593 664 q 717 744 658 640 q 839 917 775 847 q 913 977 871 951 q 1003 1003 954 1003 q 1100 967 1067 1003 q 1132 881 1133 931 q 1096 794 1131 829 q 1006 758 1061 758 q 935 782 960 758 q 910 843 910 806 q 941 924 911 890 q 1015 971 971 958 q 1006 975 1011 974 q 992 976 1000 976 m 676 1153 q 537 1108 617 1131 q 374 1071 457 1086 l 367 1090 q 583 1185 483 1126 q 743 1306 683 1243 l 768 1306 q 842 1181 799 1233 q 961 1090 885 1128 l 956 1071 q 840 1095 889 1082 q 753 1123 792 1108 q 676 1153 714 1138 z "},"Ÿ":{"ha":1019,"x_min":115,"x_max":1133,"o":"m 544 147 q 538 72 532 97 q 570 39 544 47 q 643 28 596 31 l 636 0 q 570 2 610 1 q 485 3 531 3 q 397 4 439 4 q 270 3 331 4 q 174 0 210 3 l 181 28 q 254 39 228 31 q 296 72 281 47 q 324 147 311 97 l 419 528 l 510 440 l 606 467 l 653 578 l 544 147 m 992 976 q 950 969 969 976 q 908 944 931 961 q 814 844 869 917 q 701 653 758 771 q 596 375 644 536 l 407 368 q 392 506 401 433 q 368 648 382 578 q 335 776 354 718 q 293 867 317 833 q 239 900 269 900 q 199 881 214 900 q 175 835 183 863 l 146 747 q 131 747 146 747 q 115 747 115 747 l 150 854 q 228 969 178 936 q 346 1003 279 1003 q 492 944 440 1003 q 568 775 543 886 q 611 507 593 664 q 717 744 658 640 q 839 917 775 847 q 913 977 871 951 q 1003 1003 954 1003 q 1100 967 1067 1003 q 1132 881 1133 931 q 1096 794 1131 829 q 1006 758 1061 758 q 935 782 960 758 q 910 843 910 806 q 941 924 911 890 q 1015 971 971 958 q 1006 975 1011 974 q 992 976 1000 976 m 424 1156 q 460 1242 424 1211 q 543 1274 497 1274 q 611 1247 589 1274 q 633 1181 633 1221 q 616 1117 633 1143 q 572 1077 599 1090 q 513 1064 544 1064 q 446 1090 468 1064 q 424 1156 424 1115 m 757 1156 q 793 1242 757 1211 q 876 1274 829 1274 q 944 1247 921 1274 q 967 1181 967 1221 q 949 1117 967 1143 q 904 1077 932 1090 q 846 1064 876 1064 q 778 1090 800 1064 q 757 1156 757 1115 z "},"Ỵ":{"ha":1019,"x_min":115,"x_max":1133,"o":"m 544 147 q 538 72 532 97 q 570 39 544 47 q 643 28 596 31 l 636 0 q 570 2 610 1 q 485 3 531 3 q 397 4 439 4 q 270 3 331 4 q 174 0 210 3 l 181 28 q 254 39 228 31 q 296 72 281 47 q 324 147 311 97 l 419 528 l 510 440 l 606 467 l 653 578 l 544 147 m 992 976 q 950 969 969 976 q 908 944 931 961 q 814 844 869 917 q 701 653 758 771 q 596 375 644 536 l 407 368 q 392 506 401 433 q 368 648 382 578 q 335 776 354 718 q 293 867 317 833 q 239 900 269 900 q 199 881 214 900 q 175 835 183 863 l 146 747 q 131 747 146 747 q 115 747 115 747 l 150 854 q 228 969 178 936 q 346 1003 279 1003 q 492 944 440 1003 q 568 775 543 886 q 611 507 593 664 q 717 744 658 640 q 839 917 775 847 q 913 977 871 951 q 1003 1003 954 1003 q 1100 967 1067 1003 q 1132 881 1133 931 q 1096 794 1131 829 q 1006 758 1061 758 q 935 782 960 758 q 910 843 910 806 q 941 924 911 890 q 1015 971 971 958 q 1006 975 1011 974 q 992 976 1000 976 m 351 -260 q 285 -241 308 -260 q 261 -187 261 -222 q 294 -106 261 -136 q 383 -76 328 -76 q 450 -95 426 -76 q 474 -149 474 -114 q 439 -231 474 -201 q 351 -260 404 -260 z "},"Ỳ":{"ha":1019,"x_min":115,"x_max":1133,"o":"m 544 147 q 538 72 532 97 q 570 39 544 47 q 643 28 596 31 l 636 0 q 570 2 610 1 q 485 3 531 3 q 397 4 439 4 q 270 3 331 4 q 174 0 210 3 l 181 28 q 254 39 228 31 q 296 72 281 47 q 324 147 311 97 l 419 528 l 510 440 l 606 467 l 653 578 l 544 147 m 992 976 q 950 969 969 976 q 908 944 931 961 q 814 844 869 917 q 701 653 758 771 q 596 375 644 536 l 407 368 q 392 506 401 433 q 368 648 382 578 q 335 776 354 718 q 293 867 317 833 q 239 900 269 900 q 199 881 214 900 q 175 835 183 863 l 146 747 q 131 747 146 747 q 115 747 115 747 l 150 854 q 228 969 178 936 q 346 1003 279 1003 q 492 944 440 1003 q 568 775 543 886 q 611 507 593 664 q 717 744 658 640 q 839 917 775 847 q 913 977 871 951 q 1003 1003 954 1003 q 1100 967 1067 1003 q 1132 881 1133 931 q 1096 794 1131 829 q 1006 758 1061 758 q 935 782 960 758 q 910 843 910 806 q 941 924 911 890 q 1015 971 971 958 q 1006 975 1011 974 q 992 976 1000 976 m 735 1071 q 615 1121 664 1104 q 533 1149 567 1138 q 469 1179 499 1161 q 431 1226 443 1197 q 436 1285 419 1256 q 490 1317 454 1315 q 551 1303 525 1319 q 602 1256 581 1286 q 656 1185 624 1226 q 746 1086 689 1143 l 735 1071 z "},"Ỷ":{"ha":1019,"x_min":115,"x_max":1133,"o":"m 544 147 q 538 72 532 97 q 570 39 544 47 q 643 28 596 31 l 636 0 q 570 2 610 1 q 485 3 531 3 q 397 4 439 4 q 270 3 331 4 q 174 0 210 3 l 181 28 q 254 39 228 31 q 296 72 281 47 q 324 147 311 97 l 419 528 l 510 440 l 606 467 l 653 578 l 544 147 m 992 976 q 950 969 969 976 q 908 944 931 961 q 814 844 869 917 q 701 653 758 771 q 596 375 644 536 l 407 368 q 392 506 401 433 q 368 648 382 578 q 335 776 354 718 q 293 867 317 833 q 239 900 269 900 q 199 881 214 900 q 175 835 183 863 l 146 747 q 131 747 146 747 q 115 747 115 747 l 150 854 q 228 969 178 936 q 346 1003 279 1003 q 492 944 440 1003 q 568 775 543 886 q 611 507 593 664 q 717 744 658 640 q 839 917 775 847 q 913 977 871 951 q 1003 1003 954 1003 q 1100 967 1067 1003 q 1132 881 1133 931 q 1096 794 1131 829 q 1006 758 1061 758 q 935 782 960 758 q 910 843 910 806 q 941 924 911 890 q 1015 971 971 958 q 1006 975 1011 974 q 992 976 1000 976 m 658 1032 q 683 1101 664 1075 q 723 1144 701 1126 q 760 1185 744 1163 q 776 1247 776 1208 q 754 1310 776 1292 q 693 1329 732 1329 q 657 1325 674 1329 q 631 1314 640 1321 q 666 1288 653 1304 q 679 1244 679 1271 q 655 1190 679 1211 q 594 1168 631 1168 q 544 1185 564 1168 q 525 1232 525 1203 q 549 1289 525 1265 q 606 1328 572 1313 q 665 1348 631 1340 q 743 1356 700 1356 q 859 1332 813 1356 q 906 1254 906 1308 q 885 1196 906 1217 q 834 1160 865 1175 q 771 1131 803 1146 q 715 1094 739 1117 q 686 1032 692 1072 l 658 1032 z "},"Ỹ":{"ha":1019,"x_min":115,"x_max":1133,"o":"m 544 147 q 538 72 532 97 q 570 39 544 47 q 643 28 596 31 l 636 0 q 570 2 610 1 q 485 3 531 3 q 397 4 439 4 q 270 3 331 4 q 174 0 210 3 l 181 28 q 254 39 228 31 q 296 72 281 47 q 324 147 311 97 l 419 528 l 510 440 l 606 467 l 653 578 l 544 147 m 992 976 q 950 969 969 976 q 908 944 931 961 q 814 844 869 917 q 701 653 758 771 q 596 375 644 536 l 407 368 q 392 506 401 433 q 368 648 382 578 q 335 776 354 718 q 293 867 317 833 q 239 900 269 900 q 199 881 214 900 q 175 835 183 863 l 146 747 q 131 747 146 747 q 115 747 115 747 l 150 854 q 228 969 178 936 q 346 1003 279 1003 q 492 944 440 1003 q 568 775 543 886 q 611 507 593 664 q 717 744 658 640 q 839 917 775 847 q 913 977 871 951 q 1003 1003 954 1003 q 1100 967 1067 1003 q 1132 881 1133 931 q 1096 794 1131 829 q 1006 758 1061 758 q 935 782 960 758 q 910 843 910 806 q 941 924 911 890 q 1015 971 971 958 q 1006 975 1011 974 q 992 976 1000 976 m 626 1288 q 712 1272 678 1288 q 772 1237 746 1257 q 824 1201 797 1217 q 890 1186 851 1186 q 946 1205 919 1186 q 997 1267 972 1224 l 1022 1260 q 919 1112 982 1157 q 792 1067 856 1067 q 706 1082 740 1067 q 647 1117 672 1097 q 594 1153 621 1138 q 528 1168 567 1168 q 473 1150 499 1168 q 421 1088 447 1132 l 396 1094 q 499 1242 435 1197 q 626 1288 563 1288 z "},"Z":{"ha":914,"x_min":-53,"x_max":1011,"o":"m 225 481 l 235 508 l 725 508 l 714 481 l 225 481 m 625 294 q 628 308 625 294 q 631 321 631 321 q 716 296 675 314 q 784 245 757 278 q 811 160 811 213 q 757 31 811 82 q 610 -19 703 -19 q 505 -1 550 -19 q 419 42 460 18 q 335 85 379 67 q 233 104 292 104 q 159 94 193 104 q 86 67 125 83 q 19 -1 56 22 q -36 -7 -17 -25 q -33 39 -53 8 q 60 97 -14 69 l 865 889 q 728 798 800 832 q 583 764 656 764 q 494 773 533 764 q 423 794 456 782 q 360 816 390 807 q 296 825 329 825 q 249 811 265 825 q 233 769 233 797 q 257 720 233 740 q 335 689 281 700 q 331 676 335 689 q 328 663 328 663 q 243 688 285 671 q 174 739 201 706 q 147 824 147 772 q 201 952 147 901 q 349 1003 256 1003 q 453 984 408 1003 q 539 941 499 965 q 623 898 579 917 q 725 879 667 879 q 799 890 765 879 q 872 917 833 900 q 939 985 904 961 q 994 990 974 1008 q 992 945 1011 976 q 899 886 972 914 l 93 94 q 231 185 158 151 q 376 219 303 219 q 465 210 426 219 q 537 189 504 201 q 600 167 569 176 q 664 158 631 158 q 710 172 693 158 q 726 214 726 186 q 703 263 726 243 q 625 294 679 283 z "},"Ź":{"ha":914,"x_min":-53,"x_max":1011,"o":"m 225 481 l 235 508 l 725 508 l 714 481 l 225 481 m 625 294 q 628 308 625 294 q 631 321 631 321 q 716 296 675 314 q 784 245 757 278 q 811 160 811 213 q 757 31 811 82 q 610 -19 703 -19 q 505 -1 550 -19 q 419 42 460 18 q 335 85 379 67 q 233 104 292 104 q 159 94 193 104 q 86 67 125 83 q 19 -1 56 22 q -36 -7 -17 -25 q -33 39 -53 8 q 60 97 -14 69 l 865 889 q 728 798 800 832 q 583 764 656 764 q 494 773 533 764 q 423 794 456 782 q 360 816 390 807 q 296 825 329 825 q 249 811 265 825 q 233 769 233 797 q 257 720 233 740 q 335 689 281 700 q 331 676 335 689 q 328 663 328 663 q 243 688 285 671 q 174 739 201 706 q 147 824 147 772 q 201 952 147 901 q 349 1003 256 1003 q 453 984 408 1003 q 539 941 499 965 q 623 898 579 917 q 725 879 667 879 q 799 890 765 879 q 872 917 833 900 q 939 985 904 961 q 994 990 974 1008 q 992 945 1011 976 q 899 886 972 914 l 93 94 q 231 185 158 151 q 376 219 303 219 q 465 210 426 219 q 537 189 504 201 q 600 167 569 176 q 664 158 631 158 q 710 172 693 158 q 726 214 726 186 q 703 263 726 243 q 625 294 679 283 m 586 1089 q 700 1186 656 1143 q 778 1260 744 1229 q 850 1313 813 1292 q 894 1327 869 1324 q 942 1323 919 1331 q 976 1290 965 1315 q 974 1230 993 1258 q 921 1183 956 1201 q 841 1151 886 1164 q 736 1121 796 1138 q 596 1072 676 1104 l 586 1089 z "},"Ž":{"ha":914,"x_min":-53,"x_max":1011,"o":"m 225 481 l 235 508 l 725 508 l 714 481 l 225 481 m 625 294 q 628 308 625 294 q 631 321 631 321 q 716 296 675 314 q 784 245 757 278 q 811 160 811 213 q 757 31 811 82 q 610 -19 703 -19 q 505 -1 550 -19 q 419 42 460 18 q 335 85 379 67 q 233 104 292 104 q 159 94 193 104 q 86 67 125 83 q 19 -1 56 22 q -36 -7 -17 -25 q -33 39 -53 8 q 60 97 -14 69 l 865 889 q 728 798 800 832 q 583 764 656 764 q 494 773 533 764 q 423 794 456 782 q 360 816 390 807 q 296 825 329 825 q 249 811 265 825 q 233 769 233 797 q 257 720 233 740 q 335 689 281 700 q 331 676 335 689 q 328 663 328 663 q 243 688 285 671 q 174 739 201 706 q 147 824 147 772 q 201 952 147 901 q 349 1003 256 1003 q 453 984 408 1003 q 539 941 499 965 q 623 898 579 917 q 725 879 667 879 q 799 890 765 879 q 872 917 833 900 q 939 985 904 961 q 994 990 974 1008 q 992 945 1011 976 q 899 886 972 914 l 93 94 q 231 185 158 151 q 376 219 303 219 q 465 210 426 219 q 537 189 504 201 q 600 167 569 176 q 664 158 631 158 q 710 172 693 158 q 726 214 726 186 q 703 263 726 243 q 625 294 679 283 m 696 1219 q 835 1264 756 1242 q 997 1301 914 1286 l 1004 1282 q 788 1188 888 1247 q 628 1067 688 1129 l 603 1067 q 531 1192 574 1140 q 410 1282 488 1244 l 415 1301 q 531 1277 482 1290 q 619 1249 579 1264 q 696 1219 658 1235 z "},"Ż":{"ha":914,"x_min":-53,"x_max":1011,"o":"m 225 481 l 235 508 l 725 508 l 714 481 l 225 481 m 625 294 q 628 308 625 294 q 631 321 631 321 q 716 296 675 314 q 784 245 757 278 q 811 160 811 213 q 757 31 811 82 q 610 -19 703 -19 q 505 -1 550 -19 q 419 42 460 18 q 335 85 379 67 q 233 104 292 104 q 159 94 193 104 q 86 67 125 83 q 19 -1 56 22 q -36 -7 -17 -25 q -33 39 -53 8 q 60 97 -14 69 l 865 889 q 728 798 800 832 q 583 764 656 764 q 494 773 533 764 q 423 794 456 782 q 360 816 390 807 q 296 825 329 825 q 249 811 265 825 q 233 769 233 797 q 257 720 233 740 q 335 689 281 700 q 331 676 335 689 q 328 663 328 663 q 243 688 285 671 q 174 739 201 706 q 147 824 147 772 q 201 952 147 901 q 349 1003 256 1003 q 453 984 408 1003 q 539 941 499 965 q 623 898 579 917 q 725 879 667 879 q 799 890 765 879 q 872 917 833 900 q 939 985 904 961 q 994 990 974 1008 q 992 945 1011 976 q 899 886 972 914 l 93 94 q 231 185 158 151 q 376 219 303 219 q 465 210 426 219 q 537 189 504 201 q 600 167 569 176 q 664 158 631 158 q 710 172 693 158 q 726 214 726 186 q 703 263 726 243 q 625 294 679 283 m 517 1147 q 558 1241 517 1206 q 658 1276 599 1276 q 735 1254 708 1276 q 761 1190 761 1232 q 719 1099 761 1136 q 617 1063 678 1063 q 543 1085 569 1063 q 517 1147 517 1108 z "},"a":{"ha":775,"x_min":-1,"x_max":739,"o":"m 243 56 q 292 79 265 56 q 346 148 318 103 q 400 258 374 193 q 449 410 426 324 l 418 258 q 342 94 383 156 q 253 7 300 33 q 154 -19 206 -19 q 38 26 76 -19 q -1 151 -1 72 q 24 308 -1 226 q 94 467 50 390 q 192 604 138 543 q 309 701 247 665 q 431 738 371 738 q 501 701 476 738 q 517 589 526 665 l 501 581 q 497 658 508 631 q 457 686 485 686 q 395 654 429 686 q 328 567 361 622 q 266 441 294 511 q 221 294 238 371 q 204 142 204 217 q 214 75 204 94 q 243 56 224 56 m 538 717 q 646 723 597 718 q 739 738 694 728 l 557 118 q 551 84 553 100 q 555 58 549 68 q 576 49 561 49 q 617 70 594 49 q 663 158 639 92 l 688 225 l 714 225 l 679 124 q 629 36 660 67 q 564 -7 599 6 q 496 -19 529 -19 q 393 24 424 -19 q 374 99 372 54 q 393 203 376 144 l 538 717 z "},"á":{"ha":775,"x_min":-1,"x_max":778,"o":"m 243 56 q 292 79 265 56 q 346 148 318 103 q 400 258 374 193 q 449 410 426 324 l 418 258 q 342 94 383 156 q 253 7 300 33 q 154 -19 206 -19 q 38 26 76 -19 q -1 151 -1 72 q 24 308 -1 226 q 94 467 50 390 q 192 604 138 543 q 309 701 247 665 q 431 738 371 738 q 501 701 476 738 q 517 589 526 665 l 501 581 q 497 658 508 631 q 457 686 485 686 q 395 654 429 686 q 328 567 361 622 q 266 441 294 511 q 221 294 238 371 q 204 142 204 217 q 214 75 204 94 q 243 56 224 56 m 538 717 q 646 723 597 718 q 739 738 694 728 l 557 118 q 551 84 553 100 q 555 58 549 68 q 576 49 561 49 q 617 70 594 49 q 663 158 639 92 l 688 225 l 714 225 l 679 124 q 629 36 660 67 q 564 -7 599 6 q 496 -19 529 -19 q 393 24 424 -19 q 374 99 372 54 q 393 203 376 144 l 538 717 m 436 846 q 518 971 488 918 q 573 1064 549 1024 q 626 1133 597 1104 q 690 1169 653 1161 q 753 1149 726 1176 q 771 1094 778 1125 q 732 1031 764 1063 q 665 977 704 1003 q 572 918 625 951 q 450 832 519 885 l 436 846 z "}}}
